<svg xmlns="http://www.w3.org/2000/svg" viewBox="0 0 329.114 268.861">
  <defs>
    <style>
      .cls-1, .cls-3 {
        fill: #6c63ff;
      }

      .cls-1, .cls-11, .cls-7 {
        opacity: 0.1;
      }

      .cls-2 {
        fill: #3f3d56;
      }

      .cls-4 {
        fill: #35323e;
      }

      .cls-5 {
        fill: #504f60;
      }

      .cls-6 {
        fill: #a1616a;
      }

      .cls-8 {
        fill: #464353;
      }

      .cls-9 {
        opacity: 0.04;
      }

      .cls-10 {
        fill: #fff;
      }

      .cls-12 {
        fill: #fbbebe;
      }

      .cls-13 {
        opacity: 0.05;
      }

      .cls-14 {
        fill: #f86d70;
      }

      .cls-15 {
        opacity: 0.07;
      }
    </style>
  </defs>
  <g id="undraw_exams_g4ow" transform="translate(-0.001 -0.022)">
    <path id="Path_308" data-name="Path 308" class="cls-1" d="M429.661,204.377v.609q-.054,5.284-.626,10.541a.375.375,0,0,1,0,.064c-.03.291-.064.579-.1.871-.057.492-.117.981-.184,1.473a105.97,105.97,0,0,1-3.861,17.676h0A95.322,95.322,0,0,1,414.814,257.8q-1.982,3.181-4.222,6.158h0c-.8,1.051-1.611,2.079-2.451,3.091q-.884,1.061-1.8,2.089l-.382.422a99.353,99.353,0,0,1-10.38,9.864A162.91,162.91,0,0,1,376.468,292.8c-.375.231-.753.459-1.132.67a.546.546,0,0,1-.084.05,201.519,201.519,0,0,1-27.825,14.221,126.207,126.207,0,0,1-32.406,8.786c-15.476,1.9-31.14.355-46.523-2.3a302.33,302.33,0,0,1-37.837-9.041l-2.043-.64q-1.587-.506-3.171-1.031-9.566-3.164-18.919-7.032a248.683,248.683,0,0,1-44.644-23.971q-2.679-1.8-5.28-3.683-3.636-2.618-7.186-5.391l-1.46-1.132a150.1,150.1,0,0,1-17.352-15.935A88.477,88.477,0,0,1,113.2,219.582q-.958-2.381-1.755-4.852l-.05-.164c-.268-.837-.516-1.674-.743-2.545q-.5-1.868-.881-3.784c-.054-.244-.1-.489-.144-.737a63.355,63.355,0,0,1-1.055-13.035,60.272,60.272,0,0,1,1.339-11.385h0A51.358,51.358,0,0,1,113.7,171.84h0a40.515,40.515,0,0,1,5.8-8.95h0a34.231,34.231,0,0,1,5.468-5.11,44.663,44.663,0,0,1,11.837-6.081h0c1.962-.7,3.951-1.319,5.95-1.892,1.416-.409,2.839-.8,4.256-1.179l4.179-1.128c2.679-.73,5.357-1.48,8-2.29a90.067,90.067,0,0,0,20.76-8.82c1.031-.626,2.083-1.313,3.134-2.049q2.009-1.4,3.965-3.034h0c1.319-1.1,2.612-2.287,3.844-3.539.191-.194.378-.388.566-.586,1-1.058,1.979-2.166,2.883-3.318.442-.563.871-1.135,1.279-1.718.566-.807,1.1-1.627,1.6-2.471h0a25.3,25.3,0,0,0,3.837-13.779,21.193,21.193,0,0,0-.218-2.414c-.435-2.957-.854-5.843-1.162-8.666-1.292-11.676-.747-22.264,8.016-32.212,10.9-12.366,28-14.887,43.563-13.9,45.006,2.846,85.977,28.542,121.983,59.133q4.671,3.965,9.228,8.036,1.149,1.025,2.3,2.063c5.692,5.126,11.3,10.444,16.518,16.139.422.462.844.924,1.259,1.39.254.288.512.573.763.864q2.441,2.762,4.738,5.659A107.206,107.206,0,0,1,418.866,158.4a93.143,93.143,0,0,1,9.5,29.021h0a103.408,103.408,0,0,1,1.149,11.107c.057,1.095.094,2.193.114,3.288v1.051C429.664,203.372,429.664,203.868,429.661,204.377Z" transform="translate(-108.55 -48.49)"/>
    <path id="Path_309" data-name="Path 309" class="cls-2" d="M383.337,446.079l-5.358,95.36,5.358.07,4.353-96.769Z" transform="translate(-251.415 -295.808)"/>
    <rect id="Rectangle_13" data-name="Rectangle 13" class="cls-3" width="66.299" height="14.398" transform="translate(45.868 198.586)"/>
    <path id="Path_310" data-name="Path 310" class="cls-2" d="M306.211,679.51v9.041H237.726q-3.636-2.618-7.186-5.391v-3.65Z" transform="translate(-189.692 -468.203)"/>
    <path id="Path_311" data-name="Path 311" class="cls-4" d="M282.557,541.31c-.187.867-.432,1.724-.69,2.578a33.612,33.612,0,0,0-1.852,7.467c-.238,3.389.67,7.33-1.674,9.791-.6.636-1.39,1.112-1.929,1.791a3.143,3.143,0,0,0-.228.335,5.19,5.19,0,0,0-.546,2.679,46.878,46.878,0,0,0,.378,5.809c.794,6.63,2.361,13.273.3,19.531a30.1,30.1,0,0,1-1.3,3.184,24.891,24.891,0,0,0-2.428,6.784,42.731,42.731,0,0,0-.181,5.408q-1.587-.506-3.171-1.031-9.566-3.164-18.919-7.032c.017-.09.033-.184.047-.275a21.332,21.332,0,0,0-.974-8.934c-1.674-6.158-4.045-12.255-5.448-18.456a46.7,46.7,0,0,1-1.108-7.367c-.04-.556-.064-1.115-.067-1.674-.017-.73,0-1.46.03-2.2.07-1.47.134-3.214-1.041-4.109a9.007,9.007,0,0,0-2.253-.864c-1.453-.566-2.448-1.878-3.6-2.93a4.718,4.718,0,0,0-4.216-1.239c-7.527,1.724-13.059,8.11-20.064,11.338-.271.127-.542.248-.817.362a11.9,11.9,0,0,0-2.568,1.313,2.927,2.927,0,0,0-1.152,1.624,6.076,6.076,0,0,0,.064,2.183A11.147,11.147,0,0,1,207,570.94a10.866,10.866,0,0,1-.358,1.339c-.268.794-.626,1.57-.968,2.344q-2.679-1.8-5.28-3.683-3.636-2.618-7.186-5.391l-1.436-1.155a150.1,150.1,0,0,1-17.352-15.935,60.662,60.662,0,0,0,2.24-5.937c.281-1.182.385-2.411.773-3.559a12.8,12.8,0,0,1,1.848-3.315,44.869,44.869,0,0,1,10.293-10.3c4.149-2.973,8.94-5.357,12.674-8.733a20,20,0,0,0,3.874-4.591,2.866,2.866,0,0,0,.177-.335,6.948,6.948,0,0,0,.6-1.915c.268-1.5.228-3.148.362-4.587a48.931,48.931,0,0,0,13.772.415c5.341-.6,10.564-2.083,15.9-2.659.4-.047.807-.084,1.212-.117,1.711-.137,3.425-.167,5.143-.147,1.436,0,2.873.064,4.309.111l15.815.536a15.525,15.525,0,0,1,5.17.767,11.3,11.3,0,0,1,4.728,3.938c.157.214.315.429.462.65a20.426,20.426,0,0,1,2.438,4.818c.064.174.124.335.181.526.151.465.281.934.4,1.41.09.372.171.743.244,1.118a48.026,48.026,0,0,0,1.169,5.542c.04.131.084.261.131.388.7,1.962,1.862,3.72,2.739,5.605a20.818,20.818,0,0,1,1.44,4.263A21.064,21.064,0,0,1,282.557,541.31Z" transform="translate(-152.363 -350.579)"/>
    <path id="Path_312" data-name="Path 312" class="cls-3" d="M268.275,259.092c-1.413-1.125-3.462-.3-5.116.425a32.844,32.844,0,0,1-4.273,1.544,1.805,1.805,0,0,1-.938.1c-.67-.161-.951-.954-1.45-1.436-.867-.834-2.287-.636-3.405-.184a7.772,7.772,0,0,1-3.422,1c-1.279-.1-2.391-1.045-3.683-1.075-2.277-.054-4.189,2.752-6.342,2.009-1.313-.452-2.344-2.16-3.636-1.674-1,.382-1.095,1.771-1.7,2.679-.713,1.058-2.1,1.356-3.292,1.825a9.456,9.456,0,0,0-5.739,9.654c.271,2.207,1.339,4.229,2.046,6.335,2.1,6.124,1.376,13.032,4.018,18.939.335-.315.522-.432.847-.743a7.748,7.748,0,0,0-.452,5.558c.278.927.73,1.791,1.072,2.7a24.193,24.193,0,0,1,.857,3.114l2.913,12.851a83.449,83.449,0,0,1,2.478,15.188,44.329,44.329,0,0,1-.763,9.978c5.277-.874,10.105-3.214,15.453-3.184a43.082,43.082,0,0,1,5.853.6,120.5,120.5,0,0,0,17.12,1.162,6.8,6.8,0,0,0,2.625-.368,19.682,19.682,0,0,0,2.036-1.279,9.006,9.006,0,0,1,4.584-1c7.162-.131,14.063,2.491,21.179,3.415a25.5,25.5,0,0,0,.82-19.126,28.558,28.558,0,0,1-1.755-5.542,28.037,28.037,0,0,1-.08-3.559,25.82,25.82,0,0,0-1.617-8.9,9.15,9.15,0,0,1-.871-3.439,7.814,7.814,0,0,1,1.205-3.348,23.237,23.237,0,0,1,9.895-10.8l5.167-3.469a50.978,50.978,0,0,0-3.509-13.27,23.6,23.6,0,0,0-8.549-10.28,28.249,28.249,0,0,0-4.038-2.009A18.765,18.765,0,0,0,297.7,261.8a32.392,32.392,0,0,0-7.166.911C283.042,263.977,274.222,263.823,268.275,259.092Z" transform="translate(-186.151 -188.191)"/>
    <path id="Path_313" data-name="Path 313" class="cls-2" d="M249.323,488.53l-2.458,3.1-4.634,5.85-5.357,6.76-1.5,1.889h-2.9l-71.887.084-45.02.05h-2.009c-.268-.837-.516-1.674-.743-2.545q-.5-1.868-.881-3.784c-.054-.244-.1-.489-.144-.737l16.334-10.678,6.141-.033h0l18.785-.107h0l10.491-.06h3.117l6.992-.037h0l53.287-.3h0l2.726-.017h1.182l3.131-.017,11.649-.067,2.237-.851.164.174Z" transform="translate(-110.704 -340.174)"/>
    <path id="Path_314" data-name="Path 314" class="cls-5" d="M246.164,457.928l-.278.335-1.828,2.153-3.764,4.443-7.892,9.305-69.915-1.785-52.721-1.339c-.054-.244-.1-.489-.144-.737a63.355,63.355,0,0,1-1.055-13.035l5.846-2.993,1.339-.69,10.424-5.357,9.148-4.688,23.861,3.1,5.284.686,2.391.308,3.5.455.295.04,54.871,7.115,6.064.787,3.559.462,10.969,1.426Z" transform="translate(-108.55 -311.246)"/>
    <path id="Path_315" data-name="Path 315" class="cls-2" d="M466.939,534.51l-.057,1.316-.335,7.43-1.8,40.851-.382,8.83-1,22.716-.566,12.831-2.042-.64q-1.587-.506-3.171-1.031l4.9-89.068.1-1.869,2.156-.67Z" transform="translate(-340.709 -371.756)"/>
    <path id="Path_316" data-name="Path 316" class="cls-2" d="M117.73,534.22l-.151,3.439-.221,5.023q-.958-2.381-1.755-4.852l-.05-.164c-.268-.837-.516-1.674-.743-2.545Z" transform="translate(-112.713 -371.563)"/>
    <ellipse id="Ellipse_37" data-name="Ellipse 37" class="cls-6" cx="15.403" cy="20.76" rx="15.403" ry="20.76" transform="translate(77.175 70.509)"/>
    <ellipse id="Ellipse_38" data-name="Ellipse 38" class="cls-7" cx="15.403" cy="20.76" rx="15.403" ry="20.76" transform="translate(77.175 70.509)"/>
    <circle id="Ellipse_39" data-name="Ellipse 39" class="cls-6" cx="21.43" cy="21.43" r="21.43" transform="translate(73.325 57.283)"/>
    <path id="Path_317" data-name="Path 317" class="cls-8" d="M345.744,183.933a27.436,27.436,0,0,0-3.888.593c-3.389.824-6.318,2.652-9.171,4.447A10.915,10.915,0,0,0,329.3,191.8c-1.426,2.126-.874,4.832-1.674,7.192a20.712,20.712,0,0,1-1.825,3.429,40.821,40.821,0,0,0-3.623,9.858c-.188.7-.241,1.641.519,1.909a2.093,2.093,0,0,0,1.3-.147c2.4-.794,5.451-1.021,7.233.589s1.631,4.467,3.75,5.692c2.428,1.416,6.218-.295,8.421,1.376.944.717,1.286,1.865,2.059,2.729,1.8,2.009,5.267,1.912,8.15,1.507,1.654-.234,3.683-.392,4.688.77.482.549.619,1.3,1.179,1.8,1,.9,2.843.442,3.824-.479a25.717,25.717,0,0,0,2.267-3.2c1.59-2.009,4.386-3.1,6.027-5.09a12.261,12.261,0,0,0,2.163-5.793l1.4-7.5c.566-3.04,1.082-6.362-.629-9.041-.609-.964-1.483-1.795-2.009-2.793-.352-.67-.549-1.376-.958-2.009a8.34,8.34,0,0,0-1.718-1.734l-3.3-2.736a27.792,27.792,0,0,0-3.613-2.679C358.2,182.707,351.135,183.43,345.744,183.933Z" transform="translate(-250.564 -138.249)"/>
    <path id="Path_318" data-name="Path 318" class="cls-6" d="M135.833,341.775c-.794.844-1.527,1.755-2.377,2.545a28.8,28.8,0,0,1-2.344,1.875q-1.969,1.473-3.851,3.05a21.567,21.567,0,0,0-3.529,3.526c-1.788,2.4-2.635,5.388-4.309,7.869-1.48,2.2-3.566,3.938-5.07,6.121a9.469,9.469,0,0,0-1.447,3.037,14.111,14.111,0,0,0-.3,3.211,23.848,23.848,0,0,0,.3,5.287,8.018,8.018,0,0,0,2.515,4.567,11.032,11.032,0,0,0,4.49,1.942,4.042,4.042,0,0,0,2.5.07,4.119,4.119,0,0,0,1.453-1.226l4.075-4.688c2.726-3.148,5.558-6.362,9.3-8.2,1.172-.573,2.408-1,3.583-1.56a19.3,19.3,0,0,0,9.871-12.674c.335-1.309.549-2.645.767-3.981l.589-3.663a1.169,1.169,0,0,0,0-.559,1.205,1.205,0,0,0-.429-.509,71.03,71.03,0,0,1-7.949-7.5,18.354,18.354,0,0,0-1.8-2.063c-.844-.67-.78-.619-1.795,0a21.52,21.52,0,0,0-4.246,3.526Z" transform="translate(-111.238 -240.889)"/>
    <path id="Path_319" data-name="Path 319" class="cls-2" d="M262.337,421.789a.63.63,0,1,0-1.132.549l-.335.164,9.985,20.466,1.8-.881-9.985-20.479Z" transform="translate(-209.866 -296.527)"/>
    <path id="Path_320" data-name="Path 320" class="cls-9" d="M135.833,341.775c-.794.844-1.527,1.755-2.377,2.545a28.8,28.8,0,0,1-2.344,1.875q-1.969,1.473-3.851,3.05a21.567,21.567,0,0,0-3.529,3.526c-1.788,2.4-2.635,5.388-4.309,7.869-1.48,2.2-3.566,3.938-5.07,6.121a9.469,9.469,0,0,0-1.447,3.037,14.111,14.111,0,0,0-.3,3.211,23.848,23.848,0,0,0,.3,5.287,8.018,8.018,0,0,0,2.515,4.567,11.032,11.032,0,0,0,4.49,1.942,4.042,4.042,0,0,0,2.5.07,4.119,4.119,0,0,0,1.453-1.226l4.075-4.688c2.726-3.148,5.558-6.362,9.3-8.2,1.172-.573,2.408-1,3.583-1.56a19.3,19.3,0,0,0,9.871-12.674c.335-1.309.549-2.645.767-3.981l.589-3.663a1.169,1.169,0,0,0,0-.559,1.205,1.205,0,0,0-.429-.509,71.03,71.03,0,0,1-7.949-7.5,18.354,18.354,0,0,0-1.8-2.063c-.844-.67-.78-.619-1.795,0a21.52,21.52,0,0,0-4.246,3.526Z" transform="translate(-111.238 -240.889)"/>
    <path id="Path_321" data-name="Path 321" class="cls-6" d="M477.341,401.813a15.636,15.636,0,0,1-1,6.285,3.348,3.348,0,0,1-1.862,1.952,4.333,4.333,0,0,1-1.637.06,59.158,59.158,0,0,0-19.585,1.554c1.708-3.415.727-7.511,1.2-11.3.131-1.035.368-2.053.459-3.091.335-3.683-1.242-7.259-1.966-10.9a24.376,24.376,0,0,1,0-9.536,6.362,6.362,0,0,1,.82-2.294,5.384,5.384,0,0,1,1.882-1.637c2.712-1.544,5.91-1.721,8.957-1.517,2.053.137,6.168-.057,7.879,1.205,1.872,1.383,2.464,6.027,2.97,8.173a69.136,69.136,0,0,1,1.54,10A107.486,107.486,0,0,1,477.341,401.813Z" transform="translate(-337.313 -263.211)"/>
    <path id="Path_322" data-name="Path 322" class="cls-10" d="M59.98,436.03l12.054,8.036,54.244-2.009L90.451,436.03Z" transform="translate(-39.895 -290.014)"/>
    <path id="Path_323" data-name="Path 323" class="cls-3" d="M188.316,287.232c-1.979,1.745-3.656,3.8-5.532,5.659a76.113,76.113,0,0,1-8.4,6.881,6.255,6.255,0,0,1,4.353,4.386c.127.492.191,1,.335,1.487a8.123,8.123,0,0,0,1.862,3.014c3.4,3.827,8.147,6.66,10.149,11.385a1.052,1.052,0,0,0,.4.569.881.881,0,0,0,.519.06c1.811-.191,3.2-1.651,4.353-3.071a32.1,32.1,0,0,0,5.692-10.018,17.858,17.858,0,0,0,.084-11.385,29.142,29.142,0,0,0-2.635-5.133q-1.3-2.166-2.6-4.326c-.452-.76-1.028-2.3-1.915-2.679C193.064,283.237,189.545,286,188.316,287.232Z" transform="translate(-152.336 -205.067)"/>
    <path id="Path_324" data-name="Path 324" class="cls-3" d="M466.013,345l2.849,6.7a20.7,20.7,0,0,0-18.718,2.6,10.514,10.514,0,0,0-3.847,4.477,1.955,1.955,0,0,1-1.939-.76,3.888,3.888,0,0,1-.717-2.049c-.265-2.572.71-5.093,1.674-7.5a10.8,10.8,0,0,1,1.708-3.188,9.976,9.976,0,0,1,2.913-2.086,64.871,64.871,0,0,1,10.564-4.668c1.54-.5,3.154-.489,4.018.951C465.521,341.186,465.23,343.169,466.013,345Z" transform="translate(-331.409 -241.191)"/>
    <path id="Path_325" data-name="Path 325" class="cls-6" d="M136.685,413.921c.713.569,1.339,1.242,2.073,1.785a14.809,14.809,0,0,0,2.464,1.383l3.3,1.587a18.5,18.5,0,0,0,3.2,1.3c1.413.378,2.9.415,4.316.767,1.791.442,3.429,1.363,5.193,1.9s3.831.62,5.3-.489c.921-.693,1.617-1.838,2.759-2.009a3.651,3.651,0,0,1,2.1.6l8.592,4.517a6.547,6.547,0,0,1,2.99,2.448c.606,1.162.2,2.927-1.078,3.228a11.776,11.776,0,0,1-1.339.077,1.05,1.05,0,0,0-.984.76,1.527,1.527,0,0,0,.211.787,3.292,3.292,0,0,1,.05,2.8,2,2,0,0,1-2.431,1c.151,1.3-1.259,2.2-2.515,2.548-3.168.867-6.526.335-9.764-.214a13.385,13.385,0,0,1-3.723-1c-.556-.271-1.071-.619-1.634-.871a11.661,11.661,0,0,0-4.986-.566c-7.805.137-15.543-1.309-23.218-2.749a11.23,11.23,0,0,1-4.1-1.339c-2.344-1.527-3.214-4.661-2.829-7.433s1.791-5.284,3.174-7.721l1.791-3.158a4.065,4.065,0,0,1,.964-1.272C129.2,410.569,134.428,412.106,136.685,413.921Z" transform="translate(-116.529 -290.022)"/>
    <path id="Path_326" data-name="Path 326" class="cls-9" d="M136.685,413.921c.713.569,1.339,1.242,2.073,1.785a14.809,14.809,0,0,0,2.464,1.383l3.3,1.587a18.5,18.5,0,0,0,3.2,1.3c1.413.378,2.9.415,4.316.767,1.791.442,3.429,1.363,5.193,1.9s3.831.62,5.3-.489c.921-.693,1.617-1.838,2.759-2.009a3.651,3.651,0,0,1,2.1.6l8.592,4.517a6.547,6.547,0,0,1,2.99,2.448c.606,1.162.2,2.927-1.078,3.228a11.776,11.776,0,0,1-1.339.077,1.05,1.05,0,0,0-.984.76,1.527,1.527,0,0,0,.211.787,3.292,3.292,0,0,1,.05,2.8,2,2,0,0,1-2.431,1c.151,1.3-1.259,2.2-2.515,2.548-3.168.867-6.526.335-9.764-.214a13.385,13.385,0,0,1-3.723-1c-.556-.271-1.071-.619-1.634-.871a11.661,11.661,0,0,0-4.986-.566c-7.805.137-15.543-1.309-23.218-2.749a11.23,11.23,0,0,1-4.1-1.339c-2.344-1.527-3.214-4.661-2.829-7.433s1.791-5.284,3.174-7.721l1.791-3.158a4.065,4.065,0,0,1,.964-1.272C129.2,410.569,134.428,412.106,136.685,413.921Z" transform="translate(-116.529 -290.022)"/>
    <path id="Path_327" data-name="Path 327" class="cls-6" d="M339.525,433.46c-1.745.824-3.747.9-5.568,1.537a32.977,32.977,0,0,0-5.039,2.7c-4.353,2.431-9.376,3.348-14.308,4.222a41.736,41.736,0,0,1-9.041.944c-4.078-.174-8-1.534-11.947-2.558s-8.167-1.714-12.081-.563a13.6,13.6,0,0,0-8.873,8.515,19.612,19.612,0,0,0-.777,7.541c.824.606,1.976-.234,2.424-1.155s.693-2.049,1.564-2.585c1.51.512,1.878,2.525,3.124,3.519a5.641,5.641,0,0,0,2.8.928l5.09.723c1.226.174,2.649.291,3.536-.573.432-.419.67-1,1.065-1.453a3.949,3.949,0,0,1,3.368-.931c3.764.375,7.293,2.816,11.03,2.237a20.916,20.916,0,0,0,3.707-1.179c7.263-2.565,15.332-1,22.89-2.474a51.089,51.089,0,0,0,8.4-2.6,16.991,16.991,0,0,0,4.269-2.116,8.987,8.987,0,0,0,3.469-7.973,9.114,9.114,0,0,0-3.218-5.907,11.39,11.39,0,0,0-2.069-1.778C341.992,431.893,340.67,432.921,339.525,433.46Z" transform="translate(-217.156 -303.774)"/>
    <g id="Group_78" data-name="Group 78" class="cls-11" transform="translate(72.161 50.867)">
      <path id="Path_328" data-name="Path 328" d="M364.479,236.4c-.559-.5-.7-1.249-1.179-1.8-1-1.162-3.034-1-4.688-.77-2.883.405-6.362.5-8.15-1.507-.773-.864-1.115-2.009-2.059-2.729-2.2-1.674-5.994.04-8.421-1.376-2.12-1.236-1.982-4.1-3.75-5.692s-4.832-1.383-7.233-.589a2.093,2.093,0,0,1-1.3.147c-.76-.268-.707-1.212-.519-1.909a40.821,40.821,0,0,1,3.623-9.858,20.717,20.717,0,0,0,1.825-3.429c.727-2.123.355-4.524,1.309-6.533A9.016,9.016,0,0,0,331.3,202.7c-1.426,2.126-.874,4.832-1.674,7.192a20.715,20.715,0,0,1-1.825,3.429,40.821,40.821,0,0,0-3.623,9.858c-.188.7-.241,1.641.519,1.909a2.093,2.093,0,0,0,1.3-.147c2.4-.794,5.451-1.021,7.233.589s1.631,4.467,3.75,5.692c2.428,1.416,6.218-.295,8.421,1.376.944.717,1.286,1.865,2.059,2.729,1.8,2.009,5.267,1.912,8.15,1.507,1.654-.234,3.683-.392,4.688.77.482.549.619,1.3,1.179,1.8,1,.9,2.843.442,3.824-.479a10.153,10.153,0,0,0,1.6-2.19A2.491,2.491,0,0,1,364.479,236.4Z" transform="translate(-324.055 -200.36)"/>
      <path id="Path_329" data-name="Path 329" d="M461.809,290.96a9.51,9.51,0,0,0-.6.867,18.152,18.152,0,0,0,3.61-2.943,7.1,7.1,0,0,0,.67-.964A17.586,17.586,0,0,0,461.809,290.96Z" transform="translate(-415.285 -258.601)"/>
    </g>
    <path id="Path_330" data-name="Path 330" class="cls-2" d="M556.48,446.53l1,96.1,4.688-.67-1-95.43Z" transform="translate(-370.146 -296.998)"/>
    <path id="Path_331" data-name="Path 331" class="cls-2" d="M640.48,498.53l1,96.1,4.688-.67-1-95.43Z" transform="translate(-426.019 -331.587)"/>
    <path id="Path_332" data-name="Path 332" class="cls-2" d="M1000.21,595.552h0l-.02-1.845v-1.1l-.177-16.9-.278-26.426-.047-2.28H995l.023,2.2.147,14.154.064,6.128h0l.054,4.962.087,8.579.054,5.059h0v.536l.07,6.65.06,5.863.382-.422q.921-1.028,1.8-2.089Z" transform="translate(-698.178 -380.063)"/>
    <path id="Path_333" data-name="Path 333" class="cls-3" d="M619.659,545.03l-2.679,4,2.679,18.246,22.769,6.231h36.833l22.1,1.336,10.527-7.206-1.822-12.376L702.03,545.03Z" transform="translate(-410.388 -362.517)"/>
    <path id="Path_334" data-name="Path 334" class="cls-2" d="M722.316,605.48,720.977,616.6s-7.032,21.808,49.557,20.472,46.878-5.786,46.878-5.786l-.335-12.9s1.972,6.108-26.787,5.281-55.584-3.5-55.584-3.5S724.66,621.944,722.316,605.48Z" transform="translate(-515.724 -418.962)"/>
    <path id="Path_335" data-name="Path 335" class="cls-12" d="M839.411,304.767a16.18,16.18,0,0,0-7.31,7.47,48.231,48.231,0,0,0-3.466,10.045,89.433,89.433,0,0,0-2.414,10.969c-.884,6.6-.221,13.544,2.813,19.474s8.639,10.715,15.2,11.857a27.975,27.975,0,0,0,7.7.09,62.613,62.613,0,0,0,13.6-3c4.6-1.557,9.4-3.954,11.445-8.371a18.719,18.719,0,0,0,1.232-8.3,88.3,88.3,0,0,0-3.452-22.7,19.325,19.325,0,0,0-2.652-6.108,18.721,18.721,0,0,0-4.939-4.353C859.338,306.572,849.045,300.387,839.411,304.767Z" transform="translate(-585.674 -217.951)"/>
    <path id="Path_336" data-name="Path 336" class="cls-13" d="M839.411,304.767a16.18,16.18,0,0,0-7.31,7.47,48.231,48.231,0,0,0-3.466,10.045,89.433,89.433,0,0,0-2.414,10.969c-.884,6.6-.221,13.544,2.813,19.474s8.639,10.715,15.2,11.857a27.975,27.975,0,0,0,7.7.09,62.613,62.613,0,0,0,13.6-3c4.6-1.557,9.4-3.954,11.445-8.371a18.719,18.719,0,0,0,1.232-8.3,88.3,88.3,0,0,0-3.452-22.7,19.325,19.325,0,0,0-2.652-6.108,18.721,18.721,0,0,0-4.939-4.353C859.338,306.572,849.045,300.387,839.411,304.767Z" transform="translate(-585.674 -217.951)"/>
    <path id="Path_337" data-name="Path 337" class="cls-3" d="M796.94,376.3a15.2,15.2,0,0,0,3.348,3.348c3.188,2.2,7.279,2.5,11.15,2.622,3.107.094,6.67-.084,8.619-2.508a10.037,10.037,0,0,0,1.627-3.841,170.364,170.364,0,0,0,4.654-25.371l8.867.03c3.837,16.431,3.523,33.511,3.188,50.384l-.486,24.6-5.712-.606c-13.564-1.436-27.149-2.873-40.787-3.121a233.314,233.314,0,0,0-23.948.79L779.9,385.65c1.614-4.808,3.245-9.68,3.623-14.733.546-7.33-1.51-15.068,1.339-21.848a2.657,2.657,0,0,1,1.035-1.4,2.938,2.938,0,0,1,1.771-.137c1.125.151,4.564,0,5.381.72,1.205,1.045.409,1.2-.017,2.886a35.227,35.227,0,0,0-1.47,8.944A26.415,26.415,0,0,0,796.94,376.3Z" transform="translate(-546.828 -247.342)"/>
    <path id="Path_338" data-name="Path 338" class="cls-8" d="M966.825,435.753h0q2.24-2.973,4.222-6.158c-.67-1.433-1.406-2.833-1.992-4.3a43.18,43.18,0,0,1-1.922-6.981q-.261-1.205-.519-2.411c-1.875-8.743-3.636-17.609-4-26.473q-.05-1.1-.064-2.21v-2.752c.04-2.009.167-4.035.4-6.051.044-.4.094-.79.147-1.185a1.7,1.7,0,0,1,.034-.258l22.769-.83h0l1.915-.07a7.017,7.017,0,0,0,3.794-.867c1.825-1.252,2.039-3.821,2.009-6.027a89.462,89.462,0,0,0-1.888-16.591c-.864-4.105-2.1-8.3-4.862-11.455-2.27-2.592-5.558-4.477-6.74-7.7a34.752,34.752,0,0,0-1.118-3.66,11.4,11.4,0,0,0-2.4-2.87,39.955,39.955,0,0,1-7.668-10.621c-1.356-2.732-2.826-5.746-4.6-7.634-.087-.1-.174-.188-.265-.275-1.507-1.49-3.231-2.143-5.274-1.128a6.762,6.762,0,0,0-1.045.65h0a12.722,12.722,0,0,0-1.986,1.889,45.2,45.2,0,0,0-5.4,7.7,42.812,42.812,0,0,0-2.759,6.027,41.551,41.551,0,0,0-1.49,5.023c-.288,1.262-.516,2.538-.7,3.817a92.861,92.861,0,0,0-.576,14.579c.1,4.473.3,8.957.7,13.414q.151,1.617.335,3.231.368,3.191.911,6.362c.144.807.291,1.614.455,2.418.04.214.084.429.127.64l.02.09a54.425,54.425,0,0,1,1.028,5.662q.04.358.06.713a27.561,27.561,0,0,1-.027,3.285c-.077,1.293-.2,2.582-.258,3.874a6.3,6.3,0,0,1-.023.67c-.017.653,0,1.306,0,1.959a31.044,31.044,0,0,0,.556,4.651,30.085,30.085,0,0,0,2.9,8.184c.127.241.258.479.388.713,1.7,3.034,3.841,5.816,5.411,8.92a38.507,38.507,0,0,1,3.014,8.776q.335,1.5.636,3.014c.311,1.607.589,3.228.874,4.849.027.161.057.335.087.482.378,2.15.777,4.289,1.289,6.389.3,1.222.633,2.428,1.025,3.613Z" transform="translate(-664.793 -220.265)"/>
    <path id="Path_339" data-name="Path 339" class="cls-14" d="M873.878,580.731c0,.3-.02.6-.033.907a42.92,42.92,0,0,1-.405,4.39,28.557,28.557,0,0,1-1.45,5.823,19.632,19.632,0,0,1-1.728,3.553,16.382,16.382,0,0,1-2.15,2.769c-2.009,2.089-4.9,2.756-7.7,3.636a18.96,18.96,0,0,0-3.713,1.517c-.211.117-.419.244-.619.378l-3.5,2.32a10.478,10.478,0,0,0-2.957,2.535,5.458,5.458,0,0,0-.335.566,12.832,12.832,0,0,0-1.031,3.094c-1.822,7.588-3.646,15.182-4.9,22.883-.084.509-.164,1.021-.251,1.534l-.03.161a.842.842,0,0,0-.054-.111A201.526,201.526,0,0,1,815.2,650.908L813.118,633.5a21.065,21.065,0,0,1-.214-4.279c.2-2.253,1.115-4.39,1.363-6.637a11.307,11.307,0,0,0-1.2-6.385,6.984,6.984,0,0,1-.981-2.367,1.473,1.473,0,0,1,1.259-1.721,3.093,3.093,0,0,0,.526-2.762,8.034,8.034,0,0,0-.469-1.53c-.569-1.4-1.289-2.923-.8-4.353a1.627,1.627,0,0,0,.167-.837.139.139,0,0,0,0-.054c-.114-.375-.559-.539-.79-.857-.435-.593,0-1.4.268-2.083a7.946,7.946,0,0,0,.449-2.28c.037-.432.064-.867.111-1.3a13.051,13.051,0,0,1,.311-1.721,13.585,13.585,0,0,1,5.5-7.875c1.3-.877,2.752-1.517,4.082-2.344A37.379,37.379,0,0,0,826.6,581.1q4.423-3.683,9.2-6.945a116.176,116.176,0,0,1,10.621-6.449q1.172-.633,2.344-1.232,1.276-.67,2.568-1.269c2.759-1.316,5.89-.824,8.94.054,1.279.365,2.541.8,3.76,1.2a17.409,17.409,0,0,1,3.415,1.534,12.594,12.594,0,0,1,5.863,6.891.377.377,0,0,1,0,.057A17.534,17.534,0,0,1,873.878,580.731Z" transform="translate(-576.32 -391.635)"/>
    <path id="Path_340" data-name="Path 340" class="cls-7" d="M873.878,580.731c0,.3-.02.6-.033.907a42.92,42.92,0,0,1-.405,4.39,28.557,28.557,0,0,1-1.45,5.823,19.632,19.632,0,0,1-1.728,3.553,16.382,16.382,0,0,1-2.15,2.769c-2.009,2.089-4.9,2.756-7.7,3.636a18.96,18.96,0,0,0-3.713,1.517c-.211.117-.419.244-.619.378l-3.5,2.32a10.478,10.478,0,0,0-2.957,2.535,5.458,5.458,0,0,0-.335.566,12.832,12.832,0,0,0-1.031,3.094c-1.822,7.588-3.646,15.182-4.9,22.883-.084.509-.164,1.021-.251,1.534l-.03.161a.842.842,0,0,0-.054-.111A201.526,201.526,0,0,1,815.2,650.908L813.118,633.5a21.065,21.065,0,0,1-.214-4.279c.2-2.253,1.115-4.39,1.363-6.637a11.307,11.307,0,0,0-1.2-6.385,6.984,6.984,0,0,1-.981-2.367,1.473,1.473,0,0,1,1.259-1.721,3.093,3.093,0,0,0,.526-2.762,8.034,8.034,0,0,0-.469-1.53c-.569-1.4-1.289-2.923-.8-4.353a1.627,1.627,0,0,0,.167-.837.139.139,0,0,0,0-.054c-.114-.375-.559-.539-.79-.857-.435-.593,0-1.4.268-2.083a7.946,7.946,0,0,0,.449-2.28c.037-.432.064-.867.111-1.3a13.051,13.051,0,0,1,.311-1.721,13.585,13.585,0,0,1,5.5-7.875c1.3-.877,2.752-1.517,4.082-2.344A37.379,37.379,0,0,0,826.6,581.1q4.423-3.683,9.2-6.945a116.176,116.176,0,0,1,10.621-6.449q1.172-.633,2.344-1.232,1.276-.67,2.568-1.269c2.759-1.316,5.89-.824,8.94.054,1.279.365,2.541.8,3.76,1.2a17.409,17.409,0,0,1,3.415,1.534,12.594,12.594,0,0,1,5.863,6.891.377.377,0,0,1,0,.057A17.534,17.534,0,0,1,873.878,580.731Z" transform="translate(-576.32 -391.635)"/>
    <path id="Path_341" data-name="Path 341" class="cls-2" d="M899.337,446.789a.629.629,0,1,0-1.132.549l-.335.164,9.985,20.466,1.8-.881-9.985-20.479Z" transform="translate(-633.572 -313.155)"/>
    <circle id="Ellipse_40" data-name="Ellipse 40" class="cls-12" cx="21.43" cy="21.43" r="21.43" transform="translate(256.818 69.337)"/>
    <path id="Path_342" data-name="Path 342" class="cls-8" d="M926.235,202.124a28.459,28.459,0,0,0-.757-5.053c-1.259-5.414-3.559-10.745-7.521-14.633a29.3,29.3,0,0,0-.874-2.809.539.539,0,0,0-.023-.067A31.442,31.442,0,0,0,912,170.6c-1.256-1.56-2.883-3.1-4.885-3.161a3.961,3.961,0,0,1-1.674-.181,3.014,3.014,0,0,1-.934-.958,8.77,8.77,0,0,0-8.492-3.178l-.208.044c-.117.023-.234.05-.335.08s-.281.08-.422.124q.231.382.452.773.6,1.061,1.105,2.17.422.924.78,1.878c-3.429.392-6.221,2.826-8.773,5.143l-6.007,5.451a.244.244,0,0,0-.03.03l-.174.167c-.043.044-.087.087-.127.134a.291.291,0,0,0-.044.047c-.05.054-.1.111-.144.167a2.529,2.529,0,0,0-.224.335,1.229,1.229,0,0,0-.087.157.332.332,0,0,0-.023.05,1.239,1.239,0,0,0-.057.141.046.046,0,0,0,0,.02.793.793,0,0,0-.023.084,1,1,0,0,0,.057.71l3.961.044h.465c.02.529.037,1.061.057,1.591a22.579,22.579,0,0,0-1.808,1.507,19.651,19.651,0,0,0-1.765,1.862,25.7,25.7,0,0,0-5.625,15.5v2.049c0,.335.03.67.057,1a2.508,2.508,0,0,0,.335,1.242,1.167,1.167,0,0,0,.094.121,2.311,2.311,0,0,0,.71.522l.288.141h0c.144.07.281.137.415.214,1.262.713,2.009,2.089,3.157,2.973.067.05.134.1.2.144l.151.1.094.06.127.074a2.743,2.743,0,0,0,.258.137h0l.161.08h.027c.134.06.268.117.405.167l.191.067.057.02c.054.017.111.037.167.05q.171.05.335.09l.335.074c.131.023.265.047.4.064l.2.027.2.02q.479.044.964.05h0a24.107,24.107,0,0,0,3.037-.211l8.545-1a18.413,18.413,0,0,1,5.83-.054,38.413,38.413,0,0,1,4.688,1.651c.355.124.71.238,1.068.335.131.037.265.077.4.111l.184.047.429.1c.154.037.308.074.462.1.218.047.432.087.65.127.147.03.3.054.449.08h.03l.429.067h.1l.318.044c.154.023.308.044.465.06q.512.064,1.025.111c.552.054,1.108.094,1.674.127l.556.034.556.027,1.674.074h.308a8.639,8.639,0,0,0,2.083-.107c.12-.023.238-.05.355-.084s.214-.067.335-.107a5.732,5.732,0,0,0,2.809-2.776c.134-.251.258-.5.372-.76s.218-.519.311-.78c.117-.335.218-.653.3-.988.027-.09.05-.181.07-.275s.067-.278.094-.419c.084-.385.147-.773.194-1.165a3.564,3.564,0,0,1,.044-.375c.03-.335.054-.646.067-.974v-.75C926.258,202.827,926.235,202.469,926.235,202.124Zm-8.585-19.99c-.271-.254-.549-.5-.83-.73a3.462,3.462,0,0,1,.827.73Z" transform="translate(-619.703 -124.624)"/>
    <path id="Path_343" data-name="Path 343" class="cls-8" d="M740.638,307.585c-2.521-.311-5.023-1.416-7.51-.874a10.408,10.408,0,0,0-4.142,2.3,50.364,50.364,0,0,0-11.642,13.31,7.03,7.03,0,0,0-1.075,2.518,6.674,6.674,0,0,0,.462,3.107c2.29,6.767,7.189,12.419,9.419,19.207,2.344,7.139,1.53,14.941-.2,22.254a93,93,0,0,1-10.326,25.682,14.648,14.648,0,0,1-2.377,3.255c-1.219,1.172-2.856,2.009-3.58,3.543a15.873,15.873,0,0,0-.67,2.15c-.67,2.009-2.29,3.73-2.448,5.85-.117,1.617.65,3.148,1.115,4.688a12.918,12.918,0,0,1-.238,8.07c-1.7,4.654-6.138,8.887-4.848,13.672,2.876-.827,6.064-1.9,7.42-4.571.479-.944.717-2.069,1.523-2.759,1.611-1.37,4.353-.131,6.064-1.39,1.292-.958,1.339-2.92.763-4.427s-1.567-2.833-2.009-4.383c-.77-2.8.462-5.753.234-8.642-.107-1.339-.519-2.622-.549-3.954a9.287,9.287,0,0,1,3.281-6.781,27.272,27.272,0,0,1,6.576-4.072l8.759-4.353c3.178-1.574,6.66-3.492,7.7-6.881a13.933,13.933,0,0,0,.419-3.948c.3-20.261,5.374-40.114,10.42-59.739a74.016,74.016,0,0,1,2.746-9.014c1.165-2.92,3.445-5.264,4.607-7.976C753.8,302.633,747.64,308.463,740.638,307.585Z" transform="translate(-503.519 -217.997)"/>
    <path id="Path_344" data-name="Path 344" class="cls-14" d="M819.869,594.735c.773,4.688,1.246,9.476,1.614,14.241a162.913,162.913,0,0,1-19.109,13.374c-.375.231-.753.459-1.132.67l-.03.161a.83.83,0,0,0-.054-.11,5.039,5.039,0,0,0-2.518-2.485q-3.707-7.785-7.407-15.57a40.9,40.9,0,0,1-3.348-8.656,1.341,1.341,0,0,0-.04-.194c-.509-2.344-.626-4.778-.964-7.152a20.666,20.666,0,0,0-.914-4c-.4-1.155-.954-2.277-1.443-3.405a11.34,11.34,0,0,1-1.132-4.306,2.815,2.815,0,0,0-.2-1.406,3.651,3.651,0,0,0-.914-.884,3.486,3.486,0,0,1-1.125-3.184c-2.009.1-3.141,2.264-3.948,4.1a22.327,22.327,0,0,1-2.866,5.023,9.524,9.524,0,0,1-3.174,2.642c-.11.054-.221.107-.335.154-2.8,1.232-6.061.8-9.091.241-2.649-.486-5.388-1.088-7.517-2.736l-.228-.181a9.839,9.839,0,0,1-1.674-1.788c-1.785-2.438-2.575-5.649-3.014-8.706-.04-.288-.08-.576-.117-.864a32.2,32.2,0,0,1-.251-6.523c.04-.536.1-1.071.167-1.6.047-.335.1-.7.154-1.045a.092.092,0,0,1,0-.03c.087-.552.181-1.108.275-1.674a15.389,15.389,0,0,1,1.674-5.481,10.377,10.377,0,0,1,2.464-2.639c.362-.285.733-.556,1.108-.817.609-.422,1.236-.824,1.872-1.2a32.359,32.359,0,0,1,5.023-2.444c.415-.161.837-.311,1.259-.455a9.881,9.881,0,0,1,5.116-.405,26.926,26.926,0,0,0,4.581.268,115.445,115.445,0,0,0,11.793-1.313c5.445-.67,11.294-.75,16.042,2.009.228.131.449.268.67.412a19.84,19.84,0,0,1,5.756,6.084c.335.506.626,1.025.914,1.55a39.506,39.506,0,0,1,1.8,3.717,4.621,4.621,0,0,1,.5,2.009,2.6,2.6,0,0,1-.054.4c-.09.476-.271.938-.335,1.42-.211,1.825,1.339,3.348,1.919,5.086a24.937,24.937,0,0,1,.546,3.536,18.393,18.393,0,0,0,1.862,4.688,58.626,58.626,0,0,1,2.98,7.49c.583,1.785,1.082,3.6,1.52,5.424q.214.881.405,1.765C819.307,591.551,819.6,593.138,819.869,594.735Z" transform="translate(-534.462 -378.037)"/>
    <path id="Path_345" data-name="Path 345" class="cls-2" d="M689.591,462.446v2.344l-.432-.007-.482-.007-5.384-.067-13.266-.174-3.723-.047-.964-.013-5.589-.07-7.875-.1-16.709-.218-28.994-.375-10.464-.134-4.2-.054-3.864-.05-2.407-.034-2.28-.03-16.906-.218-4.688-.06-1.021-.013-.663-1.711-4.818-12.426-.881-2.27.67-2.679,3.014,2.009,1.855.231,30.541,3.8,5.732.713,12.155,1.513,11.907,1.48,4.668.579,27.621,3.435,7.718.961,6.389.794,22.716,2.826Z" transform="translate(-368.483 -295.336)"/>
    <path id="Path_346" data-name="Path 346" class="cls-5" d="M555.98,444.03l6.027,15.738,128.914,2.679V445.369Z" transform="translate(-369.814 -295.336)"/>
    <path id="Path_347" data-name="Path 347" class="cls-2" d="M575.98,496.03l1,96.1,4.688-.67-1-95.43Z" transform="translate(-383.117 -329.924)"/>
    <path id="Path_348" data-name="Path 348" class="cls-2" d="M1054.46,551.517h-.482a105.973,105.973,0,0,1-3.861,17.676l-1.524-17.747-.064-.757,5.632-.65.188-.02Z" transform="translate(-733.784 -382.072)"/>
    <path id="Path_349" data-name="Path 349" class="cls-10" d="M775.27,459.392l-49.054,1-15.235-5.023,40.851-2.344Z" transform="translate(-472.913 -301.322)"/>
    <path id="Path_350" data-name="Path 350" class="cls-12" d="M822.313,458.144a3.288,3.288,0,0,0-1.339.954,3.536,3.536,0,0,0-.5,1.52l-.824,4.912a2.174,2.174,0,0,0,.064,1.363c.214.412.837.626,1.149.285a4.411,4.411,0,0,0,.6,2.769,1.931,1.931,0,0,0,2.521.65,1.634,1.634,0,0,0,2.461.382c-.475.161-.509.887-.171,1.256a2.187,2.187,0,0,0,1.366.546,33.413,33.413,0,0,0,17.378-2.187c.519-.214-.847-6.613-.984-7.269-.335-1.544-.5-3.429-1.8-4.467-3.114-2.484-8.646-2.973-12.439-2.679A21.43,21.43,0,0,0,822.313,458.144Z" transform="translate(-581.49 -319.602)"/>
    <path id="Path_351" data-name="Path 351" class="cls-7" d="M904.8,454.857c-12.111.231-24.474.429-36.032-3.2a24.443,24.443,0,0,1-.221,13.015l56.629,4.688c2.4.2,12.356,1.323,14.7.757s-19.638-7.805-18.751-10.045c2.441-6.171,10.618-9.787,4.728-10.018C918.418,449.76,912.294,454.716,904.8,454.857Z" transform="translate(-614.069 -315.571)"/>
    <path id="Path_352" data-name="Path 352" class="cls-8" d="M905.8,456.857c-12.111.231-24.474.429-36.032-3.2a24.443,24.443,0,0,1-.221,13.015l56.628,4.688c2.4.2,12.356,1.339,14.7.757s1.791-3.452,2.679-5.692c2.441-6.171-10.812-14.14-16.7-14.371C919.418,451.76,913.294,456.716,905.8,456.857Z" transform="translate(-614.734 -316.901)"/>
    <path id="Path_353" data-name="Path 353" class="cls-12" d="M874.973,465.144a3.279,3.279,0,0,1,1.339.954,3.586,3.586,0,0,1,.5,1.52l.824,4.912a2.2,2.2,0,0,1-.064,1.363c-.214.412-.841.626-1.149.285a4.433,4.433,0,0,1-.6,2.769,1.934,1.934,0,0,1-2.525.65,1.634,1.634,0,0,1-2.461.382c.475.161.512.887.174,1.256a2.2,2.2,0,0,1-1.37.546,33.4,33.4,0,0,1-17.375-2.187c-.519-.214.844-6.613.984-7.269.335-1.544.5-3.429,1.8-4.467,3.111-2.484,8.646-2.973,12.439-2.679a21.432,21.432,0,0,1,7.477,1.965Z" transform="translate(-603.16 -324.258)"/>
    <path id="Path_354" data-name="Path 354" class="cls-8" d="M673.269,384.294a21.436,21.436,0,0,0-2.943,4.567c-1.37,3.188-1.169,6.8-.941,10.26a5.984,5.984,0,0,0,.67,2.863,4.835,4.835,0,0,0,1.748,1.49c2.9,1.647,6.295,2.14,9.61,2.508q7.614.844,15.282,1.028c12.664.308,25.522-.727,37.857,2.143a9.483,9.483,0,0,1-.67-8.036,27.361,27.361,0,0,1,4.108-7.216c-5.645-1.788-11.7,1-17.613.727-6.071-.285-11.689-3.794-17.767-3.79a16.165,16.165,0,0,1-3.9-.151,3.251,3.251,0,0,1-2.615-2.575c1.621.365,3.158-1.021,3.827-2.541s.79-3.238,1.44-4.768c1.617-3.807,5.987-5.572,8.706-8.706a2.133,2.133,0,0,0,.151-3.235c-2.26-3.014-5.666-4.688-8.495-7.032-.984-.817-2.97-3.9-4.075-4.182-2.049-.526-3.787,2.434-5.12,3.877Q682.434,372.491,673.269,384.294Z" transform="translate(-481.484 -254.073)"/>
    <path id="Path_355" data-name="Path 355" class="cls-15" d="M882.39,434.81a11.084,11.084,0,0,1,2.24,2.22,3.824,3.824,0,0,1,.7,2.994,4.474,4.474,0,0,1,2.789-4.631Z" transform="translate(-623.275 -305.439)"/>
    <g id="Group_79" data-name="Group 79" class="cls-11" transform="translate(257.269 38.498)">
      <path id="Path_356" data-name="Path 356" d="M933.207,166.484a29.1,29.1,0,0,0-1.359-3.064,8.208,8.208,0,0,0-.978.251,28.321,28.321,0,0,1,1.55,2.957A5.611,5.611,0,0,1,933.207,166.484Z" transform="translate(-912.791 -163.42)"/>
      <path id="Path_357" data-name="Path 357" d="M995.87,212c.09.074.177.157.265.234a.483.483,0,0,0-.023-.064Q996,212.087,995.87,212Z" transform="translate(-956.026 -195.733)"/>
      <path id="Path_358" data-name="Path 358" d="M894.847,212.343c.174-.137.335-.281.522-.415l-.054-1.59-3.576-.037c-.579.532-1.2,1.3-.854,2.009Z" transform="translate(-886.13 -194.603)"/>
      <path id="Path_359" data-name="Path 359" d="M924.69,283.842a5.719,5.719,0,0,1-2.809,2.776,7.617,7.617,0,0,1-3.067.288c-3.529-.144-7.119-.3-10.454-1.47a36.9,36.9,0,0,0-4.688-1.654,18.315,18.315,0,0,0-5.83.057l-8.545,1c-2.521.295-5.331.516-7.343-1.031-1.152-.884-1.9-2.26-3.158-2.97a4.013,4.013,0,0,1-1.51-1,2.508,2.508,0,0,1-.335-1.242c-.027-.352-.043-.7-.057-1.055a28.349,28.349,0,0,0,.057,3.064,2.509,2.509,0,0,0,.335,1.242,4.013,4.013,0,0,0,1.51,1c1.262.71,2.009,2.086,3.158,2.97,2.009,1.547,4.822,1.339,7.343,1.031l8.545-1a18.315,18.315,0,0,1,5.83-.057,37.88,37.88,0,0,1,4.688,1.654,35.473,35.473,0,0,0,10.454,1.47,7.676,7.676,0,0,0,3.067-.288,5.719,5.719,0,0,0,2.809-2.776,14.213,14.213,0,0,0,1.446-7.517A13.078,13.078,0,0,1,924.69,283.842Z" transform="translate(-876.877 -239.328)"/>
    </g>
    <path id="Path_360" data-name="Path 360" class="cls-7" d="M937.56,179l4.688,4.353S938.23,181.679,937.56,179Z" transform="translate(-659.972 -135.285)"/>
  </g>
</svg>
