<svg xmlns="http://www.w3.org/2000/svg" viewBox="0 0 40.132 24.971">
  <defs>
    <style>
      .cls-1 {
        opacity: 1;
      }

      .cls-2 {
        fill: #3f3d56;
      }
    </style>
  </defs>
  <g id="behance-logo" class="cls-1" transform="translate(0 0)">
    <path id="Behance" class="cls-2" d="M36.242,84.781H26.186v-2.5H36.243v2.5ZM19.492,95.023a6.6,6.6,0,0,1,.973,3.658,7.285,7.285,0,0,1-1.109,3.984,6.909,6.909,0,0,1-1.766,1.961,6.826,6.826,0,0,1-2.818,1.254,17.423,17.423,0,0,1-3.526.337H0V81.247H12.059c3.04.049,5.195.93,6.467,2.66a6.354,6.354,0,0,1,1.142,3.813A5.558,5.558,0,0,1,18.515,91.4a5.887,5.887,0,0,1-1.9,1.421A5.544,5.544,0,0,1,19.492,95.023ZM5.759,91.092h5.284a5.007,5.007,0,0,0,2.64-.619,2.36,2.36,0,0,0,1.013-2.2,2.235,2.235,0,0,0-1.341-2.3,9.433,9.433,0,0,0-2.948-.391H5.759ZM15.2,98.324a2.678,2.678,0,0,0-1.588-2.675,6.257,6.257,0,0,0-2.5-.423H5.759v6.655h5.277a5.863,5.863,0,0,0,2.529-.438A3.148,3.148,0,0,0,15.2,98.324Zm24.769-4.062a23.489,23.489,0,0,1,.154,3.552H27.1a4.276,4.276,0,0,0,1.869,3.774,4.709,4.709,0,0,0,2.578.671,3.632,3.632,0,0,0,3.556-2.048H39.88a5.814,5.814,0,0,1-1.733,3.233,8.688,8.688,0,0,1-6.727,2.611,9.763,9.763,0,0,1-6.3-2.2q-2.723-2.206-2.727-7.165,0-4.654,2.461-7.131a8.626,8.626,0,0,1,6.4-2.481,10.2,10.2,0,0,1,4.206.836,7.244,7.244,0,0,1,3.087,2.649A8.829,8.829,0,0,1,39.973,94.262Zm-4.7.466a3.906,3.906,0,0,0-1.25-2.827,4.076,4.076,0,0,0-2.772-.968,3.708,3.708,0,0,0-2.79,1.026,4.821,4.821,0,0,0-1.247,2.769h8.058Z" transform="translate(0 -81.247)"/>
  </g>
</svg>
