<svg xmlns="http://www.w3.org/2000/svg" viewBox="0 0 674.828 752.721">
  <defs>
    <style>
      .cls-1 {
        fill: #fff;
      }

      .cls-2 {
        fill: #3f3d56;
      }

      .cls-3 {
        opacity: 0.1;
      }

      .cls-4 {
        fill: #2f2e41;
      }

      .cls-5 {
        fill: #fbbebe;
      }

      .cls-6 {
        fill: #d61e3c;
      }

      .cls-7 {
        fill: #221f1f;
        opacity: 0.03;
      }
    </style>
  </defs>
  <g id="GCE" transform="translate(88.346 -193.342)">
    <path id="Path_106" data-name="Path 106" class="cls-1" d="M412.943,563.093c-180.571-13.707-395.93-153.6-384.98-297.674S247.494-12.738,428.065.969s284.489,283,273.538,427.068C690.652,572.032,593.514,576.874,412.943,563.093Z" transform="translate(-115.908 193.341)"/>
    <ellipse id="Ellipse_3" data-name="Ellipse 3" class="cls-2" cx="249.213" cy="21.727" rx="249.213" ry="21.727" transform="translate(0 902.609)"/>
    <ellipse id="Ellipse_4" data-name="Ellipse 4" class="cls-3" cx="212.218" cy="14.328" rx="212.218" ry="14.328" transform="translate(36.994 909.655)"/>
    <path id="Path_25" data-name="Path 25" class="cls-4" d="M127.677,752.117a54,54,0,0,1-9.63,4.11c-5.99,1.644-12.331,1.057-18.321,2.466-2.466.587-5.167,1.762-5.99,4.11-.587,1.762,0,3.641.7,5.4,6.694,19.5,10.687,40.283,21.257,57.9a89.247,89.247,0,0,0,16.442,19.965c2.466,2.231,5.167,4.345,8.338,4.7a8.632,8.632,0,0,0,9.4-7.516,8.945,8.945,0,0,0-.7-4.345c-.94-2.114-2.7-3.758-3.876-5.755a20.307,20.307,0,0,1-2.114-8.221c-1.057-8.338-2.114-17.029.822-25.015,2-5.285,5.52-9.865,8.456-14.563s5.4-10.335,4.815-15.855c-.47-3.876-2.349-7.281-4.228-10.687-2-3.288-5.872-12.214-9.865-13.389C139.068,744.248,131.317,750.238,127.677,752.117Z" transform="translate(16.308 71.923)"/>
    <path id="Path_26" data-name="Path 26" class="cls-4" d="M216.286,811.949a14.668,14.668,0,0,1-.822,5.52c-1.292,3.288-4.345,5.52-5.872,8.691-2.231,4.345-1.174,9.63.235,14.211.94,2.936,2.114,5.99,4.58,7.751a14.672,14.672,0,0,0,7.047,2.231c21.14,2.936,42.749,1.292,64.124,1.879,3.876.117,7.986.235,11.392-1.644s5.52-6.694,3.171-9.865c-2.114-2.819-6.224-2.819-9.63-2.936a39.6,39.6,0,0,1-24.545-10.1,18.576,18.576,0,0,1-3.406-3.993,25.476,25.476,0,0,1-1.762-4.111,193.727,193.727,0,0,0-10.687-23.606c-1.174-2.114-2.466-4.345-4.58-5.52A12.02,12.02,0,0,0,240.6,789.4c-5.285-.352-19.143-2.114-23.254,2C213.35,795.273,216.286,807.134,216.286,811.949Z" transform="translate(36.333 79.502)"/>
    <circle id="Ellipse_8" data-name="Ellipse 8" class="cls-5" cx="34.058" cy="34.058" r="34.058" transform="translate(248.949 415.878) rotate(-85.935)"/>
    <path id="Path_27" data-name="Path 27" class="cls-5" d="M218.352,402.955c-2,5.4-5.4,10.452-10.452,13.388l47.094,9.63a50.674,50.674,0,0,1-.7-21.022,10.944,10.944,0,0,0,.235-5.167c-.94-3.406-4.7-5.05-8.221-5.872-8.573-2-16.207-3.054-24.193-6.812C219.762,391.445,220.114,398.14,218.352,402.955Z" transform="translate(36.263 9.449)"/>
    <path id="Path_28" data-name="Path 28" class="cls-4" d="M213.941,401.69a36.6,36.6,0,0,1,32.062.822c5.99,3.171,11.04,7.986,15.972,12.684,4.58,4.345,9.4,9.4,9.63,15.62.117,3.054-.822,5.99-1.292,9.043a30.221,30.221,0,0,0,16.207,31.122c3.758,6.224,4.463,13.741,4.58,21.022.235,27.482-8.456,55.433-2.231,82.21,1.409,6.342,3.758,12.449,4.933,18.791,1.644,8.221,1.527,16.677,2.349,25.015a113.407,113.407,0,0,0,5.99,26.425c-2,3.288-6.342,4.463-10.1,4.228s-7.4-1.879-10.8-3.641c-16.559-8.456-31.827-19.73-48.973-26.894-11.392-4.815-23.488-7.751-34.528-13.271s-21.257-14.211-24.663-26.072c-1.409-5.168-1.527-10.57-1.644-15.855-.352-22.432-.7-45.1,4.228-67.06C180,476.5,188.221,458.063,190.1,438.332c.587-6.459.587-13.271,4.228-18.673C199.378,412.025,210.3,410.146,213.941,401.69Z" transform="translate(29.869 11.418)"/>
    <path id="Path_29" data-name="Path 29" class="cls-4" d="M231.995,384.805c2-2.584,5.872-2.936,9.043-2.231s6.107,2.466,9.4,3.053a5.132,5.132,0,0,0,4.345-.587,6.149,6.149,0,0,0,1.879-4.228,79.328,79.328,0,0,0,.822-20.435,5.784,5.784,0,0,1,.235-2.819c.822-1.879,3.288-2.349,5.285-3.053a15.507,15.507,0,0,0,10.57-15.972,5.638,5.638,0,0,0-2-4.345c-1.409-1.174-3.288-1.174-5.05-1.174q-13.741-.176-27.482,0c-3.406,0-6.929.117-9.865,1.762-2.114,1.292-3.758,3.288-5.755,4.815-5.05,4.111-11.979,4.933-18.086,7.047a17.845,17.845,0,0,0-7.986,4.7c-2.114,2.349-3.054,5.872-1.762,8.691a34.02,34.02,0,0,0,2.231,3.406c3.641,5.872,1.174,13.388,1.762,20.2.7,8.573,13.388,22.432,21.962,24.428C235.4,411.465,227.414,390.442,231.995,384.805Z" transform="translate(34.012 0)"/>
    <path id="Path_30" data-name="Path 30" class="cls-4" d="M211.1,705.561c.822,6.224,2,12.566,1.644,18.791-.47,8.808-3.641,17.264-4.228,26.072-.47,6.577.587,13.154-.352,19.73-.587,4.228-2,8.221-2.819,12.331a50.807,50.807,0,0,0,8.221,39.108,7.476,7.476,0,0,0,2.349,2.349,6.335,6.335,0,0,0,2.936.352,210.034,210.034,0,0,0,29.6-2.7,2.771,2.771,0,0,0,1.879-.822,3.517,3.517,0,0,0,.47-1.174c1.762-9.278-2.349-18.673-3.406-28.069-1.174-10.1,1.292-20.2,3.641-30.065a124.206,124.206,0,0,1,4.111-14.328c1.174-3.171,2.584-6.224,3.523-9.513a69,69,0,0,0,2.584-15.5c.7-8.338,1.057-16.559,1.057-24.9a105.265,105.265,0,0,0-2-23.488c-2.231-9.748-6.694-18.908-11.157-27.834a17.116,17.116,0,0,0-6.577,3.171,141.937,141.937,0,0,1-18.086,9.983c-4.228,2-12.331,3.288-15.033,7.4-2.584,3.993-.94,12.214-.7,16.559C209.338,690.528,210.043,698.044,211.1,705.561Z" transform="translate(35.646 54.59)"/>
    <path id="Path_31" data-name="Path 31" class="cls-3" d="M211.1,705.561c.822,6.224,2,12.566,1.644,18.791-.47,8.808-3.641,17.264-4.228,26.072-.47,6.577.587,13.154-.352,19.73-.587,4.228-2,8.221-2.819,12.331a50.807,50.807,0,0,0,8.221,39.108,7.476,7.476,0,0,0,2.349,2.349,6.335,6.335,0,0,0,2.936.352,210.034,210.034,0,0,0,29.6-2.7,2.771,2.771,0,0,0,1.879-.822,3.517,3.517,0,0,0,.47-1.174c1.762-9.278-2.349-18.673-3.406-28.069-1.174-10.1,1.292-20.2,3.641-30.065a124.206,124.206,0,0,1,4.111-14.328c1.174-3.171,2.584-6.224,3.523-9.513a69,69,0,0,0,2.584-15.5c.7-8.338,1.057-16.559,1.057-24.9a105.265,105.265,0,0,0-2-23.488c-2.231-9.748-6.694-18.908-11.157-27.834a17.116,17.116,0,0,0-6.577,3.171,141.937,141.937,0,0,1-18.086,9.983c-4.228,2-12.331,3.288-15.033,7.4-2.584,3.993-.94,12.214-.7,16.559C209.338,690.528,210.043,698.044,211.1,705.561Z" transform="translate(35.646 54.59)"/>
    <path id="Path_32" data-name="Path 32" class="cls-4" d="M177.619,583c-4.463,12.214,2.114,25.368,7.869,36.994,14.211,28.656,24.076,59.191,33.941,89.609.7,2.231,1.527,4.815.7,7.047a8.854,8.854,0,0,1-3.288,3.876c-6.812,5.167-15.385,6.929-23.488,9.63a103.574,103.574,0,0,0-22.2,10.452c-5.872,3.641-11.274,7.751-16.794,11.979l-17.381,13.271a11.176,11.176,0,0,0-2.936,2.819c-1.644,2.584-.94,6.107-.117,9.043a149.2,149.2,0,0,0,8.573,23.254,7.994,7.994,0,0,0,3.054,3.993c2.7,1.409,5.99-.47,8.1-2.7s3.876-5.167,6.812-6.107,6.107.235,9.161-.235c4.933-.7,8.221-5.285,11.744-8.691,14.563-14.211,38.756-13.271,54.728-25.837a68.109,68.109,0,0,1,7.281-5.755c2.7-1.644,5.755-2.466,8.573-3.876,8.573-4.345,13.858-13.154,16.794-22.314s3.641-18.673,5.755-28.069c1.057-4.815,2.466-9.63,2.936-14.445a67.225,67.225,0,0,0-.352-13.741l-5.755-71.288c-.47-5.755-.94-11.627-1.879-17.381-17.147.587-34.176,1.292-51.322,1.527C204.4,586.406,190.538,587.345,177.619,583Z" transform="translate(23.207 43.619)"/>
    <path id="Path_33" data-name="Path 33" class="cls-4" d="M165.845,601.371c2.349,3.758,7.986,3.641,11.862,1.644s6.929-5.52,10.8-7.516c5.285-2.7,11.392-2.584,17.381-2.466,9.4.235,18.791.587,27.834,3.053,9.278,2.7,18.321,7.751,27.951,6.694,1.644-.235,3.523-.7,4.463-2.114a5.6,5.6,0,0,0,.7-3.288l.352-8.456a6.65,6.65,0,0,0-.7-4.228,7.294,7.294,0,0,0-3.171-2.466c-13.741-6.577-29.361-7.869-44.511-8.338q-11.627-.352-23.254-.352c-6.577,0-14.445-.94-20.787.822C166.2,576.826,161.5,594.442,165.845,601.371Z" transform="translate(28.64 41.925)"/>
    <path id="Path_34" data-name="Path 34" class="cls-6" d="M252.1,411.535c-17.969-.117-34.176-11.979-52.144-12.331a14.741,14.741,0,0,0-6.342,1.057c-2.466,1.292-4.11,3.641-5.99,5.755-5.285,5.755-13.036,8.808-18.438,14.445-5.167,5.285-7.986,13.036-5.99,20.2s9.63,12.449,16.794,10.8a43.273,43.273,0,0,1,16.794-22.9,93.688,93.688,0,0,1,13.154-6.929c8.1-3.641,17.029-7.4,25.485-4.7a41.465,41.465,0,0,1,8.691,4.7l14.093,9.4C256.563,424.688,255.153,417.524,252.1,411.535Z" transform="translate(28.353 11.557)"/>
    <path id="Path_35" data-name="Path 35" class="cls-6" d="M179.334,443.055c-2.349,2.936,1.057,7.281.47,11.04-.352,2.466-2.466,4.463-3.288,6.812-.94,2.466-.47,5.167-.7,7.751a29.551,29.551,0,0,1-1.527,5.52,99.1,99.1,0,0,0-3.171,16.442l-3.171,23.489A80.312,80.312,0,0,0,167,524.8a30.178,30.178,0,0,1-.587,7.986c-.7,2.584-2.231,4.815-3.288,7.281s-1.527,5.4-.117,7.634c-4.7,3.876-6.107,11.627-2.819,16.677a9.819,9.819,0,0,1,1.409,2.7,6.323,6.323,0,0,1-.587,3.876l-3.171,8.456c-.822,2.114-1.057,5.52,1.174,5.99a21.757,21.757,0,0,0-4.345,6.812,8.115,8.115,0,0,0,1.174,7.634,10.22,10.22,0,0,1,2,2.466,5.864,5.864,0,0,1-.235,3.758,13.709,13.709,0,0,0,1.762,10.922,9.617,9.617,0,0,0,9.865,4.228c6.342-1.409,12.1-3.641,18.438-2.466,13.741,2.584,27.6,5.05,40.987,9.4,15.268,4.815,30.065,11.979,45.92,13.506a4.588,4.588,0,0,0,3.053-.47,4.636,4.636,0,0,0,1.409-2.936c1.644-7.751,3.288-15.385,4.933-23.136a242.881,242.881,0,0,0,4.58-25.837c.587-5.637.7-11.274.822-16.912l1.292-44.863a44.153,44.153,0,0,0-2.584-19.5L280.8,484.747c-4.11-13.271-13.741-25.133-17.147-38.639-2.114-8.573-3.758-17.734-9.513-24.428-8.221-9.513-22.431-11.04-35-9.4-5.637.7-11.274,2-16.207,4.933-5.637,3.406-9.748,8.691-13.858,13.858C186.146,435.3,182.74,438.827,179.334,443.055Z" transform="translate(26.895 13.742)"/>
    <path id="Path_36" data-name="Path 36" class="cls-5" d="M200.568,555.094c1.057,4.463,3.171,8.573,4.463,12.919,2.231,7.281,2,15.15,4.228,22.431.94,3.053,2.231,5.99,2.936,9.161,1.527,7.281-.7,14.8-3.523,21.727s-6.224,13.741-7.164,21.14c-.587,5.167.235,11.157,4.345,14.445,4.228,3.523,10.217,3.288,15.62,2.819a15.119,15.119,0,0,0,5.637-1.174c4.111-2,5.872-6.929,6.929-11.392,3.288-15.033,2.349-30.652,1.409-46.037l-2.466-40.165c-.47-7.751-.94-15.62-3.406-23.019-.822-2.7-2.349-8.221-4.815-9.865-2.466-1.762-9.4-1.762-12.449-1.879C198.1,525.382,198.337,545.229,200.568,555.094Z" transform="translate(34.786 33.708)"/>
    <path id="Path_37" data-name="Path 37" class="cls-6" d="M218.034,424.525c-2.936-1.527-6.577-.822-9.4.822a29.825,29.825,0,0,0-7.047,6.812c-6.224,7.634-12.919,16.442-11.979,26.307.352,3.641,1.762,7.164,2.7,10.8,4.228,15.737-.47,32.3.117,48.621.352,9.4,2.349,18.673,4.345,27.834.47,1.879,1.057,3.993,2.936,4.7,1.409.47,2.819-.117,4.228-.7a33.261,33.261,0,0,1,30.535,3.876c3.406-1.762,2.114-7.516,1.292-11.157-2.231-11.157.822-22.549,4.463-33.236s8.1-21.375,8.691-32.766c.7-12.8-3.523-25.368-7.751-37.464-.94-2.7-1.879-5.4-3.993-7.281a14.559,14.559,0,0,0-6.107-2.819C226.725,427.462,222.262,426.757,218.034,424.525Z" transform="translate(33.058 15.83)"/>
    <path id="Path_104" data-name="Path 104" class="cls-7" d="M218.034,424.525c-2.936-1.527-6.577-.822-9.4.822a29.825,29.825,0,0,0-7.047,6.812c-6.224,7.634-12.919,16.442-11.979,26.307.352,3.641,1.762,7.164,2.7,10.8,4.228,15.737-.47,32.3.117,48.621.352,9.4,2.349,18.673,4.345,27.834.47,1.879,1.057,3.993,2.936,4.7,1.409.47,2.819-.117,4.228-.7a33.261,33.261,0,0,1,30.535,3.876c3.406-1.762,2.114-7.516,1.292-11.157-2.231-11.157.822-22.549,4.463-33.236s8.1-21.375,8.691-32.766c.7-12.8-3.523-25.368-7.751-37.464-.94-2.7-1.879-5.4-3.993-7.281a14.559,14.559,0,0,0-6.107-2.819C226.725,427.462,222.262,426.757,218.034,424.525Z" transform="translate(33.058 15.83)"/>
  </g>
</svg>
