<?xml version="1.0" encoding="utf-8"?>
<!-- Generator: Adobe Illustrator 23.0.0, SVG Export Plug-In . SVG Version: 6.00 Build 0)  -->
<svg version="1.1" id="a594ac37-6d44-4297-8862-1cbd9c01c0b7"
	 xmlns="http://www.w3.org/2000/svg" xmlns:xlink="http://www.w3.org/1999/xlink" x="0px" y="0px" viewBox="0 0 1126.2 855"
	 style="enable-background:new 0 0 1126.2 855;" xml:space="preserve">
<style type="text/css">
	.st0{fill:#F2F2F2;}
	.st1{fill:#3F3D56;}
	.st2{opacity:0.1;enable-background:new    ;}
	.st3{fill:#6C63FF;}
	.st4{fill:#2F2E41;}
	.st5{fill:#FBBEBE;}
	.st6{fill:#D61E3C;}
	.st7{opacity:0.57;clip-path:url(#XMLID_3_);fill:url(#SVGID_1_);}
	.st8{clip-path:url(#XMLID_3_);}
	.st9{fill:#663F25;}
	.st10{fill:#835534;}
	.st11{fill:#593820;}
	.st12{fill:#704628;}
	.st13{fill-rule:evenodd;clip-rule:evenodd;fill:#D6A828;}
	.st14{fill-rule:evenodd;clip-rule:evenodd;fill:#D0912A;}
	.st15{fill-rule:evenodd;clip-rule:evenodd;fill:#E6B721;}
	.st16{fill-rule:evenodd;clip-rule:evenodd;fill:#E29F26;}
	.st17{fill-rule:evenodd;clip-rule:evenodd;fill:#D61E3C;}
	.st18{opacity:0.48;}
	.st19{fill-rule:evenodd;clip-rule:evenodd;fill:#221F1F;}
	.st20{opacity:0.1;fill:#221F1F;}
	.st21{fill:#981B3C;}
	.st22{opacity:0.68;clip-path:url(#XMLID_3_);fill:#FFFFFF;}
	.st23{clip-path:url(#XMLID_3_);fill:#302739;}
	.st24{fill:#2B2626;}
	.st25{fill:#191717;}
	.st26{fill-rule:evenodd;clip-rule:evenodd;fill:#191717;}
	.st27{fill-rule:evenodd;clip-rule:evenodd;fill:#191717;stroke:#191717;stroke-width:3;stroke-miterlimit:10;}
	.st28{opacity:0.45;fill-rule:evenodd;clip-rule:evenodd;fill:#191717;}
	.st29{fill-rule:evenodd;clip-rule:evenodd;fill:#2B2626;}
	.st30{clip-path:url(#XMLID_3_);fill:#2B2626;}
	.st31{clip-path:url(#XMLID_3_);fill:#191717;}
	.st32{clip-path:url(#XMLID_3_);fill-rule:evenodd;clip-rule:evenodd;fill:#191717;}
	
		.st33{clip-path:url(#XMLID_3_);fill-rule:evenodd;clip-rule:evenodd;fill:#191717;stroke:#191717;stroke-width:2;stroke-miterlimit:10;}
	.st34{opacity:0.45;clip-path:url(#XMLID_3_);fill-rule:evenodd;clip-rule:evenodd;fill:#191717;}
	.st35{clip-path:url(#XMLID_3_);fill-rule:evenodd;clip-rule:evenodd;fill:#2B2626;}
	.st36{fill-rule:evenodd;clip-rule:evenodd;fill:none;stroke:#191717;stroke-width:3;stroke-miterlimit:10;}
	.st37{clip-path:url(#XMLID_3_);fill-rule:evenodd;clip-rule:evenodd;fill:#240F0F;}
	.st38{clip-path:url(#XMLID_3_);fill:#7FC7C7;}
	.st39{clip-path:url(#XMLID_3_);fill:#704628;}
	.st40{clip-path:url(#XMLID_3_);fill-rule:evenodd;clip-rule:evenodd;fill:#302739;}
	.st41{opacity:3.000000e-02;fill:#221F1F;}
	.st42{fill:#FFFFFF;}
</style>
<title>code review</title>
<path class="st0" d="M544.9,755.9C302.5,737.5,13.4,549.7,28.1,356.3S322.8-17.1,565.2,1.3s381.9,379.9,367.2,573.3
	C917.7,767.9,787.3,774.4,544.9,755.9z"/>
<ellipse class="st1" cx="565.2" cy="756" rx="506" ry="31"/>
<ellipse class="st2" cx="565.2" cy="755.5" rx="431" ry="20.5"/>
<ellipse class="st1" cx="212.2" cy="836.5" rx="212.2" ry="18.5"/>
<ellipse class="st2" cx="212.2" cy="836.2" rx="180.7" ry="12.2"/>
<rect x="196.2" y="162" class="st1" width="752" height="590"/>
<path class="st0" d="M564.5,292.2H379c-1.2,0-2.3-1-2.3-2.3s1-2.3,2.3-2.3h185.5c1.2,0,2.3,1,2.3,2.3S565.8,292.2,564.5,292.2z"/>
<path class="st0" d="M766.7,292.6H581.2c-1.2,0-2.3-1-2.3-2.3s1-2.3,2.3-2.3h185.5c1.2,0,2.3,1,2.3,2.3S768,292.6,766.7,292.6z"/>
<path class="st0" d="M565,316.9H379.5c-1.2,0-2.3-1-2.3-2.3s1-2.3,2.3-2.3H565c1.2,0,2.3,1,2.3,2.3S566.2,316.9,565,316.9z"/>
<path class="st0" d="M565.4,341.7H379.9c-1.2,0-2.3-1-2.3-2.3s1-2.3,2.3-2.3h185.5c1.2,0,2.3,1,2.3,2.3S566.7,341.7,565.4,341.7z"/>
<path class="st0" d="M649.6,316.9h-53.1c-1.2,0-2.3-1-2.3-2.3s1-2.3,2.3-2.3l0,0h53.1c1.2,0,2.3,1,2.3,2.3S650.9,316.9,649.6,316.9z
	"/>
<path class="st0" d="M649.6,341.2h-53.1c-1.2,0-2.3-1-2.3-2.2s1-2.3,2.2-2.3c0,0,0,0,0,0h53.1c1.2,0,2.3,1,2.3,2.2
	S650.9,341.2,649.6,341.2C649.7,341.2,649.6,341.2,649.6,341.2z"/>
<path class="st0" d="M738.8,341.2h-53.1c-1.2,0-2.2-1-2.2-2.3c0-1.2,1-2.2,2.2-2.2h53.1c1.2,0,2.3,1,2.3,2.2
	S740.1,341.2,738.8,341.2C738.8,341.2,738.8,341.2,738.8,341.2z"/>
<path class="st0" d="M489.6,267.4H380.1c-2.6,0-2.6-1-2.6-2.3s0.1-2.3,2.6-2.3l0,0h109.5c2.6,0,2.6,1,2.6,2.3
	S492.1,267.4,489.6,267.4z"/>
<path class="st0" d="M563.9,607.4H378.3c-1.2,0-2.3-1-2.3-2.3c0-1.2,1-2.3,2.3-2.3l0,0h185.5c1.2,0,2.3,1,2.3,2.3
	C566.1,606.4,565.1,607.4,563.9,607.4z"/>
<path class="st0" d="M563,656.9H377.4c-1.2,0-2.3-1-2.3-2.3c0-1.2,1-2.3,2.3-2.3l0,0H563c1.2,0,2.3,1,2.3,2.3
	C565.2,655.9,564.2,656.9,563,656.9z"/>
<path class="st0" d="M563.4,681.7H377.9c-1.2,0-2.3-1-2.3-2.3c0-1.2,1-2.3,2.3-2.3l0,0h185.5c1.2,0,2.3,1,2.3,2.3
	C565.7,680.6,564.7,681.7,563.4,681.7z"/>
<path class="st0" d="M642.7,657.3h-53.1c-1.2,0-2.3-1-2.3-2.3c0-1.2,1-2.3,2.3-2.3h53.1c1.2,0,2.3,1,2.3,2.3
	C644.9,656.3,643.9,657.3,642.7,657.3L642.7,657.3z"/>
<path class="st0" d="M642.7,681.7h-53.1c-1.2,0-2.3-1-2.3-2.3c0-1.2,1-2.3,2.3-2.3h53.1c1.2,0,2.3,1,2.3,2.3
	C644.9,680.6,643.9,681.7,642.7,681.7L642.7,681.7z"/>
<path class="st0" d="M731.8,657.3h-53.1c-1.2,0-2.3-1-2.3-2.3c0-1.2,1-2.3,2.3-2.3h53.1c1.2,0,2.3,1,2.3,2.3
	C734.1,656.3,733.1,657.3,731.8,657.3z"/>
<path class="st0" d="M766.9,632.1H475.2c-1.2,0-2.3-1-2.3-2.3c0-1.2,1-2.3,2.3-2.3h291.8c1.2,0,2.3,1,2.3,2.3
	C769.2,631.1,768.2,632.1,766.9,632.1z"/>
<path class="st0" d="M431,632.1h-53.1c-1.2,0-2.3-1-2.3-2.3c0-1.2,1-2.3,2.3-2.3l0,0H431c1.2,0,2.3,1,2.3,2.3
	C433.3,631.1,432.3,632.1,431,632.1z"/>
<path class="st0" d="M766.9,706.9H475.2c-1.2,0-2.3-1-2.3-2.3c0-1.2,1-2.3,2.3-2.3h291.8c1.2,0,2.3,1,2.3,2.3
	C769.2,705.9,768.2,706.9,766.9,706.9L766.9,706.9z"/>
<path class="st0" d="M431,706.9h-53.1c-1.2,0-2.3-1-2.3-2.3c0-1.2,1-2.3,2.3-2.3l0,0H431c1.2,0,2.3,1,2.3,2.3
	C433.3,705.9,432.3,706.9,431,706.9z"/>
<circle class="st3" cx="216.2" cy="177" r="9"/>
<circle class="st3" cx="240.2" cy="177" r="9"/>
<circle class="st3" cx="264.2" cy="177" r="9"/>
<rect x="196.2" y="192" class="st2" width="752" height="3"/>
<path class="st0" d="M1126.2,607.5c0,63.8-37.9,86-84.7,86s-84.7-22.3-84.7-86s84.7-144.9,84.7-144.9S1126.2,543.7,1126.2,607.5z"/>
<polygon class="st1" points="1038.4,683.7 1039.3,630.4 1075.4,564.3 1039.4,622 1039.8,598 1064.7,550.2 1039.9,591.6 
	1039.9,591.6 1040.6,548.5 1067.3,510.5 1040.7,541.7 1041.2,462.6 1038.4,567.3 1038.7,563 1011.6,521.6 1038.2,571.3 
	1035.7,619.5 1035.6,618.2 1004.4,574.6 1035.5,622.7 1035.2,628.8 1035.2,628.9 1035.2,629.4 1028.8,751.7 1037.3,751.7 
	1038.4,688.5 1069.4,640.5 "/>
<path class="st4" d="M122.6,751.1c-2.6,1.4-5.3,2.6-8.2,3.5c-5.1,1.4-10.5,0.9-15.6,2.1c-2.1,0.5-4.4,1.5-5.1,3.5
	c-0.5,1.5,0,3.1,0.6,4.6c5.7,16.6,9.1,34.3,18.1,49.3c3.8,6.3,8.5,12,14,17c2.1,1.9,4.4,3.7,7.1,4c4,0.4,7.5-2.5,8-6.4
	c0.1-1.3-0.1-2.6-0.6-3.7c-0.8-1.8-2.3-3.2-3.3-4.9c-1.1-2.2-1.7-4.6-1.8-7c-0.9-7.1-1.8-14.5,0.7-21.3c1.7-4.5,4.7-8.4,7.2-12.4
	s4.6-8.8,4.1-13.5c-0.4-3.3-2-6.2-3.6-9.1c-1.7-2.8-5-10.4-8.4-11.4C132.3,744.4,125.7,749.5,122.6,751.1z"/>
<path class="st4" d="M215.1,808.5c0.1,1.6-0.2,3.2-0.7,4.7c-1.1,2.8-3.7,4.7-5,7.4c-1.9,3.7-1,8.2,0.2,12.1c0.8,2.5,1.8,5.1,3.9,6.6
	c1.8,1.1,3.8,1.8,6,1.9c18,2.5,36.4,1.1,54.6,1.6c3.3,0.1,6.8,0.2,9.7-1.4s4.7-5.7,2.7-8.4c-1.8-2.4-5.3-2.4-8.2-2.5
	c-7.8-0.4-15.1-3.4-20.9-8.6c-1.1-1-2.1-2.1-2.9-3.4c-0.6-1.1-1.1-2.3-1.5-3.5c-2.6-6.9-5.6-13.6-9.1-20.1c-1-1.8-2.1-3.7-3.9-4.7
	c-1.3-0.6-2.8-0.9-4.2-0.9c-4.5-0.3-16.3-1.8-19.8,1.7C212.6,794.3,215.1,804.4,215.1,808.5z"/>
<ellipse transform="matrix(7.088905e-02 -0.9975 0.9975 7.088905e-02 -150.0258 592.3745)" class="st5" cx="243" cy="376.7" rx="29" ry="29"/>
<path class="st5" d="M216.8,400.6c-1.7,4.6-4.6,8.9-8.9,11.4l40.1,8.2c-1.5-5.8-1.6-11.9-0.6-17.9c0.4-1.4,0.5-2.9,0.2-4.4
	c-0.8-2.9-4-4.3-7-5c-7.3-1.7-13.8-2.6-20.6-5.8C218,390.8,218.3,396.5,216.8,400.6z"/>
<path class="st4" d="M207.6,401.2c8.7-4,18.8-3.7,27.3,0.7c5.1,2.7,9.4,6.8,13.6,10.8c3.9,3.7,8,8,8.2,13.3c0.1,2.6-0.7,5.1-1.1,7.7
	c-1.5,10.9,4,21.5,13.8,26.5c3.2,5.3,3.8,11.7,3.9,17.9c0.2,23.4-7.2,47.2-1.9,70c1.2,5.4,3.2,10.6,4.2,16c1.4,7,1.3,14.2,2,21.3
	c0.8,7.7,2.5,15.2,5.1,22.5c-1.7,2.8-5.4,3.8-8.6,3.6s-6.3-1.6-9.2-3.1c-14.1-7.2-27.1-16.8-41.7-22.9c-9.7-4.1-20-6.6-29.4-11.3
	s-18.1-12.1-21-22.2c-1.2-4.4-1.3-9-1.4-13.5c-0.3-19.1-0.6-38.4,3.6-57.1c3.7-16.5,10.7-32.2,12.3-49c0.5-5.5,0.5-11.3,3.6-15.9
	C195.2,410,204.5,408.4,207.6,401.2z"/>
<path class="st4" d="M226.5,377.1c1.7-2.2,5-2.5,7.7-1.9s5.2,2.1,8,2.6c1.3,0.4,2.6,0.2,3.7-0.5c1-0.9,1.5-2.2,1.6-3.6
	c1-5.7,1.2-11.6,0.7-17.4c-0.1-0.8-0.1-1.6,0.2-2.4c0.7-1.6,2.8-2,4.5-2.6c5.8-1.9,9.5-7.6,9-13.6c0-1.4-0.6-2.8-1.7-3.7
	c-1.2-1-2.8-1-4.3-1c-7.8-0.1-15.6-0.1-23.4,0c-2.9,0-5.9,0.1-8.4,1.5c-1.8,1.1-3.2,2.8-4.9,4.1c-4.3,3.5-10.2,4.2-15.4,6
	c-2.6,0.7-4.9,2.1-6.8,4c-1.8,2-2.6,5-1.5,7.4c0.6,1,1.2,2,1.9,2.9c3.1,5,1,11.4,1.5,17.2c0.6,7.3,11.4,19.1,18.7,20.8
	C229.4,399.8,222.6,381.9,226.5,377.1z"/>
<path class="st4" d="M210.1,696.7c0.7,5.3,1.7,10.7,1.4,16c-0.4,7.5-3.1,14.7-3.6,22.2c-0.4,5.6,0.5,11.2-0.3,16.8
	c-0.5,3.6-1.7,7-2.4,10.5c-2.3,11.6,0.2,23.6,7,33.3c0.5,0.8,1.2,1.5,2,2c0.8,0.3,1.7,0.4,2.5,0.3c8.4-0.2,16.8-0.9,25.2-2.3
	c0.6,0,1.2-0.3,1.6-0.7c0.2-0.3,0.3-0.6,0.4-1c1.5-7.9-2-15.9-2.9-23.9c-1-8.6,1.1-17.2,3.1-25.6c0.9-4.1,2.1-8.2,3.5-12.2
	c1-2.7,2.2-5.3,3-8.1c1.2-4.3,2-8.7,2.2-13.2c0.6-7.1,0.9-14.1,0.9-21.2c0.2-6.7-0.4-13.4-1.7-20c-1.9-8.3-5.7-16.1-9.5-23.7
	c-2,0.5-4,1.4-5.6,2.7c-4.9,3.2-10,6-15.4,8.5c-3.6,1.7-10.5,2.8-12.8,6.3c-2.2,3.4-0.8,10.4-0.6,14.1
	C208.6,683.9,209.2,690.3,210.1,696.7z"/>
<path class="st2" d="M210.1,696.7c0.7,5.3,1.7,10.7,1.4,16c-0.4,7.5-3.1,14.7-3.6,22.2c-0.4,5.6,0.5,11.2-0.3,16.8
	c-0.5,3.6-1.7,7-2.4,10.5c-2.3,11.6,0.2,23.6,7,33.3c0.5,0.8,1.2,1.5,2,2c0.8,0.3,1.7,0.4,2.5,0.3c8.4-0.2,16.8-0.9,25.2-2.3
	c0.6,0,1.2-0.3,1.6-0.7c0.2-0.3,0.3-0.6,0.4-1c1.5-7.9-2-15.9-2.9-23.9c-1-8.6,1.1-17.2,3.1-25.6c0.9-4.1,2.1-8.2,3.5-12.2
	c1-2.7,2.2-5.3,3-8.1c1.2-4.3,2-8.7,2.2-13.2c0.6-7.1,0.9-14.1,0.9-21.2c0.2-6.7-0.4-13.4-1.7-20c-1.9-8.3-5.7-16.1-9.5-23.7
	c-2,0.5-4,1.4-5.6,2.7c-4.9,3.2-10,6-15.4,8.5c-3.6,1.7-10.5,2.8-12.8,6.3c-2.2,3.4-0.8,10.4-0.6,14.1
	C208.6,683.9,209.2,690.3,210.1,696.7z"/>
<path class="st4" d="M171,583c-3.8,10.4,1.8,21.6,6.7,31.5c12.1,24.4,20.5,50.4,28.9,76.3c0.6,1.9,1.3,4.1,0.6,6
	c-0.6,1.4-1.6,2.5-2.8,3.3c-5.8,4.4-13.1,5.9-20,8.2c-6.6,2.2-13,5.2-18.9,8.9c-5,3.1-9.6,6.6-14.3,10.2l-14.8,11.3
	c-1,0.6-1.8,1.5-2.5,2.4c-1.4,2.2-0.8,5.2-0.1,7.7c1.9,6.8,4.3,13.4,7.3,19.8c0.5,1.4,1.4,2.6,2.6,3.4c2.3,1.2,5.1-0.4,6.9-2.3
	s3.3-4.4,5.8-5.2c2.5-0.8,5.2,0.2,7.8-0.2c4.2-0.6,7-4.5,10-7.4c12.4-12.1,33-11.3,46.6-22c2-1.8,4-3.4,6.2-4.9
	c2.3-1.4,4.9-2.1,7.3-3.3c7.3-3.7,11.8-11.2,14.3-19s3.1-15.9,4.9-23.9c0.9-4.1,2.1-8.2,2.5-12.3c0.3-3.9,0.2-7.8-0.3-11.7
	l-4.9-60.7c-0.4-4.9-0.8-9.9-1.6-14.8c-14.6,0.5-29.1,1.1-43.7,1.3C193.8,585.9,182,586.7,171,583z"/>
<path class="st4" d="M165.6,597.2c2,3.2,6.8,3.1,10.1,1.4s5.9-4.7,9.2-6.4c4.5-2.3,9.7-2.2,14.8-2.1c8,0.2,16,0.5,23.7,2.6
	c7.9,2.3,15.6,6.6,23.8,5.7c1.4-0.2,3-0.6,3.8-1.8c0.5-0.9,0.7-1.9,0.6-2.8l0.3-7.2c0.2-1.2,0-2.5-0.6-3.6c-0.7-0.9-1.6-1.7-2.7-2.1
	c-11.7-5.6-25-6.7-37.9-7.1c-6.6-0.2-13.2-0.3-19.8-0.3c-5.6,0-12.3-0.8-17.7,0.7C165.9,576.3,161.9,591.3,165.6,597.2z"/>
<path class="st6" d="M238.8,409.7c-15.3-0.1-29.1-10.2-44.4-10.5c-1.8-0.1-3.7,0.2-5.4,0.9c-2.1,1.1-3.5,3.1-5.1,4.9
	c-4.5,4.9-11.1,7.5-15.7,12.3c-4.4,4.5-6.8,11.1-5.1,17.2s8.2,10.6,14.3,9.2c2.4-7.9,7.5-14.8,14.3-19.5c3.6-2.3,7.3-4.2,11.2-5.9
	c6.9-3.1,14.5-6.3,21.7-4c2.6,1,5.1,2.4,7.4,4l12,8C242.6,420.9,241.4,414.8,238.8,409.7z"/>
<path class="st6" d="M175.6,438.4c-2,2.5,0.9,6.2,0.4,9.4c-0.3,2.1-2.1,3.8-2.8,5.8c-0.8,2.1-0.4,4.4-0.6,6.6
	c-0.3,1.6-0.7,3.2-1.3,4.7c-1.3,4.6-2.2,9.3-2.7,14l-2.7,20c-0.5,3-0.7,6-0.8,9.1c0.1,2.3,0,4.6-0.5,6.8c-0.6,2.2-1.9,4.1-2.8,6.2
	s-1.3,4.6-0.1,6.5c-4,3.3-5.2,9.9-2.4,14.2c0.5,0.7,0.9,1.4,1.2,2.3c0.2,1.1,0,2.3-0.5,3.3l-2.7,7.2c-0.7,1.8-0.9,4.7,1,5.1
	c-1.6,1.7-2.8,3.6-3.7,5.8c-0.8,2.2-0.4,4.6,1,6.5c0.7,0.6,1.2,1.3,1.7,2.1c0.3,1.1,0.2,2.2-0.2,3.2c-0.8,3.2-0.3,6.6,1.5,9.3
	c1.8,2.8,5.1,4.2,8.4,3.6c5.4-1.2,10.3-3.1,15.7-2.1c11.7,2.2,23.5,4.3,34.9,8c13,4.1,25.6,10.2,39.1,11.5c0.9,0.2,1.8,0,2.6-0.4
	c0.7-0.7,1.1-1.5,1.2-2.5c1.4-6.6,2.8-13.1,4.2-19.7c1.7-7.3,3-14.6,3.9-22c0.5-4.8,0.6-9.6,0.7-14.4l1.1-38.2
	c0.5-5.6-0.2-11.3-2.2-16.6l-6.2-19.8c-3.5-11.3-11.7-21.4-14.6-32.9c-1.8-7.3-3.2-15.1-8.1-20.8c-7-8.1-19.1-9.4-29.8-8
	c-4.8,0.6-9.6,1.7-13.8,4.2c-4.8,2.9-8.3,7.4-11.8,11.8C181.4,431.8,178.5,434.8,175.6,438.4z"/>
<path class="st5" d="M200.4,550.8c0.9,3.8,2.7,7.3,3.8,11c1.9,6.2,1.7,12.9,3.6,19.1c0.8,2.6,1.9,5.1,2.5,7.8
	c1.3,6.2-0.6,12.6-3,18.5s-5.3,11.7-6.1,18c-0.5,4.4,0.2,9.5,3.7,12.3c3.6,3,8.7,2.8,13.3,2.4c1.7,0,3.3-0.4,4.8-1
	c3.5-1.7,5-5.9,5.9-9.7c2.8-12.8,2-26.1,1.2-39.2l-2.1-34.2c-0.4-6.6-0.8-13.3-2.9-19.6c-0.7-2.3-2-7-4.1-8.4
	c-2.1-1.5-8-1.5-10.6-1.6C198.3,525.5,198.5,542.4,200.4,550.8z"/>
<path class="st6" d="M213.8,424.4c-2.5-1.3-5.6-0.7-8,0.7c-2.3,1.6-4.3,3.5-6,5.8c-5.3,6.5-11,14-10.2,22.4c0.3,3.1,1.5,6.1,2.3,9.2
	c3.6,13.4-0.4,27.5,0.1,41.4c0.3,8,2,15.9,3.7,23.7c0.4,1.6,0.9,3.4,2.5,4c1.2,0.4,2.4-0.1,3.6-0.6c8.7-3.2,18.4-2,26,3.3
	c2.9-1.5,1.8-6.4,1.1-9.5c-1.9-9.5,0.7-19.2,3.8-28.3s6.9-18.2,7.4-27.9c0.6-10.9-3-21.6-6.6-31.9c-0.8-2.3-1.6-4.6-3.4-6.2
	c-1.5-1.2-3.3-2-5.2-2.4C221.2,426.9,217.4,426.3,213.8,424.4z"/>
<g>
	<defs>
		<path id="XMLID_1_" d="M590.3,394.1c-21.5-0.7-42-7.7-61.5-15.3c-19.6-7.6-38.9-16-59.9-20c-13.5-2.6-28.9-3-39.8,4.3
			c-10.5,7-13.8,19-15.7,30.1c-1.4,8.4-2.2,17.2,1.6,25.1c2.6,5.5,7.2,10,10.4,15.3c11.1,18.2,3.3,40.6-8.8,58.3
			c-5.6,8.3-12.2,16.3-16.6,25.1c-4.4,8.9-6.4,19-2.6,28.1c3.8,9,12.8,15.7,22.6,20.4c19.8,9.6,43.2,12.4,66,13.9
			c50.4,3.5,101.1,2,151.7,0.5c18.7-0.6,37.5-1.1,55.9-4c10.2-1.6,20.8-4.2,28.2-10.3c9.4-7.8,11.8-21.1,5.4-30.9
			c-10.6-16.4-39.9-20.5-47.3-38.2c-4.1-9.7,0.1-20.5,6-29.5c12.7-19.3,34-36.3,35.1-58.4c0.8-15.2-9.5-30.4-25.3-37.5
			c-16.6-7.5-39.6-6.6-51.8,5.9C631.4,389.9,609.3,394.8,590.3,394.1z"/>
	</defs>
	<use xlink:href="#XMLID_1_"  style="overflow:visible;fill:#F2F2F2;"/>
	<clipPath id="XMLID_3_">
		<use xlink:href="#XMLID_1_"  style="overflow:visible;"/>
	</clipPath>
	<linearGradient id="SVGID_1_" gradientUnits="userSpaceOnUse" x1="561.6255" y1="587.6568" x2="561.6255" y2="352.3197">
		<stop  offset="0" style="stop-color:#FAB159"/>
		<stop  offset="1" style="stop-color:#04A0C0"/>
	</linearGradient>
	<rect x="337.5" y="352.3" class="st7" width="448.2" height="235.3"/>
	<g class="st8">
		<path class="st9" d="M518.9,460.8c0.6-0.1,1.1,0,1.1,0.1c0,0,0,0,0,0.1c-0.1,0.1-0.5,0.2-1.1,0.3c-0.5,0-1,0-1.1-0.1c0,0,0,0,0,0
			C517.8,461,518.3,460.9,518.9,460.8z"/>
		<g>
			<polygon class="st9" points="526.7,556.4 521.3,497.8 526.7,556.4 			"/>
			<path class="st10" d="M526.2,527.2L529,557l0,0l-8.9-96.1l0,0c-0.1,0.1-0.5,0.2-1.1,0.3c-0.5,0-1,0-1.1-0.1l0,0l1,10.8l-0.1-1.2
				C518.8,470.7,521.7,502.8,526.2,527.2z"/>
			<polygon class="st11" points="518.9,471.9 521.3,497.8 518.9,471.9 			"/>
			<path class="st12" d="M529,557l-2.8-29.7c-4.5-24.5-7.4-56.6-7.4-56.6l0.1,1.2l2.4,25.9l5.4,58.6
				C527.5,556.5,528.2,556.7,529,557z"/>
		</g>
		<g>
			<polygon class="st11" points="518.6,465.4 521.1,492.9 518.6,465.4 			"/>
			<g>
				<path class="st13" d="M523.7,516.6c0,0-5.2,0.8-10.4,3.2c0,0,0.6,1.6,2,3.3c0,0,3.7-3.7,9.5-4.7L523.7,516.6z"/>
			</g>
			<g>
				<path class="st13" d="M519.9,473.4c0,0-5.2,0.8-10.4,3.2c0,0,0.6,1.6,2,3.3c0,0,3.7-3.7,9.5-4.7L519.9,473.4z"/>
			</g>
			<g>
				<path class="st14" d="M510.8,476c0,0,7.6-1.3,8.4-0.1l-0.1-1.3C519.1,474.6,518.4,473,510.8,476z"/>
			</g>
			<g>
				<path class="st14" d="M515.6,518.8c0,0,7.6-1.3,8.4-0.1l-0.1-1.3C523.8,517.4,523.1,515.7,515.6,518.8z"/>
			</g>
			<g>
				<path class="st15" d="M518.6,472.6c0,0-5.3-0.7-10.9,0c0,0,0.1,1.7,1,3.8c0,0,4.6-2.4,10.4-1.8L518.6,472.6z"/>
			</g>
			<g>
				<path class="st15" d="M524.6,515.8c0,0-5.1-1.5-10.8-1.5c0,0-0.2,1.7,0.4,3.9c0,0,4.9-1.8,10.6-0.3L524.6,515.8z"/>
			</g>
			<g>
				<path class="st16" d="M521.4,517.3c0.3,0,0.7,0.1,1,0.1l-0.5-2.2c-0.2-0.1-0.5-0.1-0.8-0.2C521.3,515.5,521.5,516.4,521.4,517.3
					z"/>
			</g>
			<g>
				<path class="st16" d="M517.4,472.5c0,0,0.4,0.9,0.2,2l1.3,0.1l-0.5-2L517.4,472.5z"/>
			</g>
			<path class="st17" d="M519.7,463.1c0.9,0,1.6,0.2,2.4,0.4c13.9,8.8,27.4,9.3,41,10c15.2,0.7,30.4,1.3,46.1,13.6
				c-14.7-0.3-28.8,10.2-43,20.9c-14.2,10.7-28.4,22-43,23.1c-1-11.8-2-23.6-3.1-35.5c-0.9-10.7-1.8-21.4-2.7-32.1
				C518.1,463.3,518.9,463.1,519.7,463.1z"/>
			<g class="st18">
				<path class="st19" d="M544.6,479.9c-8.1,0.3-14.1,6.1-13.2,14.1c0.7,6.4,5.6,12.4,11.7,14.3c0.8,0.1,1-0.3,0.9-0.7
					c0-0.3-0.2-1.5-0.3-2.7c-4,0.9-5.2-1.8-5.2-1.8c-0.9-1.7-1.9-2.2-1.9-2.2c-1.5-1,0-0.9,0-0.9c1.5,0.2,2.4,1.6,2.4,1.6
					c1.6,2.3,3.6,1.6,4.4,1.3c0-0.9,0.3-1.6,0.7-2c-3.3-0.3-6.9-1.7-7.6-7.3c-0.2-1.6,0.3-2.9,1.1-3.8c-0.2-0.4-0.9-1.9-0.3-3.8
					c0,0,1.2-0.3,4.2,1.5c1.1-0.3,2.4-0.5,3.6-0.6c1.3,0,2.5,0.1,3.7,0.3c2.6-2,3.9-1.8,3.9-1.8c1,1.9,0.7,3.5,0.6,3.8
					c1.1,0.9,1.8,2.2,2,3.8c0.6,5.6-2.6,7.1-5.9,7.6c0.6,0.4,1.1,1.3,1.3,2.6c0.2,1.9,0.4,3.5,0.4,4c0,0.4,0.4,0.8,1.1,0.6
					c5.6-2.3,9.2-8.2,8.4-14.6C560,485.3,552.8,479.6,544.6,479.9z"/>
			</g>
			<path class="st20" d="M525.6,465.6c1.9,1,4.2,2.1,7.1,3.2c-8.2,5.3-8.3,17.9-8.2,20.9l3.6,40.6c-0.6,0.1-1.1,0.2-1.7,0.3
				c-0.1,0-0.1,0-0.1,0l-5.8-67.4c0.4,0.1,1.1,0.2,1.4,0.3C523,464.1,524.1,464.8,525.6,465.6z"/>
			<path class="st20" d="M566.2,508c-9.4,7.1-18.7,14.4-28.2,18.9c15.7-7.4,28.5-24.6,41-37.9c6.9-7.4,15.5-8.6,20.9-8
				c5.4,2.7,9.4,6.1,9.4,6.1C594.6,486.7,580.4,497.3,566.2,508z"/>
			<g>
				<path class="st21" d="M527.9,527.7l0.2,0l0.2,2.1l-0.2,0L527.9,527.7z M527.5,523.5l0.2,0l0.2,2.1l-0.2,0L527.5,523.5z
					 M527.2,519.3l0.2,0l0.2,2.1l-0.2,0L527.2,519.3z M526.8,515.2l0.2,0l0.2,2.1l-0.2,0L526.8,515.2z M526.4,511l0.2,0l0.2,2.1
					l-0.2,0L526.4,511z M526.1,506.8l0.2,0l0.2,2.1l-0.2,0L526.1,506.8z M525.7,502.6l0.2,0l0.2,2.1l-0.2,0L525.7,502.6z
					 M525.3,498.4l0.2,0l0.2,2.1l-0.2,0L525.3,498.4z M525,494.3l0.2,0l0.2,2.1l-0.2,0L525,494.3z M524.6,490.1l0.2,0l0.2,2.1
					l-0.2,0L524.6,490.1z M524.2,485.9l0.2,0l0.2,2.1l-0.2,0L524.2,485.9z M523.9,481.7l0.2,0l0.2,2.1l-0.2,0L523.9,481.7z
					 M523.5,477.5l0.2,0l0.2,2.1l-0.2,0L523.5,477.5z M523.1,473.4l0.2,0l0.2,2.1l-0.2,0L523.1,473.4z M522.8,469.2l0.2,0l0.2,2.1
					l-0.2,0L522.8,469.2z M522.4,465l0.2,0l0.2,2.1l-0.2,0L522.4,465z"/>
			</g>
		</g>
	</g>
	<path class="st22" d="M465.3,455.4c-2,0-3.8,0.3-5.4,0.7c0.5-1.2,0.8-2.5,0.8-3.8c0-6.7-7-12.1-15.7-12.1c-2.6,0-5.1,0.5-7.3,1.4
		c-1.1-10.3-9.8-18.2-20.4-18.2c-11.3,0-20.5,9.2-20.5,20.5c0,0.1,0,0.3,0,0.4c-1.4-0.6-3-0.9-4.7-0.9c-5.5,0-9.9,3.2-9.9,7.2
		c0,0.6,0.1,1.3,0.3,1.8c-0.7,1-1,2.1-1,3.2c0,3.1,2.8,5.9,7.5,8c-4.2,0.8-6.8,1.9-6.8,3.2c0,2.3,8.9,4.2,19.9,4.2
		c11,0,19.8-1.9,19.9-4.2c4.6,0.8,10.3,1.3,16.6,1.3c13,0,23.9-2,26.1-4.8c0.2,0,0.5,0,0.7,0c5.2,0,9.4-1.8,9.4-4
		S470.5,455.4,465.3,455.4z"/>
	<path class="st22" d="M740.3,511.2c0-3.2-4.9-5.9-12.2-7.5c1.5-0.9,2.5-2.1,2.5-3.5c0-2.8-4-5.1-8.9-5.1c-3,0-5.6,0.8-7.2,2.1
		c-2.3-2.5-6.2-4.1-10.7-4.1c-7.1,0-12.8,4.1-12.8,9.1c0,0.9,0.2,1.7,0.5,2.5c-6.2,0.4-11.1,3.8-11.1,7.9c0,1.7,0.8,3.3,2.2,4.6
		c-0.2,0-0.5,0-0.7,0c-4.2,0-7.7,1.5-7.7,3.3c0,1.8,3.4,3.3,7.7,3.3c1.8,0,3.5-0.3,4.9-0.7c3.1,2.5,13.3,4.4,25.4,4.4
		c14.6,0,26.4-2.7,26.4-6c0-1.5-2.3-2.8-6.2-3.9C737.2,515.9,740.3,513.7,740.3,511.2z"/>
	<path class="st23" d="M527.6,560.4c0,0,8.8,14.6,36.2,24.2l-20.6,7c0,0-15.4-12.4-18.5-21.9C524.7,569.6,520.9,563.5,527.6,560.4z"
		/>
	<g class="st8">
		<polygon class="st24" points="656.5,512.3 653.5,509.9 641.6,516.4 638.2,529.5 641.2,531.8 644.6,518.7 		"/>
		<polygon class="st25" points="659.7,530.6 665.6,507.4 656.5,512.3 644.6,518.7 641.2,531.8 640.4,534.9 639.6,537.9 638.6,541.8 
					"/>
		<path class="st26" d="M621.5,531.8c-0.2,1.4-2.4,0.7-3.3,1c-0.5,0.1-1.2,0.8-1.2,1.5c-0.6-0.2-1.6-1.1-1.7-1.6
			c0,0,0.5-1.2,2.9-1.4c0,0-2-0.2-3.1,1.1c0,0-0.2-0.5,0-0.9c0.7-0.7,2.1-1.2,2.9-1.3c1-0.1,3-0.2,3.4,1.1"/>
		<circle class="st27" cx="622.1" cy="531.6" r="0.7"/>
		<path class="st25" d="M622.8,531.2c2.3,0.6,4.5,1.8,6.5,2.9c1.6,0.9,3.3,1.8,5.1,2.5c2,0.7,4.1,1.1,6.3,1.1l0,0.7
			c-2.2,0-4.4-0.4-6.5-1.1c-1.8-0.7-3.5-1.6-5.2-2.5c-2-1.1-4.1-2.3-6.4-2.9L622.8,531.2z"/>
		<polygon class="st28" points="652.3,515.2 642.8,517.8 639.8,523.2 638.2,529.5 641.2,531.8 		"/>
		
			<ellipse transform="matrix(0.5937 -0.8047 0.8047 0.5937 -157.8665 739.3072)" class="st29" cx="653.2" cy="526" rx="1.1" ry="0.7"/>
	</g>
	<polygon class="st30" points="432.8,505.9 430.9,508.3 436.1,518.1 446.8,520.8 448.7,518.4 438,515.7 	"/>
	<polygon class="st31" points="447.7,503.3 428.8,498.5 432.8,505.9 438,515.7 448.7,518.4 451.3,519.1 453.7,519.7 456.9,520.5 	
		"/>
	<path class="st32" d="M461.1,514.5c0.2-1.1,2-0.6,2.7-0.7c0.4-0.1,1-0.7,1-1.2c0.5,0.2,1.3,0.9,1.4,1.4c0,0-0.4,0.9-2.4,1.1
		c0,0,1.7,0.2,2.5-0.9c0,0,0.2,0.4,0,0.8c-0.6,0.5-1.7,0.9-2.4,1c-0.8,0.1-2.4,0.1-2.8-1"/>
	<circle class="st33" cx="460.6" cy="514.7" r="0.6"/>
	<path class="st31" d="M460,515c-1.9-0.5-3.6-1.5-5.3-2.5c-1.3-0.8-2.7-1.5-4.1-2.1c-1.6-0.6-3.3-0.9-5.1-1l0-0.6
		c1.8,0,3.6,0.4,5.3,1c1.5,0.6,2.9,1.4,4.2,2.1c1.6,0.9,3.3,1.9,5.2,2.4L460,515z"/>
	<polygon class="st34" points="435.2,509.3 437.3,517.1 441.7,519.5 446.8,520.8 448.7,518.4 	"/>
	
		<ellipse transform="matrix(0.5937 -0.8047 0.8047 0.5937 -228.9015 563.9191)" class="st35" cx="444" cy="508.6" rx="0.5" ry="0.9"/>
	<g class="st8">
		<polygon class="st24" points="569,448.1 570.3,452.4 586.4,454.4 598.8,443.9 597.5,439.6 585.1,450.1 		"/>
		<polygon class="st25" points="578.5,428 556.8,446.6 569,448.1 585.1,450.1 597.5,439.6 600.4,437.1 603.2,434.7 606.9,431.7 		
			"/>
		<path class="st26" d="M616,432.8c1.1-1.2,2.8,0.9,3.9,1.3c0.6,0.2,1.7,0,2.2-0.6c0.4,0.6,0.9,2.2,0.5,2.8c0,0-1.3,0.8-3.8-0.7
			c0,0,1.8,1.6,3.8,1c0,0-0.1,0.6-0.7,0.9c-1.2,0.1-2.8-0.3-3.7-0.7c-1.1-0.6-3-1.9-2.6-3.5"/>
		<circle class="st27" cx="615.3" cy="432.6" r="0.9"/>
		<polygon class="st28" points="575.2,448.1 586.2,452.2 592.9,448.9 598.8,443.9 597.5,439.6 		"/>
		
			<ellipse transform="matrix(0.9496 -0.3135 0.3135 0.9496 -107.6677 204.389)" class="st29" cx="581.8" cy="437" rx="1.4" ry="0.8"/>
		<path class="st36" d="M581.2,432.4c1.9-5.2,7-8.4,12.3-9.1c4.2-0.6,8.5,0.3,12.5,1.9c3.7,1.5,7.4,3.8,9,7.5"/>
	</g>
	<path class="st37" d="M534.4,583.4c0,0-17.8-11.6-15.2-28.2c1.4-9.2,10.6-8.7,10.6-8.7c5.3,0,9.6,4.3,9.6,9.6
		c0,5.9-6.3,10.2-11.9,8.2c-0.7-0.2-1.4-0.5-2.1-0.5c-0.4,0-0.8,0.2-1,0.5c-0.3,0.4-0.2,1-0.1,1.5c0.6,2.2,2.6,5.2,4.2,6.9
		c0,0,6.3,7,15.2,10.6"/>
	<path class="st37" d="M534.6,559.6c0,0-1.1,2.4,2.7,2.9c3.8,0.5-2.8,6.2-7.1,2.6c-4.3-3.6-2.6-4.5-2.6-4.5"/>
	<path class="st38" d="M528.5,569.5c1.1,1.6,2.5,2.5,3.3,2c0.7-0.5,0.5-2.1-0.6-3.7c-1.1-1.5-2.5-2.4-3.3-2
		C527.2,566.3,527.5,567.9,528.5,569.5z"/>
	<path class="st38" d="M545.3,582.1c1.6,0.7,3.4,0.5,3.8-0.3c0.5-0.8-0.5-1.9-2.2-2.5c-1.6-0.7-3.3-0.7-3.8,0.1
		C542.8,580.1,543.7,581.4,545.3,582.1z"/>
	<path class="st38" d="M536.4,576.8c1.4,1.1,3,1.4,3.6,0.6c0.6-0.8-0.1-2.2-1.5-3.3c-1.4-1.1-3-1.5-3.6-0.8
		C534.3,574.1,535,575.7,536.4,576.8z"/>
	<path class="st39" d="M529.7,564.8l1,11.3c-1.2,0.3-1.8,0.4-2.4-0.6l-1-11.3C527.6,564.4,528.7,564.7,529.7,564.8z"/>
	<path class="st40" d="M536.2,552c-2.3-3.8-7.7-4.8-11.4-2.4c-2.4,1.6-3.9,4.4-3.7,7.3c-0.2-3.3,3.3-5.6,6.1-6.4
		C529.8,549.7,534.5,549.3,536.2,552z"/>
</g>
<path class="st41" d="M213.8,424.4c-2.5-1.3-5.6-0.7-8,0.7c-2.3,1.6-4.3,3.5-6,5.8c-5.3,6.5-11,14-10.2,22.4
	c0.3,3.1,1.5,6.1,2.3,9.2c3.6,13.4-0.4,27.5,0.1,41.4c0.3,8,2,15.9,3.7,23.7c0.4,1.6,0.9,3.4,2.5,4c1.2,0.4,2.4-0.1,3.6-0.6
	c8.7-3.2,18.4-2,26,3.3c2.9-1.5,1.8-6.4,1.1-9.5c-1.9-9.5,0.7-19.2,3.8-28.3s6.9-18.2,7.4-27.9c0.6-10.9-3-21.6-6.6-31.9
	c-0.8-2.3-1.6-4.6-3.4-6.2c-1.5-1.2-3.3-2-5.2-2.4C221.2,426.9,217.4,426.3,213.8,424.4z"/>
<g>
	<g>
		<path class="st42" d="M396.7,235.6h-10.2c-0.3,0-0.5,0.2-0.5,0.5v5c0,0.3,0.2,0.5,0.5,0.5h4v6.2c0,0-0.9,0.3-3.3,0.3
			c-2.9,0-7-1.1-7-10c0-8.9,4.2-10.1,8.2-10.1c3.4,0,4.9,0.6,5.8,0.9c0.3,0.1,0.6-0.2,0.6-0.5l1.1-4.8c0-0.1,0-0.3-0.2-0.4
			c-0.4-0.3-2.7-1.6-8.6-1.6c-6.8,0-13.7,2.9-13.7,16.7c0,13.9,8,15.9,14.7,15.9c5.6,0,8.9-2.4,8.9-2.4c0.1-0.1,0.2-0.3,0.2-0.4V236
			C397.1,235.8,396.9,235.6,396.7,235.6z"/>
		<path class="st42" d="M449,223.2c0-0.3-0.2-0.5-0.5-0.5h-5.7c-0.3,0-0.5,0.2-0.5,0.5c0,0,0,11,0,11h-8.9v-11
			c0-0.3-0.2-0.5-0.5-0.5h-5.7c-0.3,0-0.5,0.2-0.5,0.5v29.9c0,0.3,0.2,0.5,0.5,0.5h5.7c0.3,0,0.5-0.2,0.5-0.5v-12.8h8.9
			c0,0,0,12.8,0,12.8c0,0.3,0.2,0.5,0.5,0.5h5.7c0.3,0,0.5-0.2,0.5-0.5V223.2z"/>
		<g>
			<g>
				<path class="st42" d="M407.5,227.2c0-2.1-1.7-3.7-3.7-3.7c-2,0-3.7,1.7-3.7,3.7c0,2.1,1.7,3.7,3.7,3.7
					C405.8,230.9,407.5,229.2,407.5,227.2z"/>
				<path class="st42" d="M407.1,246.8c0-0.8,0-13.8,0-13.8c0-0.3-0.2-0.5-0.5-0.5h-5.7c-0.3,0-0.5,0.3-0.5,0.5c0,0,0,16.6,0,19.8
					c0,0.6,0.4,0.8,0.8,0.8c0,0,2.4,0,5.1,0c0.6,0,0.7-0.3,0.7-0.8C407.1,251.8,407.1,247.6,407.1,246.8z"/>
			</g>
		</g>
		<path class="st42" d="M470.7,232.6H465c-0.3,0-0.5,0.2-0.5,0.5v14.7c0,0-1.4,1.1-3.5,1.1c-2,0-2.6-0.9-2.6-2.9c0-2,0-12.8,0-12.8
			c0-0.3-0.2-0.5-0.5-0.5h-5.8c-0.3,0-0.5,0.2-0.5,0.5c0,0,0,7.8,0,13.8c0,5.9,3.3,7.4,7.9,7.4c3.7,0,6.8-2.1,6.8-2.1
			s0.1,1.1,0.2,1.2c0.1,0.1,0.2,0.3,0.4,0.3l3.7,0c0.3,0,0.5-0.2,0.5-0.5l0-20.1C471.2,232.8,471,232.6,470.7,232.6z"/>
		<path class="st42" d="M486.2,231.9c-3.2,0-5.4,1.4-5.4,1.4v-10.1c0-0.3-0.2-0.5-0.5-0.5h-5.7c-0.3,0-0.5,0.2-0.5,0.5v29.9
			c0,0.3,0.2,0.5,0.5,0.5c0,0,4,0,4,0c0.2,0,0.3-0.1,0.4-0.3c0.1-0.2,0.2-1.4,0.2-1.4s2.3,2.2,6.8,2.2c5.2,0,8.2-2.6,8.2-11.9
			C494.2,233.1,489.4,231.9,486.2,231.9z M484,248.8c-2-0.1-3.3-1-3.3-1v-9.5c0,0,1.3-0.8,2.9-1c2-0.2,4,0.4,4,5.3
			C487.6,247.8,486.7,248.9,484,248.8z"/>
		<path class="st42" d="M423.5,232.5h-4.3c0,0,0-5.7,0-5.7c0-0.2-0.1-0.3-0.4-0.3H413c-0.2,0-0.3,0.1-0.3,0.3v5.9
			c0,0-2.9,0.7-3.1,0.8c-0.2,0.1-0.3,0.2-0.3,0.5v3.7c0,0.3,0.2,0.5,0.5,0.5h3c0,0,0,3.8,0,8.8c0,6.6,4.6,7.2,7.7,7.2
			c1.4,0,3.1-0.5,3.4-0.6c0.2-0.1,0.3-0.2,0.3-0.4l0-4c0-0.3-0.2-0.5-0.5-0.5c-0.2,0-0.9,0.1-1.5,0.1c-2.1,0-2.8-1-2.8-2.2
			c0-1.3,0-8.4,0-8.4h4.3c0.3,0,0.5-0.2,0.5-0.5V233C424,232.8,423.7,232.5,423.5,232.5z"/>
	</g>
	<path class="st42" d="M515.2,221.5c3.9,0,6.5,0.7,8.2,1.5v2.8c-2.9-1.2-5.1-1.6-8.2-1.6c-6.9,0-9.4,6-9.4,13.6
		c0,7.6,2.5,13.6,9.4,13.6c3.2,0,5.3-0.5,8.2-1.6v2.8c-1.7,0.8-4.4,1.5-8.2,1.5c-9.5,0-12.5-7.3-12.5-16.3
		C502.8,228.8,505.8,221.5,515.2,221.5z"/>
	<path class="st42" d="M535.3,234.7c-2.8,0-4.7,0.5-6.3,1.1v-2.5c1.9-0.8,4.3-1.1,6.3-1.1c6.3,0,8,2.9,8,7.1v14.5h-1.6l-0.6-1.7
		c-1.9,1.4-4.3,2.1-6.4,2.1c-5.5,0-7.4-3.3-7.4-6.8c0-3.6,2-6.3,7.5-6.6l5.6-0.3v-1.2C540.4,236,539.3,234.7,535.3,234.7z
		 M534.6,242.9c-3,0.3-4.3,1.9-4.3,4.3c0,1.9,0.5,4.2,4.5,4.2c2.3,0,3.8-0.6,5.6-1.7v-7.4L534.6,242.9z"/>
	<path class="st42" d="M573.8,238.3c0-2.7-1.6-3.6-4-3.6c-2.6,0-4.1,0.5-5.7,1.4c0.2,0.7,0.3,1.4,0.3,2.2v15.3h-3v-15.3
		c0-2.7-1.6-3.6-4-3.6c-2.5,0-3.8,0.4-5.5,1.3v17.7h-3v-21.1h1.6l0.6,1.7c2-1.5,4.2-2.2,6.2-2.2c2.8,0,4.8,0.8,5.9,2.4
		c2.2-1.5,4.4-2.4,6.6-2.4c4.5,0,7,2.1,7,6.3v15.2h-3V238.3z"/>
	<path class="st42" d="M585,252.3v11.9h-3v-31.7h1.6l0.6,1.7c2.2-1.4,4.3-2.2,6.6-2.2c6.8,0,8.7,4.9,8.7,11c0,6.1-1.9,11-8.7,11
		C588.9,254,586.8,253.5,585,252.3z M596.6,243c0-4.2-0.6-8.4-5.7-8.4c-2.7,0-4.3,0.5-5.9,1.4v14c1.6,0.9,3.2,1.4,5.9,1.4
		C596,251.4,596.6,247.2,596.6,243z"/>
	<path class="st42" d="M607.4,247.8c0,2.7,1.6,3.6,4.2,3.6c2.7,0,4.1-0.5,5.7-1.4v-17.6h3v21.1h-1.6l-0.6-1.8
		c-2,1.5-4.1,2.2-6.4,2.2c-5,0-7.2-2.3-7.2-6.3v-15.2h3V247.8z"/>
	<path class="st42" d="M632.8,241.5c6,0.5,7.4,2.6,7.4,6c0,3.3-2.1,6.5-8.5,6.5c-2,0-4.9-0.5-6.3-1.1v-2.5c1.3,0.5,3.3,1,6.3,1
		c4.4,0,5.6-1.9,5.6-3.8c0-1.9-0.6-3.3-4.8-3.6c-6.1-0.5-7.4-2.7-7.4-5.6c0-3,1.9-6.3,7.9-6.3c2,0,4.2,0.3,6.1,1.1v2.5
		c-1.6-0.5-3.3-1-6.1-1c-4.2,0-5.1,1.6-5.1,3.6C628,240.2,628.7,241.1,632.8,241.5z"/>
	<path class="st42" d="M776.2,241.5c6,0.5,7.4,2.6,7.4,6c0,3.3-2.1,6.5-8.5,6.5c-2,0-4.9-0.5-6.3-1.1v-2.5c1.3,0.5,3.3,1,6.3,1
		c4.4,0,5.6-1.9,5.6-3.8c0-1.9-0.6-3.3-4.8-3.6c-6.1-0.5-7.4-2.7-7.4-5.6c0-3,1.9-6.3,7.9-6.3c2,0,4.2,0.3,6.1,1.1v2.5
		c-1.6-0.5-3.3-1-6.1-1c-4.2,0-5.1,1.6-5.1,3.6C771.3,240.2,772.1,241.1,776.2,241.5z"/>
	<path class="st42" d="M665.7,238.4h-14V251h15.5v2.7h-18.4v-31.7h18.4v2.7h-15.5v11.2h14V238.4z"/>
	<path class="st42" d="M671.4,253.6l7.8-10.9l-7.4-10.3h3.5l5.6,8.3l5.6-8.3h3.5l-7.4,10.3l7.8,10.9h-3.5l-6-8.9l-6,8.9H671.4z"/>
	<path class="st42" d="M697.8,252.3v11.9h-3v-31.7h1.6l0.6,1.7c2.2-1.4,4.3-2.2,6.6-2.2c6.8,0,8.7,4.9,8.7,11c0,6.1-1.9,11-8.7,11
		C701.8,254,699.6,253.5,697.8,252.3z M709.4,243c0-4.2-0.6-8.4-5.7-8.4c-2.7,0-4.3,0.5-5.9,1.4v14c1.6,0.9,3.2,1.4,5.9,1.4
		C708.8,251.4,709.4,247.2,709.4,243z"/>
	<path class="st42" d="M725.1,232.1c7.2,0,8,4.9,8,11v1.4h-13.9c0.2,3.7,1.1,7,5.9,7c3,0,4.9-0.3,7-1.2v2.5c-2.4,1.1-4.9,1.3-7,1.3
		c-7.1,0-8.9-4.9-8.9-11C716.2,237,717.9,232.1,725.1,232.1z M719.2,242h11c0-3.8-0.2-7.3-5.1-7.3
		C720.2,234.7,719.3,238.2,719.2,242z"/>
	<path class="st42" d="M749.8,235c-0.6-0.2-1.5-0.3-2.5-0.3c-2.9,0-4.6,0.5-6.1,1.4v17.6h-3v-21.1h1.6l0.6,1.8
		c2-1.5,4.4-2.2,6.8-2.2c1,0,1.7,0.1,2.5,0.2V235z"/>
	<path class="st42" d="M765.2,253.9c-0.5,0.1-1.4,0.2-1.9,0.2c-3.5,0-6.8-1.6-6.8-5.7v-13.5h-4.2v-1.3l4.2-1.2v-5.7l3-0.8v6.8h6.6
		v2.3h-6.6V248c0,2.6,1.4,3.6,4.1,3.6c0.5,0,1.1,0,1.6-0.1V253.9z"/>
</g>
</svg>
