<?xml version="1.0" encoding="utf-8"?>
<!-- Generator: Adobe Illustrator 23.0.0, SVG Export Plug-In . SVG Version: 6.00 Build 0)  -->
<svg version="1.1" id="f2557a61-56ef-4ee7-9811-4cdcc73688e4"
	 xmlns="http://www.w3.org/2000/svg" xmlns:xlink="http://www.w3.org/1999/xlink" x="0px" y="0px" viewBox="0 0 1121.8 699.1"
	 style="enable-background:new 0 0 1121.8 699.1;" xml:space="preserve">
<style type="text/css">
	.st0{fill:#3F3D56;}
	.st1{fill:#FF6584;}
	.st2{fill:#F2F2F2;}
	.st3{opacity:0.1;enable-background:new    ;}
	.st4{fill:#FFB9B9;}
	.st5{fill:#2F2E41;}
	.st6{fill:#6C63FF;}
	.st7{opacity:0.8;fill:none;stroke:#6C63FF;stroke-width:2;stroke-miterlimit:10;enable-background:new    ;}
	.st8{fill-rule:evenodd;clip-rule:evenodd;fill:#EA4334;}
	.st9{fill-rule:evenodd;clip-rule:evenodd;fill:#4285F4;}
	.st10{fill-rule:evenodd;clip-rule:evenodd;fill:#FCBC05;}
	.st11{fill-rule:evenodd;clip-rule:evenodd;fill:#0D9D58;}
</style>
<title>creative team</title>
<ellipse class="st0" cx="231" cy="562" rx="85.9" ry="4.3"/>
<ellipse class="st0" cx="902.9" cy="671.1" rx="159.9" ry="8.1"/>
<g>
	<circle class="st1" cx="385.2" cy="201.2" r="97"/>
	<circle class="st2" cx="570.9" cy="368" r="254"/>
	<ellipse class="st0" cx="560.9" cy="624.5" rx="279" ry="16.5"/>
	<ellipse class="st3" cx="504.9" cy="625.1" rx="209" ry="11.4"/>
	<rect x="333.9" y="433" class="st0" width="320" height="190"/>
	<path class="st4" d="M722.4,446.5c0,0,42,19,27,41s-60,64-61,73s-7,17-7,17s-20-21-18-23s22-21,23-26s31-44,31-44l-27-24
		L722.4,446.5z"/>
	<path class="st3" d="M722.4,446.5c0,0,42,19,27,41s-60,64-61,73s-7,17-7,17s-20-21-18-23s22-21,23-26s31-44,31-44l-27-24
		L722.4,446.5z"/>
	<path class="st4" d="M669.4,488.5c0,0,29,12,27,31s35,73,35,73s4,13,3,17s26,3,26,3v-9c0,0-21-36-23-46s-14-49-14-49s-4-35-24-35
		C687.6,473.5,676.5,479.1,669.4,488.5z"/>
	<path class="st5" d="M670.9,398c0,0,60,49,58,53s-31,19-36,20s-40.4-73-40.4-73H670.9z"/>
	<path class="st3" d="M670.9,398c0,0,60,49,58,53s-31,19-36,20s-40.4-73-40.4-73H670.9z"/>
	<path class="st5" d="M605.9,408c0,0-6,27,10,38s43,54,46,54s46-23,44-27s-24-39-24-39l-7-37C674.9,397,613.9,395,605.9,408z"/>
	<path class="st4" d="M670.9,320l9,58l16,41c0,0,24,25,10,27s-22-27-22-27l-13-24L670.9,320z"/>
	<path class="st3" d="M670.9,320l9,58l16,41c0,0,24,25,10,27s-22-27-22-27l-13-24L670.9,320z"/>
	<path class="st4" d="M637.4,255.5c0,0,0,21-7,23s28,29,28,29s-4-35,10-44L637.4,255.5z"/>
	<path class="st3" d="M637.4,255.5c0,0,0,21-7,23s28,29,28,29s-4-35,10-44L637.4,255.5z"/>
	<circle class="st4" cx="653.4" cy="249.5" r="23"/>
	<path class="st6" d="M654.4,297.5c0,0-21-26-24-25s-25,23-27,30s-6,57-3,67s3,36,2,38s-7,7-1,7s27-15,41-12s33-1,34-3s-1-54,0-58
		s-2-24-3-28s-1-20-11-24l-4.3-0.4l-0.2,9.9L654.4,297.5z"/>
	<path class="st4" d="M610.4,349.5c0,0,2,31,17,44s47,35,49,39s21,25,25,16c1.2-2.8,1.4-5.9,0.8-8.9c-1.2-6-4.8-11.2-9.9-14.4
		l-8.9-5.7l-44-46l-2-24H610.4z"/>
	<path class="st5" d="M667.9,551c0,0-11.5-2.5-15.5,4.5s4,26,4,26s23,48,27,42s-3-28-3-28s10-22,6-23S667.9,563,667.9,551z"/>
	<path class="st5" d="M738.4,608.5c0,0-6-3-7,0s-7,18,0,20s76,4,74,0s-13-9-20-11s-25-17-25-17S750.4,613.5,738.4,608.5z"/>
	<path class="st5" d="M676.6,231.2c-0.4-1.5-1.4-2.7-2.7-3.5c0.1-1.6-0.1-3.1-0.6-4.6c-1.5-4.3-5-4.1-8.2-6
		c-1.4-0.8-1.3-1.6-2.1-2.9c-1-1.8-2.4-3.3-4.2-4.3c-2.1-1.3-4.3-2.7-6.8-2.9c-5.2-0.4-9.3,4.6-14.3,6.2c-2.2,0.7-4.6,0.7-6.8,1.4
		s-4.4,2.2-4.8,4.5c-0.2,1.1,0.1,2.1,0,3.2c-0.3,2.1-2.2,3.6-3.4,5.3c-2.7,3.8-2.4,9.2-0.2,13.4c0.5,0.9,1,1.7,1.6,2.5
		c0.2,2,0.7,3.9,1.7,5.6c2.2,4.2,5.9,7.3,9.9,9.8c-0.3-1.4-0.5-2.8-0.6-4.2c-0.1-0.5,0-0.9,0.2-1.4c0.4-0.9,1.6-1.2,2.5-1.7
		c1.8-1,2.5-3.3,2.6-5.4s-0.4-4.2-0.2-6.3c0-1,0.4-1.9,1.2-2.5c0.7-0.4,1.4-0.6,2.2-0.5c3.7-0.2,7.6-0.2,10.9-2
		c1.1-0.7,2.2-1.3,3.4-1.7c2.8-0.7,5.7,1.2,7.3,3.6s2.4,5.3,3.9,7.7s4.1,4.7,6.9,4.4c0.3,0,0.6-0.1,0.9-0.4c0.1-0.2,0.2-0.5,0.2-0.7
		l0.2-11C677.3,235,677.1,233.1,676.6,231.2z"/>
	<path class="st6" d="M619.4,298.5c0,0,22,10,21,31s6,23-11,25s-21,0-22,2s-7-46-3-51S619.4,298.5,619.4,298.5z"/>
	<g>
		<path class="st2" d="M565.4,520.1c-19.7-27.4-61.3-38.5-102.2-26.5c-21.6,6.3-42.5,19-52.8,43.6C391.9,581,430.7,595,456,599.5
			c12.3,2.2,23.8,5.8,34.4,10.7c19,8.9,52.6,16.8,77.9-20.3C586.7,563.1,578.5,538.4,565.4,520.1z"/>
		<path class="st0" d="M451.2,525.5c-0.1-0.4-0.2-0.9-0.3-1.3c0-0.2-0.1-0.3-0.3-0.4c-0.1,0-0.2,0-0.3,0l-1.5,0.2
			c-0.1,0-0.2,0.1-0.3,0.1c-0.2,0.2,0,0.5,0,0.8c0,0.3-0.3,0.6-0.6,0.7c-0.3,0.1-0.6,0.1-0.9,0l-2.1-0.3c0.6-0.2,1.2-0.6,1.6-1
			c0.3-0.3,0.4-0.9,0-1.1c-0.1,0-0.2,0-0.4,0c-0.9,0-1.7-0.8-2.6-1.1c-1.2-0.4-2.4,0-3.2,1l1.1,0.1c0.1,0,0.2,0,0.3,0.1
			c0.2,0.2-0.1,0.6,0,0.9c0,0.4,0.6,0.5,1,0.5c0.4,0,0.9,0.4,0.7,0.7c-2,0.7-4.1-1.4-6.3-1.1c-0.5,0.1-1.1,0.3-1.6,0.4
			c-3.2,0.8-6.6-1.4-9.9-0.9c-0.7,0.1-1.5,0.3-2.2,0.6c-0.4,0.1-0.9,0.3-1.2,0.7c-0.3,0.3-0.5,0.9-0.1,1.3c-0.9,0.1-1.7,0-2.5-0.2
			c0.5,0.3,0.7,0.7,0.7,1.3c-1.3,0.2-2.6,0.6-3.9,1.2c0.2,0.4,0.5,0.7,0.8,1.1l-1.7,1.1c0.6,0.1,0.9,0.9,0.5,1.4
			c0.6-0.3,1-0.9,1.6-1.1c0.4-0.1,0.8,0.1,1.2,0.2c0.4,0.2,0.8,0.3,1.2,0.2c0.4-0.1,0.7-0.6,0.4-1c1.7-0.5,3.5-0.8,5.3-0.8
			c0.1,0,0.3,0,0.4,0.1c0.2,0.2,0.2,0.5,0.2,0.8s0.2,0.7,0.5,0.5c-0.3,0.3,0,0.8,0.2,1s0.6,0.7,0.5,1c0,0.1-0.1,0.2-0.2,0.3
			c-0.1,0.3,0.1,0.6,0.3,0.8c0.2,0.2,0.5,0.3,0.7,0.6c0.2,0.3,0.1,0.7-0.2,0.7l-0.9-1.1c-0.3,0.3-0.5,0.7-0.6,1.1
			c0.9,0.8,1.1,2.3,0.3,3.2c-0.4,0.5-1,0.7-1.4,1.1s-0.9,0.9-0.9,1.5c0,1-0.1,2,0.3,3c0.7,1.8,1.6,3.5,2.5,5.2
			c0.2,0.4,0.6,0.9,1.1,1c-0.6-1.5-1.2-3.1-1.7-4.7c0.3,0,0.7,0,0.9,0.3c0.2,0.2,0.1,0.5,0.2,0.8c0.1,0.3,0.2,0.5,0.3,0.7l3,5.4
			c0.3,0.4,0.5,0.9,1,1.1c0.3,0.1,0.7,0.1,0.9,0.3c0.2,0.1,0.4,0.4,0.6,0.5c0.6,0.3,1.5-0.3,2.1,0.1c0.2,0.1,0.3,0.3,0.4,0.4
			c0.6,0.5,1.5,0.2,2.1,0.5c0.4,0.2,0.6,0.7,0.8,1.1c0.5,1,1.4,2.1,2.6,2.1c0.4,0,0.7,0,1.1,0c0.4,0.1,0.7,0.4,0.7,0.8
			c-0.1,0.6,0.2,1.3,0.1,1.9c-0.2,1.1-1.8,1.6-1.9,2.8c0,0.3,0,0.5,0,0.8c-0.1,0.3-0.3,0.5-0.4,0.8c-0.2,0.6,0.3,1.1,0.7,1.5
			c0.4,0.4,1,0.7,1.2,1.2c0.3,0.6,0.1,1.2,0.2,1.8c0.2,1.3,1.3,2.3,2.5,3c0.4,0.2,0.8,0.4,1,0.7c0.3,0.4,0.3,1,0.4,1.6
			c0.3,1.3,1.3,2.4,1.4,3.7c0,0.9-0.5,1.8-0.8,2.7c-0.6,1.7-0.4,3.6,0.5,5.2c0.2,0.4,0.5,0.8,0.7,1.2c0.3,0.8,0.2,1.6,0.5,2.4
			c0.4,1,1.3,1.9,1.2,2.9c0.4,0.9,1.4,1.4,2.4,1.7l1.8,0.5c0.3,0.1,0.7,0.2,1,0.1c0.3-0.1,0.7-0.4,0.7-0.7c-0.9-0.2-1.8-0.4-2.5-0.9
			c-0.7-0.5-1.2-1.5-0.9-2.3c0.1-0.4,0.4-0.9,0.1-1.2c-0.1-0.2-0.4-0.2-0.6-0.4c-0.3-0.3-0.2-0.7,0-1s0.5-0.6,0.5-1
			c0.1-0.4-0.1-0.8-0.5-1.1c0.3-0.1,0.6-0.3,0.9-0.6c0.2-0.3,0.3-0.7,0.2-1c0.5,0.1,1.2,0.1,1.5-0.3c0.3-0.3,0.3-0.8,0.2-1.2
			s-0.3-0.8-0.3-1.3c1.2,0.1,2.5,0,3.7-0.1c-0.2-0.6-0.6-1.1-1.1-1.4c0.6-0.1,1.1-0.8,1.3-1.3c0.2-0.5,0.1-1.1,0-1.7
			c0-0.1,0-0.3,0-0.4c0.1-0.2,0.3-0.3,0.4-0.4l2.8-1.6c0.2-0.1,0.3-0.2,0.4-0.3c0.3-0.3,0.2-0.9,0.1-1.3c-0.1-0.4-0.4-0.8-0.4-1.3
			c-0.2-1.3,1.3-2.3,1.7-3.6c0.2-0.5,0.2-1,0.3-1.6c0-0.6,0-1.2-0.4-1.6c-0.4-0.4-1.1-0.3-1.5-0.6c-0.4-0.3-0.5-0.9-1-1.1
			c-0.4-0.2-0.9-0.1-1.3-0.2c-0.8-0.2-1.3-1.1-2.1-1.2c-0.4,0-1,0.2-1.3-0.1c-0.3-0.2-0.3-0.7-0.4-1.1c-0.2-1.2-1.2-2.2-2.4-2.5
			c-0.5-0.1-1,0-1.4-0.3c-0.4-0.3-0.6-0.7-0.9-1.1c-0.5-0.6-1.3-0.8-2-1l-3-0.7c-0.5-0.1-1.2-0.2-1.5,0.3c-0.1,0.2-0.1,0.4-0.2,0.6
			c-0.2,0.7-0.9,1.2-1.6,1.2c-0.3-0.4-0.7-0.7-1.1-0.9c-0.3-0.1-0.6-0.1-0.9-0.2c-0.6-0.3-0.9-1.1-0.6-1.7c0,0,0,0,0-0.1
			c0.4-0.6,0.2-1.4-0.3-1.9c-0.5-0.5-1.3-0.6-1.9-0.5c-0.2-0.4,0.1-0.8,0.4-1.1c0.3-0.3,0.7-0.6,0.8-1c0.1-0.7-0.7-1.2-1.4-1
			c-0.7,0.2-1.1,0.8-1.3,1.5c-0.2,0.4-0.3,0.7-0.5,1c-0.2,0.3-0.6,0.5-1,0.4c-0.5-0.1-0.7-0.8-0.9-1.3c-0.2-0.7-0.3-1.5-0.3-2.2
			c0-0.7,0.3-1.5,0.8-2c0.9-0.8,2.3-0.7,3.5-0.6c-0.3-0.3-0.2-0.9,0.1-1.2c0.3-0.3,0.8-0.4,1.2-0.3c0.4,0.1,0.7,0.3,0.9,0.6
			c0.3,0.4,0.4,1,0.7,1.5c0.3,0.5,0.8,0.9,1.3,0.6c0.4-0.2,0.5-0.8,0.4-1.2c-0.1-0.5-0.3-0.9-0.3-1.4c0.1-0.9,1-1.4,1.8-1.8
			c0.8-0.4,1.7-0.9,1.9-1.7c0-0.2,0-0.3,0.1-0.5c0.1-0.1,0.2-0.3,0.4-0.3c2.4-1.6,4.8-3.1,7.5-4c0.1,0,0.2,0,0.3,0
			c0.2-0.1,0.1-0.4-0.1-0.6s-0.4-0.2-0.5-0.5c0-0.2,0.1-0.3,0.1-0.5c0.1-0.4-0.4-0.8-0.8-0.6c-0.2-0.3,0.2-0.6,0.6-0.7
			c1-0.3,2.1-0.5,3.2-0.5c0.1,0,0.3,0,0.4,0.1c0.2,0.1,0.2,0.4,0,0.6c-0.1,0.2-0.3,0.3-0.5,0.4c-0.4,0.3-0.5,0.9-0.3,1.3
			c0.6,0.3,1.2,0.6,1.8,0.5c0.6-0.1,1.2-0.8,0.9-1.4c-0.3-0.5-1.1-0.6-1.2-1.2c-0.2-0.7,0.8-1.3,0.6-1.9c-0.1-0.3-0.4-0.5-0.6-0.7
			c-0.5-0.5-0.7-1.3-0.4-2c-0.7,0.1-1.5-0.1-2-0.6c-0.5-0.5-0.9-1.2-1.5-1.2c-0.6,0-1.2,0.7-1.7,0.5c-0.1-0.1-0.3-0.2-0.4-0.1
			c-0.1,0.1-0.2,0.2-0.2,0.3c-0.1,0.7,0.1,1.5-0.3,2.1c-0.4,0.7-1.4,0.8-1.9,1.4c-0.3,0.3-0.4,0.8-0.6,1.1c-0.3,0.3-0.8,0.6-1.1,0.3
			c0.3-0.6,0.1-1.4-0.4-1.8c-0.3-0.2-0.6-0.3-0.9-0.4c-0.4-0.2-0.7-0.3-1-0.6c-0.2-0.1-0.3-0.2-0.4-0.4c-0.1-0.2-0.1-0.4,0-0.6
			c0.3-0.9,1.1-1.6,2-1.7c0.4-0.1,0.9,0,1.1-0.3c0.1-0.2,0.2-0.4,0.4-0.5c0.1,0,0.3,0,0.4,0l1.5,0.5c0.2,0.1,0.4,0.1,0.5,0.1
			c0.2,0,0.3-0.2,0.3-0.4c0-0.3-0.4-0.4-0.4-0.6c0-0.1,0.1-0.2,0.1-0.2c1.1-1.2,2.7-1.8,4.3-1.7c0.2,0.3-0.1,0.7-0.4,1
			s-0.5,0.7-0.1,1c0.1,0.1,0.3,0.1,0.4,0.1c0.4,0.1,0.7,0.2,1.1,0.3c0.5,0.2,1,0.5,1.5,0.7c0-0.3-0.1-0.7,0-1
			c0.1-0.3,0.5-0.6,0.8-0.4c0.3,0.1,0.5,0.5,0.8,0.5c0.4,0,0.6-0.6,0.4-1c-0.2-0.4-0.5-0.7-0.6-1.1c0-0.3,0.1-0.6-0.1-0.8
			c-0.1-0.1-0.2-0.1-0.3-0.1l-5.8-1.1c-0.3-0.1-0.8,0-0.9,0.3c0,0.2,0.2,0.4,0.1,0.6c-0.1,0.2-0.4,0.2-0.5,0.2
			c-0.3,0.1-0.5,0.5-0.4,0.8c0.1,0.3,0.2,0.6,0.4,0.9C452.1,525.7,451.6,525.7,451.2,525.5z"/>
		<path class="st0" d="M446.6,520.6c-0.7-0.2-1.6,0-2,0.6c-0.1,0.1-0.2,0.3-0.1,0.4c0.1,0.2,0.4,0.1,0.6,0c0.3-0.1,0.7-0.1,1,0
			c0.2,0.1,0.4,0.2,0.6,0.3c0.2,0.1,0.4,0.1,0.6-0.1c0.1-0.1,0.1-0.4,0.1-0.6c0-0.1,0-0.3-0.1-0.4c-0.1,0-0.2-0.1-0.3-0.1
			c-0.2,0-0.4-0.1-0.5-0.3"/>
		<path class="st0" d="M448.7,520.1c-0.3,0-0.5,0.2-0.5,0.4c0,0.1,0,0.2,0,0.2c0.2,0.1,0.5,0.1,0.8,0c0.3,0,0.5-0.2,0.5-0.5
			C449.2,520.3,448.9,520.3,448.7,520.1"/>
		<path class="st0" d="M455.7,519.1c-0.7,0.1-1.3,0.4-2,0.7c0.6,0.2,1,0.8,0.9,1.5c0,0.1,0,0.2,0,0.4c0.1,0.2,0.3,0.2,0.5,0.3
			c0.3,0.1,0.7,0.1,1,0.1c0.4,0,0.7-0.2,0.8-0.5c0.1-0.1,0.1-0.3,0.2-0.4c0.4-0.7,1.8,0.1,2.2-0.5c0.2-0.2,0.2-0.6,0.4-0.8
			c0.1-0.1,0.2-0.1,0.4-0.1c1-0.2,1.9-0.3,2.9-0.4c0.5,0,1.1-0.2,1.1-0.7c-1.7-0.3-3.5-0.1-5.1,0.7c-0.6,0.3-1.3,0.9-1.9,0.5
			c-0.2-0.1-0.2-0.5-0.5-0.7C456.3,519,456,519,455.7,519.1z"/>
		<path class="st0" d="M461.3,520.1l0.8,0.2c-0.6,0-1.1,0.4-1.1,1c0,0,0,0.1,0,0.1c0.8,0.3,1.6,0,2.4,0c0.8,0,1.7,0.6,1.6,1.4
			c0,0.2-0.2,0.5-0.1,0.7c0.1,0.2,0.2,0.3,0.3,0.4c0.2,0.3,0,0.7-0.2,1c-0.2,0.3-0.5,0.5-0.7,0.8c-0.5,0.7-0.2,1.7,0.1,2.5
			c0.1,0.3,0.2,0.6,0.4,0.9c0.4,0.4,1.1,0.5,1.7,0.5c0.4,0,0.9,0,1.2-0.4c0.4-0.4,0.1-1.1,0.3-1.6c0.2-0.5,0.8-0.7,1.3-0.8
			c0.9-0.3,1.8-0.5,2.7-0.9c1.1-0.5,2.1-1.3,3.2-1.3c0.3,0,0.7,0,1-0.1c0.3-0.1,0.6-0.4,0.6-0.7c0-0.3-0.3-0.5-0.4-0.7
			s-0.3-0.5-0.2-0.8l3.1-0.6c-0.2-0.6-0.4-1.4,0.1-1.8c0.2-0.1,0.4-0.2,0.6-0.4c0.3-0.3,0.1-0.8-0.2-1c-0.3-0.2-0.7-0.3-1.1-0.3
			c-1.3-0.1-2.7,0-4,0c-2.6,0.1-5.3,0.3-7.9,0.4c-0.5,0-1.1,0-1.6,0.2c-0.4,0.2-0.7,0.4-1.2,0.5C463,519.8,462.1,519.7,461.3,520.1z
			"/>
		<path class="st0" d="M475.8,526.5c-0.1,0-0.2,0-0.2,0.1c0,0.1-0.1,0.1-0.1,0.2c-0.1,0.3,0,0.6,0.2,0.9c0.2,0.3,0.5,0.4,0.8,0.4
			c0.4,0,0.6-0.4,1-0.5c0.5-0.2,2.7-0.6,1.2-1.4c-0.5-0.3-0.9,0-1.3,0.2C476.9,526.5,476.3,526.6,475.8,526.5z"/>
		<path class="st0" d="M489.1,519.7c-0.2,0.1-0.3,0.2-0.4,0.4c-0.1,0.2,0,0.4,0.1,0.5c0.1,0,0.1,0,0.2,0l0.7,0
			c0.3,0,0.7,0.1,0.8,0.4c0.1,0.2-0.1,0.5,0.1,0.7c0.1,0.1,0.2,0.1,0.2,0.1c0.2,0.1,0.5,0.1,0.7,0c0.5-0.1,0.2-0.5,0.4-0.7
			c0.3-0.4,0.2-0.2,0.7-0.4c0.3-0.2,0.8-0.5,0.5-1C492.7,518.8,489.8,519.3,489.1,519.7z"/>
		<path class="st0" d="M503.4,519.3l-0.4,0.1c-0.9,0.1-1.9,0.3-2.8,0.5c0.4,0.2,0.8,0.3,1.2,0.3c0.2,0,0.5,0,0.7,0.1
			c0.4,0.1,0.8,0.4,1.2,0.3c0.2-0.1,0.3-0.3,0.5-0.5c0.1-0.1,0.7-0.2,0.7-0.3C505,519,503.7,519.2,503.4,519.3z"/>
		<path class="st0" d="M505.2,521.2c-0.6,0.3-1.1,0.7-1.5,1.1c-0.2,0.2-0.4,0.4-0.4,0.7c0,0.4,0.4,0.6,0.7,0.7l1.3,0.6
			c0.2-0.2,0-0.5-0.2-0.8s-0.4-0.5-0.3-0.8c0.1-0.3,0.5-0.4,0.8-0.5c0.5-0.1,1.9-0.1,1.7-0.9C507.2,520.4,505.7,520.9,505.2,521.2z"
			/>
		<path class="st0" d="M504.9,576.5c-0.1,0.4-0.1,0.8,0.1,1.1c0.2,0.4,0.7,0.5,1.2,0.4c0.4-0.1,0.8-0.4,1.1-0.7
			c0.3-0.3,0.5-0.6,0.6-1c0.2-0.5,0.4-1.1,0.5-1.7l0.4-2.2c0.1-0.5,0.1-2-0.8-1.5c-0.2,0.1-0.8,1.2-1.1,1.5
			c-0.5,0.5-0.5,1.1-0.8,1.7C505.8,575,505.2,575.7,504.9,576.5z"/>
		<path class="st0" d="M552.3,587.6c-0.3-0.1-0.6-0.3-0.9-0.4c-0.3,0.8-0.4,1.6-0.4,2.4l2-1.1c0.3-0.2,0.6-0.4,0.6-0.8
			c0-0.1,0-0.2-0.1-0.2c0,0-0.1,0-0.1,0c-0.3,0-0.6,0.2-0.8,0.3c-0.3,0.1-0.6,0.2-0.9,0"/>
		<path class="st0" d="M562.9,588.3c-0.2,0.1-0.4,0.1-0.6,0.2c-0.5,0.2-0.8,0.7-1.2,1c-0.4,0.3-0.9,0.5-1.3,0.6
			c-0.1,0.1-0.1,0.4,0.1,0.5c0.2,0.1,0.3,0.1,0.5,0.1c0.5,0,1,0,1.4-0.2c0.2-0.2,0.5-0.3,0.7-0.5c0.5-0.4,1.1-0.7,1.7-1
			c0.2-0.1,0.4-0.2,0.6-0.4c0.4-0.4,0.4-0.9-0.1-1.1C564.1,587.5,563.3,588.2,562.9,588.3z"/>
		<path class="st0" d="M567.6,585.3c0-0.5-0.1-1-0.5-1.4c0,0.5,0,1-0.3,1.5c-0.2,0.3-0.5,0.5-0.7,0.8c-0.2,0.3-0.3,0.7-0.1,1
			c0.2,0.1,0.4,0.2,0.6,0.2c0.5,0.1,1.1,0.1,1.5-0.3c0.2-0.2,0.3-0.5,0.5-0.7c0.1,0,0.2-0.1,0.2-0.2c0.1-0.2-0.1-0.4-0.2-0.4
			c-0.2-0.1-0.4,0-0.6-0.1c-0.2-0.1-0.3-0.3-0.3-0.4"/>
		<path class="st0" d="M559.2,566.7c-0.3,0.1-0.6,0.1-0.8,0c-0.5-0.1-0.8-0.4-1.2-0.7c-0.9-0.7-2-1-3.1-1.1c-1,0-2,0.3-3,0.1
			c0.1,0.4,0.4,0.6,0.7,0.8c0.3,0.2,0.7,0.2,1,0.4c0.5,0.3,1,0.7,1.2,1.2c0.1,0.2,0.2,0.5,0.3,0.7c0.3,0.4,1,0.5,1.5,0.5
			c0.7,0,1.5-0.3,2.1,0c0.5,0.2,0.9,0.7,1.3,1c0.4,0.3,1,0.6,1.5,0.4c-1-0.3-1.8-1.3-1.7-2.4c0.5,0,1.9,0,1.8-0.8
			C560.8,566.2,559.7,566.7,559.2,566.7z"/>
		<path class="st0" d="M552.9,572.4c0.1-0.5,0.6-0.9,0.4-1.3c-0.1-0.3-0.5-0.5-0.8-0.5c-0.3,0-0.7,0.1-1,0.1c-0.2,0-0.4,0-0.6,0
			c-0.7,0.1-1.1,0.8-1.7,1c-0.4,0.1-0.8,0.1-1.2,0.2c-0.9,0.2-1.4,1.1-2.1,1.7c-1,1.1-2.3,1.8-3.7,2.2c-0.5,0.1-1,0.2-1.4,0.5
			c-0.5,0.4-0.7,1.2-0.8,1.9c-0.3,1.9-0.8,3.7-1.5,5.5l2.1,0.3c0.4,0.1,0.8,0.1,1.2,0c0.3-0.1,0.5-0.2,0.8-0.4c0.9-0.6,2-1,3.1-1.1
			c0.6-0.1,1.1-0.1,1.6,0.1s1,0.7,1,1.2c0.5-0.1,1,0,1.3,0.3c0.3,0.3,0.5,0.8,0.6,1.2c0.1,0.3,0.1,0.6,0.4,0.8c0.2,0.1,0.5,0,0.7,0
			c0.8-0.1,1.5,0.9,2.3,0.7c0.9-0.2,1.1-1.5,1.9-1.7c0.5-0.1,1.1,0,1.4-0.4c0.2-0.4-0.2-0.8-0.2-1.3c0.1-0.5,0.7-0.8,1.2-1
			c1.7-0.8,2.5-3.1,1.7-4.8c-0.5-1-1.4-1.8-1.6-2.9c-0.1-0.8,0.2-1.8-0.3-2.5c-0.3-0.3-0.7-0.5-0.9-0.9c-0.1-0.3-0.1-0.5-0.1-0.8
			c-0.1-0.3-0.3-0.5-0.6-0.5c-0.8,0.2-1,2.6-1.4,3.1C554,574,552.7,573.5,552.9,572.4z"/>
		<path class="st0" d="M538.8,567.6c-0.3-0.1-0.5-0.1-0.8,0c-0.3,0.1-0.4,0.5-0.2,0.7c1.6-0.1,3.2-0.1,4.7,0.1
			c1.8,0.2,3.6,0.9,5.4,0.7c-1-0.3-2.1-0.5-3.1-0.7l-1.8-0.3c-0.5-0.1-1-0.2-1.4-0.2C540.5,567.6,539.8,567.9,538.8,567.6z"/>
		<path class="st0" d="M540.3,562.1c-0.1,0-0.3,0-0.4,0.1c-0.1,0.1,0,0.2,0,0.4c0,0.2-0.3,0.2-0.4,0.2s-0.4-0.1-0.5,0
			c-0.2,0.1-0.2,0.3-0.2,0.5c0.1,0.2,0.2,0.3,0.3,0.5c0.2,0.3,0.5,0.5,0.8,0.8c0.5,0.4,1.3,0.6,1.6,1.2c0,0.1,0.1,0.2,0.2,0.3
			c0.2,0.1,0.4,0,0.6-0.1l0.6-0.3c0.1,0,0.2-0.1,0.3-0.2c0.1-0.2,0.1-0.5-0.1-0.7c-0.1-0.2-0.3-0.4-0.2-0.7c0-0.4,0.6-0.6,0.8-0.9
			c0.2-0.4,0.1-0.8,0.1-1.3c0-0.5,0.3-1.1-0.2-1.5c-0.4-0.3-0.8,0-1.1,0.3C541.8,561.4,541.5,562.2,540.3,562.1z"/>
		<path class="st0" d="M544.1,554.7c0.2,0.4,0.7,0.6,0.9,1c0.2,0.4,0.2,1,0.5,1.4c0.3,0.4,0.8,0.6,1,1.1c0.2,0.5-0.2,1.2,0.1,1.6
			c0.2,0.3,0.7,0.4,1,0.1c0,0,0,0,0,0c0.3-0.3,0.3-0.7,0-1c-0.2-0.2-0.4-0.2-0.6-0.4c-0.1-0.1-0.1-0.2-0.2-0.4
			c-0.1-0.4-0.1-0.8,0-1.2c0-0.1,0.1-0.2,0-0.3c-0.1-0.2-0.3-0.2-0.5-0.3c-0.4-0.2-0.4-0.8-0.3-1.3c0,0.3-1.2-0.2-1.3-0.4
			c-0.2-0.4-0.1-1-0.2-1.4C544,553.5,543.8,554.2,544.1,554.7z"/>
		<path class="st0" d="M532.8,560.9c-0.2-0.2-0.5-0.5-0.8-0.3c-0.2,0.1-0.3,0.4-0.2,0.6c0.1,0.2,0.3,0.4,0.5,0.5
			c0.6,0.5,1.2,0.9,1.7,1.5c0.9,1,1.4,2.3,2.4,3.2c0.2,0.2,0.5,0.4,0.7,0.4c0.3,0,0.6-0.2,0.6-0.4c0-0.2-0.1-0.4-0.3-0.6
			c-0.4-0.4-0.8-0.8-1.2-1.2c-0.2-0.2-0.3-0.4-0.3-0.6c0-0.2,0.2-0.5,0.4-0.4c-0.3-0.1-0.5-0.5-0.9-0.6c-0.3-0.1-0.4,0.1-0.8,0
			C534,562.5,533.4,561.5,532.8,560.9z"/>
		<path class="st0" d="M550.8,538.4c-0.2-0.1-0.4-0.1-0.6-0.2c-0.6-0.2-1.3,0.2-1.2,0.8c0.1,0.4,0.4,0.7,0.6,1
			c0.3,0.5,0.2,1.1,0.1,1.7c0,0.2-0.1,0.3-0.2,0.5c-0.1,0.2-0.3,0.3-0.5,0.4c-0.8,0.4-1.4,1-2,1.7c-0.1,0.1-0.1,0.1-0.1,0.2
			c0,0.2,0.2,0.3,0.3,0.5c0.3,0.4,0.1,0.9,0.1,1.3c0,0.1,0.1,0.3,0.2,0.3c0.2,0.1,0.3-0.1,0.4-0.2c0.3-0.5,0.1-1.3,0.6-1.5
			c0.1,0,0.2-0.1,0.3-0.1c0.1-0.1,0-0.3,0.1-0.5c0.1-0.2,0.4-0.3,0.7-0.2c0.4,0,0.9,0,1.3-0.2c0.2,0,0.3-0.1,0.4-0.2
			c0.2-0.2,0.1-0.5,0.1-0.7c-0.2-1.2-0.5-2.4-1.1-3.4c0.4,0.1,0.9,0.1,1.3-0.1c0.2-0.1,0.5-0.5,0.4-0.8
			C551.5,538.1,551.2,538.5,550.8,538.4z"/>
		<path class="st0" d="M493.4,545c0.1,0.3,0.1,0.6,0,0.9c-0.1,0.3-0.4,0.5-0.7,0.4c-0.2-0.1-0.3-0.3-0.5-0.5
			c-0.9-0.9-2.8-0.4-3.3-1.5c-0.2-0.5-0.1-1-0.2-1.5c-0.2-0.6-0.8-1-1.4-0.9c-0.3,0-0.5,0.1-0.8,0.2c-1.7,0.7-3.4,1.1-5.2,1.3
			c-0.3,0-0.7,0.1-1,0.2c-0.7,0.3-1.2,0.9-1.6,1.6c-0.4,0.7-0.6,1.4-1.1,2.1c-0.5,0.6-1.2,1.1-1.9,1.6c-0.3,0.2-0.5,0.4-0.6,0.6
			c-0.1,0.3-0.1,0.6-0.1,1l0.1,4c0,0.5,0,1,0.3,1.5c0.3,0.6,0.8,0.9,1.2,1.4c0.4,0.5,0.6,1.2,0.6,1.8c0,0.3,0,0.6,0.2,0.7
			c0.1,0.1,0.3,0.1,0.4,0.1l5.4,0.4c0.9,0.1,2,0.2,2.6,0.9c0.3,0.3,0.5,0.8,1,0.9c0.2,0,0.4-0.1,0.6-0.1c0.5,0,0.9,0.3,1.2,0.7
			c0.4,0.6,0.6,1.3,0.5,2.1c0,0.5-0.2,0.9-0.2,1.4c-0.1,1.7,1.4,3.3,1.4,5c0,1-0.5,2-1,2.9c0.8,1.2,0.1,2.7,0.4,4.1
			c0.3,1.3,1.4,2.3,1.6,3.6c0.1,0.6,0.1,1.3,0.7,1.6c0.2,0.1,0.5,0.2,0.7,0.1c1.5,0,3.1-0.3,4.4-1c0.6-0.3,1.3-0.8,1.4-1.5
			c0.1-0.6-0.2-1.2,0.1-1.7c0.4-0.6,1.2-0.5,1.8-1c0.8-0.7,0.2-2.1,0.5-3.2c0.3-1,1.4-1.5,1.9-2.3c0.2-0.4,0.4-0.8,0.4-1.2
			c0.2-1,0.4-2,0.4-3c0-0.6,0.1-1.2,0.1-1.8c0.6-3.5,4-5.8,5.1-9.2c0.1-0.3,0.2-0.7-0.1-0.9c-0.2-0.1-0.4-0.1-0.5-0.1l-2.5,0.3
			c-0.3,0-0.6,0.1-0.9-0.1c-0.3-0.1-0.5-0.5-0.3-0.8c0.4-0.8-0.4-1.7-0.8-2.5c-1-2.1-2.3-4.1-3.7-5.9c-0.1-0.1-0.1-0.2-0.2-0.3
			l0.7,0c-0.2-0.8-0.6-1.8-1.5-2.1c-0.5-0.2-1-0.1-1.5-0.1C496.4,545.4,494.8,545.2,493.4,545z"/>
		<path class="st0" d="M497.8,525.9c0.4,0.4,0.8,0.8,1.3,0.9c0.9,0.1,1.6-0.9,2.1-1.7c0,0.5,0.4,0.8,0.9,0.8c0.2,0,0.5-0.1,0.7-0.3
			c1.9-1,4-1.6,6.1-1.6c0-0.3,0.2-0.7,0.5-0.7c0.4-0.1,0.8,0.3,1,0.7c0.2,0.4,0.3,0.8,0.7,1.1s1,0.3,1.1-0.1c0.1-0.4-0.3-0.8-0.7-1
			c-0.4-0.2-0.7-0.7-0.5-1c1.8-0.4,3.6-0.8,5.5-0.9c0.3,0,0.6,0,0.9-0.2c0.3-0.1,0.5-0.5,0.4-0.8c-0.8,0.2-1.7-0.1-2.2-0.8
			c2.6-0.2,5.3-0.4,7.5,0.8c0.3,0.6-1.1,1.1-0.7,1.6c0.1,0.2,0.4,0.2,0.6,0.2c1.6,0,3.2,0.1,4.7-0.2c0.6-0.1,1.1-0.2,1.7-0.1
			c1,0.1,1.8,0.8,2.7,1c0.4,0.1,0.8,0.1,1.1-0.1s0.5-0.7,0.2-1c0.9-0.9,2.3-0.6,3.5-0.2c1.2,0.4,2.3,1.1,3.5,1.2
			c0.9,0.1,1.8-0.2,2.6,0c0.5,0.1,1.1,0.3,1.6,0.5c1,0.3,2.1,0.2,3.1,0.2c2.7,0,5.3,0.6,7.8,1.6c0.3,0.1,0.6,0.3,0.9,0.5
			c0.2,0.2,0.4,0.6,0.2,0.9l-2.6-0.4c0.2,0.5,0.9,0.6,1.4,0.7c0.5,0.2,1,0.7,0.7,1.2c-0.6-0.2-1.1,0.4-1.3,0.9
			c-0.3,0.5-0.6,1.1-1.2,1.1c-0.5,0-1.1-0.4-1.5,0c0.5,0.6,0.9,1.2,1.2,1.9c0.3,0.7,0.6,1.6,0.1,2.2c-0.1,0.1-0.2,0.2-0.3,0.2
			c-0.4,0.1-0.6-0.4-0.9-0.6c-0.3-0.3-0.8-0.4-1.3-0.6c-0.5-0.2-0.9-0.5-1-1c0-0.3,0.1-0.6,0.3-0.8c0.2-0.5,0.3-1,0.2-1.5
			c0-0.4-0.1-0.8-0.4-1.1c-0.3-0.3-0.8-0.4-1.1-0.1c-0.1,0.1-0.3,0.3-0.4,0.3c-0.3,0-0.6-0.6-0.9-0.4c0,0.2,0,0.4-0.1,0.6
			c-0.8,0.7-2,0.4-3.1,0.6c-0.5,0.1-1,0.3-1.4,0.6c-0.2,0.1-0.3,0.2-0.4,0.3c-0.1,0.2,0,0.6,0.2,0.7c0.2,0.1,0.5,0.2,0.8,0.3
			c1.3,0.2,2.5,0.6,3.5,1.4c1,0.8,1.6,2.1,1.3,3.4l-2.5-2.4c0.1,1,0.1,2,0.2,3c0,0.2,0,0.4-0.1,0.6c-0.2,0.4-0.7,0.5-1.1,0.6
			c-0.5,0.1-0.8,0.5-0.7,1c0,0,0,0.1,0,0.1c0.1,0.5,0.5,0.9,0.9,1.2s0.7,0.8,0.7,1.3c0,0.5-0.3,1.1-0.8,1c-0.4,0-0.7-0.4-0.8-0.7
			s-0.3-0.7-0.5-1c-0.7-0.9-2.4-0.5-3.1-1.5c-0.3,0.4-0.5,0.9-0.3,1.4c0.3-0.2,0.7,0,1,0.3c0.2,0.3,0.3,0.6,0.5,1
			c0.2,0.4,0.6,0.8,0.7,1.3c0,0.2,0,0.4,0,0.6c0.1,0.3,0.3,0.5,0.5,0.8c0.4,0.6,0.4,1.4,0.1,2s-0.7,1.2-1.2,1.7
			c-0.8,0.9-1.6,1.9-2.6,2.6c-0.3,0.2-0.6,0.4-0.7,0.7c-0.2,0.3-0.2,0.7,0.1,1c-0.2,0-0.5,0.1-0.7,0.1c-0.1-0.8-0.1-1.5,0-2.3
			c-0.7-0.4-1.6,0.6-1.5,1.4c0.1,0.8,0.7,1.5,1.1,2.2c0.3,0.5,0.5,1.1,0.4,1.7c-0.1,0.6-0.6,1.1-1.2,1.1c-1-0.1-1.4-1.5-2.3-1.6
			c-0.1,0-0.2,0-0.3,0c-0.1,0.1-0.2,0.3-0.2,0.4c0,0.8-0.1,1.6,0.2,2.3c0.5,1.1,1.6,2,1.4,3.1c-1.3-0.6-2-2.1-2.3-3.5
			c-0.3-1.4-0.4-2.9-0.9-4.2c-0.4,0.5-1.3,0.1-1.7-0.5c-0.4-0.5-0.6-1.2-0.9-1.7c-0.4-0.5-0.9-1-1.5-1.1c-0.7,0-1.3,0.4-1.8,0.9
			c-0.4,0.4-0.9,0.7-1.1,1.2c-0.4,0.7-0.3,1.6-0.3,2.4c0,0.9-0.2,1.8-0.8,2.5s-1.7,0.9-2.4,0.3c-0.3-0.3-0.5-0.8-0.7-1.2
			c-0.7-2.1-1.3-4.2-1.8-6.4c-0.1,0.5-0.5,1.1-1,0.8c-0.1-0.1-0.2-0.2-0.2-0.3c-0.8-1.3-2.2-2.1-3.7-2.6c-1.5-0.5-3-0.7-4.4-1.2
			c-0.8-0.3-1.6-0.7-2.3-1.1c-0.4,0.5-0.4,1.3-0.1,1.8c0.3,0.6,1,0.9,1.7,0.7c0.3-0.1,0.6-0.3,0.9-0.4c0.3-0.1,0.7-0.1,0.9,0.2
			c0.1,0.3-0.1,0.6,0,0.9c0.2,0.5,0.9,0.5,1.1,0.9c0.2,0.3,0,0.7-0.2,1c-0.3,0.3-0.6,0.4-0.9,0.6c-1,0.6-1.8,1.5-2.7,2.3
			c-0.9,0.8-2.2,1.3-3.2,0.8c0.3-1.3-1.3-2.2-1.6-3.5c-0.1-0.4,0-0.9-0.2-1.3c-0.2-0.6-0.7-1-1.2-1.5c-1.1-1.1-1.6-2.6-1.6-4.2
			c0-0.5,0.1-1.1,0-1.6c-0.1-0.5-0.6-1-1.1-1c-1.2,0.1-2.7,0.1-3.4-0.9c-0.2-0.4-0.3-0.9,0-1.2c0.2-0.2,0.6-0.2,0.9-0.2l2.7,0.3
			c0.6,0.1,1.3,0.1,1.9-0.2c0.5-0.3,0.8-1.2,0.3-1.6c-0.4-0.3-1-0.3-1.1-0.7c-0.1-0.4,0.3-0.8,0.1-1.1c-0.2-0.2-0.5-0.2-0.8,0
			s-0.4,0.4-0.6,0.6c-0.4,0.2-1,0-1.4-0.1c-0.5-0.1-1.1-0.2-1.3,0.3c-0.3,0.5,0.2,1.1,0,1.6c-0.3,0.6-1.5,0.3-1.9,0.8
			c-0.5,0.6,0.4,1.6,0.2,2.4c-0.5,0.2-1,0.2-1.5-0.1c-0.4-0.3-0.7-0.8-0.6-1.3c0-0.4,0.2-0.7,0.1-1.1c-0.1-0.3-0.4-0.4-0.6-0.6
			l-2.7-1.5c-0.2,0.5,0.1,1,0.5,1.4c0.4,0.3,0.9,0.6,1.1,1.1c0.3,0.7,0.1,1.5-0.5,1.8c-0.1,0.1-0.2,0.1-0.3,0
			c-0.1-0.1-0.1-0.1-0.2-0.2c-0.5-1.2-1.2-2.4-2.3-3s-2.7-0.5-3.5,0.6c-0.2,0.3-0.3,0.5-0.4,0.8c-0.8,1.4-2.6,2.1-4.2,2
			c-0.2,0-0.3,0-0.5-0.1c-0.3-0.2-0.3-0.6-0.2-0.9l0.2-1.3c0-0.3,0.1-0.6,0.3-0.7c0.3-0.2,0.7-0.1,1.1-0.1c0.6,0,1.1-0.4,1.3-1
			c0.2-0.6,0-1.2-0.4-1.6c-0.2-0.2-0.4-0.4-0.3-0.6c0.1-0.1,0.2-0.2,0.3-0.2c0.7-0.2,1.4-0.3,2.1-0.5s1.3-0.7,1.5-1.4
			c0-0.2,0.1-0.5,0.3-0.6c0.1,0,0.2-0.1,0.3-0.1c0.8-0.1,1.3-0.8,1.3-1.5c0.3-0.2,0.8-0.1,1.1,0.2c0.3,0.2,0.6,0.6,1,0.7
			c0.7,0.2,1.4-0.4,2.1-0.4c0.3,0,0.6,0.1,0.9,0c0.3-0.1,0.5-0.4,0.7-0.6c0.2-0.2,0.6-0.4,0.8-0.1L494,530c0.7,0.2,1.5,0,2.1-0.4
			l-2.3-0.8c-0.1,0-0.2-0.1-0.2-0.1c-0.2-0.2,0-0.5,0.1-0.7c0.3-0.5,0.4-1.3-0.2-1.5c-0.4-0.2-0.8,0-1.1,0.2l-1.7,0.9
			c-0.1,0.3,0.3,0.5,0.6,0.7c0.4,0.4,0.4,1,0.1,1.4c-0.2,0.2-0.4,0.3-0.7,0.3c0.2,0.3,0.3,0.7,0.2,1l-1.1,0.1c-0.1,0-0.3,0-0.4-0.1
			c-0.1-0.1-0.1-0.3-0.1-0.5c-0.1-0.4-0.4-0.7-0.8-0.7s-0.8,0-1.2,0.1c-0.2,0.1-0.3,0.1-0.5,0c-0.1-0.1-0.2-0.1-0.2-0.2
			c-0.2-0.4,0-0.9,0.3-1.2c0.3-0.3,0.6-0.6,1-0.9c0.8-0.7,1.4-1.6,1.7-2.6c0.6-0.3,1.3-0.6,1.9-0.9c1-0.5,2-0.7,3.1-0.6l2.1,0
			c0.6,0,1.3,0,1.8,0.3s1.1,0.8,1.1,1.4c0,0.1,0,0.3-0.1,0.4c-0.1,0-0.2,0.1-0.3,0.1C498.6,525.7,498.4,525.9,497.8,525.9z"/>
		<path class="st0" d="M480.9,532.5c0.2-0.2,0.2-0.4,0.2-0.6c-0.4-0.2-0.9-0.1-1.2,0.2c-0.1,0.1-0.2,0.3-0.3,0.4
			c-0.3,0.5-0.5,1-0.4,1.5c0,0.1,0.1,0.2,0.2,0.3c0.1,0,0.2,0,0.2,0c0.3,0,0.6,0,0.9-0.1c0.2,0,0.4-0.1,0.5-0.2
			c0.1-0.2-0.1-0.5-0.1-0.7c0-0.1,0.1-0.2,0.2-0.3c0.1-0.1,0.1-0.2,0.1-0.3c0-0.1-0.2-0.2-0.3-0.1"/>
		<path class="st0" d="M482.5,530.5c-0.3-0.1-0.6-0.1-0.8-0.1c-0.1,0-0.1,0-0.2,0c-0.1,0-0.1,0.1-0.1,0.2c-0.1,0.4,0.1,0.8,0.5,1
			c0.1,0,0.2,0.1,0.3,0.1c0.2,0.2,0.1,0.6,0.1,0.8c0,0.3,0.4,0.6,0.3,0.9c0,0.3-0.3,0.5-0.3,0.7c0,0.3,0.4,0.4,0.7,0.4
			c0.2,0,0.3,0,0.5-0.1c0.1-0.1,0.3-0.3,0.3-0.4c0.1-0.3,0.2-0.7,0.1-1c0-0.2,0-0.3-0.1-0.5c-0.1-0.1-0.2-0.2-0.3-0.3
			C483,531.7,483.5,530.7,482.5,530.5z"/>
		<path class="st7" d="M551.7,578.4c0,0-40.3-23.1-57.6-18.7c0,0-36.8,4-41,12.7c0,0-11.7-36.5-15.9-37.7"/>
		<path class="st7" d="M453,572.3c6.8-18,67.6-38,67.6-38c-8.6,2.2-26.6,25.3-26.6,25.3s-38-27.6-57-25.1c0,0,83.6,2.7,114.6,43.8"
			/>
		<circle class="st6" cx="437.1" cy="534.6" r="1.8"/>
		<circle class="st6" cx="453" cy="572.3" r="1.8"/>
		<circle class="st6" cx="520.6" cy="534.3" r="1.8"/>
		<circle class="st6" cx="551.7" cy="578.4" r="1.8"/>
		<circle class="st6" cx="494.1" cy="559.6" r="1.8"/>
	</g>
	<g>
		<g id="Group" transform="translate(44.000000, 143.000000)">
			<path id="Rectangle-Copy" class="st8" d="M339.8,311l-15.6,9c-2.1,1.2-2.9,4-1.6,6.1l0,0c1.2,2.1,4,2.9,6.1,1.6l15.6-9
				c2.1-1.2,2.9-4,1.6-6.1l0,0C344.6,310.5,341.9,309.7,339.8,311z"/>
			<path id="Rectangle-Copy-2" class="st9" d="M344.1,329.1l-15.6-9c-2.1-1.2-4.9-0.5-6.1,1.6l0,0c-1.2,2.1-0.5,4.9,1.6,6.1l15.6,9
				c2.1,1.2,4.9,0.5,6.1-1.6l0,0C347,333,346.2,330.3,344.1,329.1z"/>
			<path id="Rectangle" class="st10" d="M354.5,329.2l15.6-9c2.1-1.2,4.9-0.5,6.1,1.6l0,0c1.2,2.1,0.5,4.9-1.6,6.1l-15.6,9
				c-2.1,1.2-4.9,0.5-6.1-1.6l0,0C351.6,333.2,352.4,330.4,354.5,329.2z"/>
			<path class="st11" d="M359.1,311.1l15.6,9c2.1,1.2,2.9,4,1.6,6.1l0,0c-1.2,2.1-4,2.9-6.1,1.6l-15.6-9c-2.1-1.2-2.9-4-1.6-6.1l0,0
				C354.3,310.6,357,309.9,359.1,311.1z"/>
		</g>
		<g>
			<path class="st2" d="M452.7,467.7c0,2.7-0.8,4.9-2.4,6.5c-1.8,1.9-4.2,2.9-7.1,2.9c-2.8,0-5.2-1-7.2-2.9c-2-2-2.9-4.4-2.9-7.2
				c0-2.9,1-5.3,2.9-7.2c2-2,4.3-2.9,7.2-2.9c1.4,0,2.8,0.3,4,0.8c1.3,0.5,2.3,1.2,3.1,2.1l-1.8,1.8c-0.6-0.7-1.4-1.3-2.3-1.7
				c-0.9-0.4-2-0.6-3.1-0.6c-2.1,0-3.9,0.7-5.4,2.2c-1.4,1.5-2.2,3.3-2.2,5.6s0.7,4.1,2.2,5.6c1.5,1.5,3.3,2.2,5.4,2.2
				c1.9,0,3.5-0.5,4.8-1.6c1.3-1.1,2-2.6,2.2-4.5h-7v-2.3h9.4C452.7,466.8,452.7,467.3,452.7,467.7z"/>
			<path class="st2" d="M455.8,476.6v-19.4h5.9c3,0,5.3,0.9,7.1,2.7c1.8,1.8,2.7,4.1,2.7,7c0,2.9-0.9,5.3-2.7,7
				c-1.8,1.8-4.2,2.7-7.1,2.7H455.8z M458.3,459.6v14.6h3.4c2.3,0,4-0.6,5.3-1.9c1.3-1.3,2-3.1,2-5.4c0-2.3-0.7-4.1-2-5.4
				c-1.3-1.3-3.1-2-5.3-2H458.3z"/>
			<path class="st2" d="M493.2,467.7c0,2.7-0.8,4.9-2.4,6.5c-1.8,1.9-4.2,2.9-7.1,2.9c-2.8,0-5.2-1-7.2-2.9c-2-2-2.9-4.4-2.9-7.2
				c0-2.9,1-5.3,2.9-7.2c2-2,4.3-2.9,7.2-2.9c1.4,0,2.8,0.3,4,0.8c1.3,0.5,2.3,1.2,3.1,2.1l-1.8,1.8c-0.6-0.7-1.4-1.3-2.3-1.7
				c-0.9-0.4-2-0.6-3.1-0.6c-2.1,0-3.9,0.7-5.4,2.2c-1.4,1.5-2.2,3.3-2.2,5.6s0.7,4.1,2.2,5.6c1.5,1.5,3.3,2.2,5.4,2.2
				c1.9,0,3.5-0.5,4.8-1.6c1.3-1.1,2-2.6,2.2-4.5h-7v-2.3h9.4C493.1,466.8,493.2,467.3,493.2,467.7z"/>
			<path class="st2" d="M502.5,476.6h-2.8l7.3-19.4h2.8l7.3,19.4h-2.8l-1.9-5.3h-8.2L502.5,476.6z M508.4,460.3l-3.2,8.8h6.5
				l-3.2-8.8H508.4z"/>
			<path class="st2" d="M521.5,457.2v19.4H519v-19.4H521.5z"/>
			<path class="st2" d="M530.3,482.9c-0.7,0-1.4-0.1-2.1-0.3c-0.7-0.2-1.2-0.5-1.8-0.8c-0.5-0.3-1-0.8-1.4-1.2
				c-0.4-0.5-0.7-1-0.9-1.6l2.4-1c0.3,0.8,0.7,1.4,1.4,1.9c0.7,0.5,1.4,0.7,2.3,0.7c1.4,0,2.4-0.4,3.2-1.2c0.8-0.8,1.1-1.9,1.1-3.4
				v-1.3h-0.1c-0.5,0.7-1.1,1.3-1.9,1.7c-0.8,0.4-1.7,0.6-2.6,0.6c-1.7,0-3.2-0.7-4.5-2c-1.2-1.4-1.8-3.1-1.8-5c0-2,0.6-3.6,1.8-5
				c1.2-1.4,2.7-2.1,4.5-2.1c0.9,0,1.8,0.2,2.6,0.6c0.8,0.4,1.4,1,1.9,1.7h0.1v-1.8h2.4v12.7c0,2.1-0.6,3.8-1.8,5
				C534,482.3,532.3,482.9,530.3,482.9z M530.4,474.8c1.2,0,2.2-0.4,3-1.3c0.8-0.9,1.2-2,1.2-3.5c0-1.4-0.4-2.5-1.2-3.4
				c-0.8-0.9-1.8-1.4-3-1.4c-1.2,0-2.2,0.5-3,1.4c-0.8,0.9-1.2,2.1-1.2,3.4c0,1.4,0.4,2.6,1.2,3.4
				C528.2,474.4,529.2,474.8,530.4,474.8z"/>
			<path class="st2" d="M543.3,458.8c0,0.5-0.2,0.9-0.5,1.2c-0.3,0.3-0.8,0.5-1.2,0.5c-0.5,0-0.9-0.2-1.2-0.5
				c-0.3-0.3-0.5-0.8-0.5-1.2c0-0.5,0.2-0.9,0.5-1.2c0.3-0.3,0.8-0.5,1.2-0.5c0.5,0,0.9,0.2,1.2,0.5
				C543.1,457.9,543.3,458.3,543.3,458.8z M542.8,463.4v13.3h-2.5v-13.3H542.8z"/>
			<path class="st2" d="M551.8,477.1c-2,0-3.6-0.7-4.8-2c-1.3-1.3-1.9-3-1.9-5.1c0-2,0.6-3.7,1.8-5.1c1.2-1.3,2.8-2,4.7-2
				c2,0,3.5,0.6,4.7,1.9c1.2,1.3,1.7,3.1,1.7,5.4l0,0.3h-10.4c0,1.3,0.5,2.4,1.3,3.1c0.8,0.8,1.8,1.2,3,1.2c1.6,0,2.8-0.8,3.7-2.4
				l2.2,1.1c-0.6,1.1-1.4,2-2.5,2.6C554.4,476.8,553.2,477.1,551.8,477.1z M547.9,468.4h7.6c-0.1-0.9-0.4-1.7-1.1-2.3
				c-0.7-0.6-1.6-0.9-2.7-0.9c-0.9,0-1.7,0.3-2.4,0.9C548.5,466.7,548.1,467.4,547.9,468.4z"/>
			<path class="st2" d="M562.9,476.6h-2.5v-13.3h2.4v2.2h0.1c0.3-0.7,0.8-1.3,1.6-1.8c0.8-0.5,1.6-0.7,2.3-0.7
				c0.7,0,1.3,0.1,1.8,0.3l-0.8,2.4c-0.3-0.1-0.8-0.2-1.5-0.2c-0.9,0-1.8,0.4-2.5,1.1c-0.7,0.8-1,1.6-1,2.7V476.6z"/>
			<path class="st2" d="M579.9,473c0,1.2-0.5,2.1-1.5,2.9c-1,0.8-2.3,1.2-3.8,1.2c-1.3,0-2.5-0.3-3.5-1c-1-0.7-1.7-1.6-2.2-2.8
				l2.2-0.9c0.3,0.8,0.8,1.4,1.4,1.9c0.6,0.4,1.3,0.7,2,0.7c0.8,0,1.5-0.2,2-0.5c0.5-0.3,0.8-0.7,0.8-1.2c0-0.8-0.7-1.5-2-1.9
				l-2.3-0.6c-2.6-0.7-3.9-1.9-3.9-3.7c0-1.2,0.5-2.2,1.5-2.9c1-0.7,2.2-1.1,3.8-1.1c1.2,0,2.2,0.3,3.2,0.8c0.9,0.6,1.6,1.3,2,2.3
				l-2.2,0.9c-0.3-0.6-0.7-1-1.2-1.3c-0.6-0.3-1.2-0.5-1.9-0.5c-0.7,0-1.2,0.2-1.7,0.5c-0.5,0.3-0.8,0.7-0.8,1.2
				c0,0.8,0.7,1.3,2.1,1.6l2,0.5C578.6,469.6,579.9,471,579.9,473z"/>
		</g>
		<g>
			<g>
				<g>
					<path class="st2" d="M616.5,488.6c-0.2,0-0.4-0.1-0.6-0.3c-9-9.9-11.6-23.1-8-40.3c0.1-0.4,0.5-0.7,0.9-0.6
						c0.4,0.1,0.7,0.5,0.6,0.9c-3.5,16.7-1,29.4,7.6,38.9c0.3,0.3,0.3,0.8-0.1,1.1C616.9,488.6,616.7,488.6,616.5,488.6z"/>
				</g>
				<g>
					<path class="st2" d="M628.6,484.1c-0.1,0-0.1,0-0.2,0c-11.2-3.2-18.5-12-21.7-26.2c-0.1-0.4,0.2-0.9,0.6-0.9
						c0.4-0.1,0.9,0.2,0.9,0.6c3.1,13.6,10,22,20.6,25c0.4,0.1,0.7,0.6,0.5,1C629.3,483.9,629,484.1,628.6,484.1z"/>
				</g>
				<g>
					<path class="st2" d="M582.7,484.8c-0.3,0-0.6-0.2-0.7-0.5c-0.2-0.4,0-0.9,0.4-1.1c12.5-5.9,19.3-14.6,20.3-25.8
						c0-0.4,0.4-0.8,0.9-0.7c0.4,0,0.8,0.4,0.7,0.9c-1,11.8-8.1,21-21.2,27.1C582.9,484.7,582.8,484.8,582.7,484.8z"/>
				</g>
				<g>
					<path class="st2" d="M599.2,470.9c0,0-0.1,0-0.1,0c-0.4-0.1-0.7-0.5-0.7-0.9c0.9-5.4,1.2-12.3,0.9-20.6c0-0.4,0.3-0.8,0.8-0.8
						c0.4,0,0.8,0.3,0.8,0.8c0.3,8.4-0.1,15.4-0.9,20.9C599.9,470.7,599.6,470.9,599.2,470.9z"/>
				</g>
				<g>
					<path class="st2" d="M611.2,468.9c-0.4,0-0.7-0.3-0.8-0.7c-0.7-5.6-0.9-12.3-0.5-18.9c0-0.4,0.4-0.8,0.8-0.7
						c0.4,0,0.8,0.4,0.7,0.8c-0.4,6.5-0.2,13.1,0.5,18.6c0.1,0.4-0.2,0.8-0.7,0.9C611.3,468.9,611.3,468.9,611.2,468.9z"/>
				</g>
				<g>
					<path class="st2" d="M605.5,455.1"/>
				</g>
				<g>
					<path class="st2" d="M603.8,457"/>
				</g>
				<g>
					<path class="st2" d="M606.7,457.2"/>
				</g>
				<g>
					<path class="st2" d="M605.5,455"/>
				</g>
				<g>
					<path class="st2" d="M594.6,489.5c-0.1,0-0.3,0-0.4-0.1c-0.4-0.2-0.5-0.7-0.2-1.1c8.6-13.2,10.9-26.6,7.1-39.8
						c-0.1-0.4,0.1-0.9,0.5-1c0.4-0.1,0.9,0.1,1,0.5c4,13.6,1.5,27.5-7.3,41.1C595.1,489.4,594.8,489.5,594.6,489.5z"/>
				</g>
				<g>
					<path class="st2" d="M612.6,483.2c-0.3,0-0.5-0.1-0.7-0.4c-6.4-9.8-9.5-19.2-9.2-27.8c0-0.4,0.4-0.8,0.8-0.8
						c0.4,0,0.8,0.4,0.8,0.8c-0.2,8.3,2.8,17.3,9,26.9c0.2,0.4,0.1,0.9-0.2,1.1C612.9,483.1,612.7,483.2,612.6,483.2z"/>
				</g>
				<g>
					<path class="st2" d="M598.1,483.2c-0.1,0-0.3,0-0.4-0.1c-0.4-0.2-0.5-0.7-0.2-1.1c6.1-9.5,9.1-18.5,9-26.8
						c0-0.4,0.3-0.8,0.8-0.8c0.4,0,0.8,0.3,0.8,0.8c0.1,8.5-3,17.8-9.2,27.6C598.7,483.1,598.4,483.2,598.1,483.2z"/>
				</g>
				<g>
					<path class="st2" d="M607.6,490c-0.2,0-0.3-0.1-0.4-0.3c-1.6-5.5-2.3-12.5-2.3-22.2c0-0.2,0.2-0.4,0.4-0.4c0,0,0,0,0,0
						c0.2,0,0.4,0.2,0.4,0.4c0,9.6,0.7,16.5,2.3,21.9c0.1,0.2-0.1,0.4-0.3,0.5C607.7,490,607.6,490,607.6,490z"/>
				</g>
				<g>
					<path class="st2" d="M603.1,490c0,0-0.1,0-0.1,0c-0.2-0.1-0.3-0.3-0.3-0.5c1.6-5.4,2.3-12.4,2.3-21.9c0-0.2,0.2-0.4,0.4-0.4
						c0,0,0,0,0,0c0.2,0,0.4,0.2,0.4,0.4c0,9.7-0.7,16.7-2.3,22.2C603.4,489.9,603.2,490,603.1,490z"/>
				</g>
				<g>
					<path class="st2" d="M599.7,488.4c-0.2,0-0.4-0.2-0.4-0.4c-0.3-2.9-0.3-5.3,0-8.1c0-0.2,0.2-0.4,0.4-0.4c0.2,0,0.4,0.2,0.4,0.4
						c-0.3,2.8-0.3,5.2,0,8C600.2,488.2,600,488.4,599.7,488.4C599.8,488.4,599.8,488.4,599.7,488.4z"/>
				</g>
				<g>
					<path class="st2" d="M610.8,488.1C610.8,488.1,610.7,488.1,610.8,488.1c-0.3,0-0.4-0.2-0.4-0.4c0.3-2.8,0.3-5.2,0-8
						c0-0.2,0.1-0.4,0.4-0.4c0.2,0,0.4,0.1,0.4,0.4c0.3,2.9,0.3,5.3,0,8.1C611.1,487.9,611,488.1,610.8,488.1z"/>
				</g>
			</g>
			<g>
				<path class="st2" d="M607.1,457.5h-3.6l-0.3-2.1c1.4-0.4,2.8-0.4,4.2,0L607.1,457.5z"/>
				<path class="st2" d="M607.5,457.9h-4.3l-0.4-2.7l0.3-0.1c1.5-0.4,2.9-0.4,4.4,0l0.3,0.1L607.5,457.9z M603.8,457.1h2.9l0.2-1.4
					c-1.1-0.3-2.2-0.3-3.3,0L603.8,457.1z"/>
			</g>
		</g>
	</g>
</g>
<path class="st6" d="M939.8,649.1c0,20.4-12.1,27.5-27,27.5c-0.3,0-0.7,0-1,0c-0.7,0-1.4,0-2.1-0.1c-13.5-1-23.9-8.4-23.9-27.4
	c0-19.6,25-44.3,26.9-46.1l0,0c0.1-0.1,0.1-0.1,0.1-0.1S939.8,628.7,939.8,649.1z"/>
<path class="st0" d="M911.8,673.4l9.9-13.8l-9.9,15.3l0,1.6c-0.7,0-1.4,0-2.1-0.1l1.1-20.4l0-0.2l0,0l0.1-1.9l-9.9-15.4l10,13.9
	l0,0.4l0.8-15.4l-8.5-15.9l8.6,13.2l0.8-31.9l0-0.1v0.1l-0.1,25.2l8.5-10l-8.5,12.1l-0.2,13.8l7.9-13.2l-7.9,15.2l-0.1,7.7
	l11.5-18.4l-11.5,21.1L911.8,673.4z"/>
<path class="st6" d="M257.9,535.9c0,20.4-12.1,27.5-27,27.5c-0.3,0-0.7,0-1,0c-0.7,0-1.4,0-2.1-0.1c-13.5-1-23.9-8.4-23.9-27.4
	c0-19.6,25-44.3,26.9-46.1l0,0c0.1-0.1,0.1-0.1,0.1-0.1S257.9,515.6,257.9,535.9z"/>
<path class="st0" d="M229.9,560.3l9.9-13.8l-9.9,15.3l0,1.6c-0.7,0-1.4,0-2.1-0.1l1.1-20.4l0-0.2l0,0l0.1-1.9l-9.9-15.4l10,13.9
	l0,0.4l0.8-15.4l-8.5-15.9l8.6,13.2l0.8-31.9l0-0.1v0.1l-0.1,25.2l8.5-10l-8.5,12.1l-0.2,13.8l7.9-13.2l-7.9,15.2l-0.1,7.7
	l11.5-18.4l-11.5,21.1L229.9,560.3z"/>
</svg>
