<svg xmlns="http://www.w3.org/2000/svg" xmlns:xlink="http://www.w3.org/1999/xlink" viewBox="0 0 395.821 304.654">
  <defs>
    <style>
      .cls-1, .cls-10 {
        fill: #6c63ff;
      }

      .cls-1, .cls-11, .cls-5 {
        opacity: 0.1;
      }

      .cls-2 {
        fill: #d6d6e3;
      }

      .cls-3 {
        fill: #aebee1;
      }

      .cls-4 {
        fill: #535461;
      }

      .cls-6 {
        fill: #e3edf9;
      }

      .cls-7 {
        fill: url(#linear-gradient);
      }

      .cls-8 {
        fill: #f8b9bf;
      }

      .cls-9 {
        fill: #d9dfe8;
      }

      .cls-12 {
        fill: #68739d;
      }

      .cls-13 {
        fill: #6394e2;
      }

      .cls-14 {
        fill: #b96b6b;
      }

      .cls-15 {
        fill: none;
        stroke: #535461;
        stroke-miterlimit: 10;
        stroke-width: 2px;
      }

      .cls-16 {
        fill: url(#linear-gradient-2);
      }

      .cls-17 {
        fill: #fa595f;
      }

      .cls-18 {
        fill: #f37291;
      }

      .cls-19 {
        fill: #96a2d0;
      }
    </style>
    <linearGradient id="linear-gradient" x1="0.531" y1="1.017" x2="0.531" y2="-0.007" gradientUnits="objectBoundingBox">
      <stop offset="0" stop-color="gray" stop-opacity="0.251"/>
      <stop offset="0.54" stop-color="gray" stop-opacity="0.122"/>
      <stop offset="1" stop-color="gray" stop-opacity="0.102"/>
    </linearGradient>
    <linearGradient id="linear-gradient-2" x1="0.5" y1="1" x2="0.5" y2="0.001" xlink:href="#linear-gradient"/>
  </defs>
  <g id="undraw_co-working_825n" transform="translate(0.007 0)">
    <path id="Path_386" data-name="Path 386" class="cls-1" d="M410.574,191.2c-14.584,21.938-10.893,52.432-3.55,76.585,2.473,8.085,5.266,16.629,3.606,25.566-2.031,10.929-10.31,19.346-18.8,24.058-15.467,8.594-33.421,7.887-46.741-1.833-11.511-8.4-19.335-22.74-31.083-30.73-19.635-13.323-45.855-6.2-68.5,5.256-16.018,8.092-33.605,18.413-48.786,11.939-10.681-4.557-17.6-16.827-21.045-30.076-1.66-6.4-2.748-13.366-6.287-18.3a23.469,23.469,0,0,0-7.873-6.58c-26.742-15.1-62.025-3.938-87.9-20.914-17.46-11.444-27.848-34.453-31.726-58.878s-1.967-50.4.625-75.97c1.84-18.166,4.479-37.6,14.613-52.163,10.72-15.4,28.109-21.963,43.446-20.116s28.823,11,40.56,22.041C155.809,54.86,169.175,72.33,187.8,77.112c12.684,3.267,26.354.2,39.684-1.413,22.288-2.667,44.375-1.183,66.313.579,21.006,1.688,42.146,3.67,61.873,10.868,13.959,5.093,24.845,15.238,37.932,21.984,8.53,4.4,18.032,5.168,26.025,10.95,9.848,7.117,18.551,20.024,15.128,35.972C431.5,171.238,418.313,179.545,410.574,191.2Z" transform="translate(-39.7 -18.74)"/>
    <rect id="Rectangle_27" data-name="Rectangle 27" class="cls-1" width="14.443" height="21.864" transform="translate(311.109 90.572)"/>
    <rect id="Rectangle_28" data-name="Rectangle 28" class="cls-1" width="11.635" height="17.611" transform="translate(312.512 92.698)"/>
    <rect id="Rectangle_29" data-name="Rectangle 29" class="cls-1" width="22.182" height="21.864" transform="translate(281.792 75.383)"/>
    <rect id="Rectangle_30" data-name="Rectangle 30" class="cls-1" width="17.869" height="17.611" transform="translate(283.947 77.51)"/>
    <rect id="Rectangle_31" data-name="Rectangle 31" class="cls-1" width="67.8" height="1.805" transform="translate(22.821 42.852)"/>
    <rect id="Rectangle_32" data-name="Rectangle 32" class="cls-1" width="67.8" height="1.805" transform="translate(22.821 51.679)"/>
    <rect id="Rectangle_33" data-name="Rectangle 33" class="cls-2" width="6.927" height="77.404" transform="translate(137.196 159.877)"/>
    <path id="Path_387" data-name="Path 387" class="cls-3" d="M935.391,349.9V278.5A7.506,7.506,0,0,1,942.9,271h0a7.506,7.506,0,0,1,7.492,7.5v86.411a7.506,7.506,0,0,1-7.506,7.506H896.4a7.506,7.506,0,0,1-7.506-7.506h0a7.506,7.506,0,0,1,7.506-7.506h31.489a7.506,7.506,0,0,0,7.506-7.506Z" transform="translate(-588.946 -181.898)"/>
    <path id="Path_388" data-name="Path 388" class="cls-4" d="M935.391,349.9V278.5A7.506,7.506,0,0,1,942.9,271h0a7.506,7.506,0,0,1,7.492,7.5v86.411a7.506,7.506,0,0,1-7.506,7.506H896.4a7.506,7.506,0,0,1-7.506-7.506h0a7.506,7.506,0,0,1,7.506-7.506h31.489a7.506,7.506,0,0,0,7.506-7.506Z" transform="translate(-588.946 -181.898)"/>
    <path id="Path_389" data-name="Path 389" class="cls-2" d="M888.92,364.511a7.506,7.506,0,0,1,7.5-7.1H927.9a7.506,7.506,0,0,0,7.506-7.506V278.5a7.506,7.506,0,0,1,7.146-7.5v93.511Z" transform="translate(-588.965 -181.898)"/>
    <path id="Path_390" data-name="Path 390" class="cls-3" d="M204.744,356.715v-71.4a7.506,7.506,0,0,0-7.488-7.506h0a7.506,7.506,0,0,0-7.506,7.506v86.411a7.506,7.506,0,0,0,7.506,7.524h46.483a7.506,7.506,0,0,0,7.506-7.506h0a7.506,7.506,0,0,0-7.506-7.506H212.253a7.506,7.506,0,0,1-7.509-7.524Z" transform="translate(-136.754 -186.302)"/>
    <path id="Path_391" data-name="Path 391" class="cls-4" d="M204.744,356.715v-71.4a7.506,7.506,0,0,0-7.488-7.506h0a7.506,7.506,0,0,0-7.506,7.506v86.411a7.506,7.506,0,0,0,7.506,7.524h46.483a7.506,7.506,0,0,0,7.506-7.506h0a7.506,7.506,0,0,0-7.506-7.506H212.253a7.506,7.506,0,0,1-7.509-7.524Z" transform="translate(-136.754 -186.302)"/>
    <path id="Path_392" data-name="Path 392" class="cls-2" d="M265.625,371.344a7.506,7.506,0,0,0-7.5-7.1H226.644a7.506,7.506,0,0,1-7.509-7.506v-71.4a7.506,7.506,0,0,0-7.134-7.5v93.5Z" transform="translate(-151.145 -186.322)"/>
    <rect id="Rectangle_34" data-name="Rectangle 34" class="cls-2" width="6.927" height="79.209" transform="translate(274.234 159.877)"/>
    <rect id="Rectangle_35" data-name="Rectangle 35" class="cls-5" width="6.927" height="5.722" transform="translate(137.196 159.877)"/>
    <rect id="Rectangle_36" data-name="Rectangle 36" class="cls-5" width="6.927" height="5.722" transform="translate(274.234 159.877)"/>
    <path id="Path_393" data-name="Path 393" class="cls-5" d="M495.609,337.92q-.166,1.83-.42,3.709h-.978V337.92Z" transform="translate(-333.673 -225.18)"/>
    <path id="Path_394" data-name="Path 394" class="cls-4" d="M523.99,376.455a2.137,2.137,0,0,1-2,2.282h-21.14v-2.2h17.59a1.105,1.105,0,0,0,.851-1.653l-15.951-32.443a1.413,1.413,0,0,0-1.236-.8H494.21V337.93h9.964a.989.989,0,0,1,.865.558l18.286,35.322A6,6,0,0,1,523.99,376.455Z" transform="translate(-333.673 -225.187)"/>
    <path id="Path_395" data-name="Path 395" class="cls-4" d="M463.109,309.9l-.29.487-2.709-1.808,8.382-64.452h2.158s.088.3.233.862C472.328,250.562,479.424,282.108,463.109,309.9Z" transform="translate(-311.618 -164.519)"/>
    <path id="Path_396" data-name="Path 396" class="cls-5" d="M470.88,244.992,463.109,309.9l-.29.487-2.709-1.808,8.382-64.452h2.158S470.735,244.437,470.88,244.992Z" transform="translate(-311.618 -164.519)"/>
    <rect id="Rectangle_37" data-name="Rectangle 37" class="cls-2" width="66.86" height="5.122" transform="translate(146.04 145.331) rotate(-83.17)"/>
    <path id="Path_397" data-name="Path 397" class="cls-6" d="M399.958,445.97a.607.607,0,0,1-.6.6h-.9a.6.6,0,0,1-.6-.6.294.294,0,0,1,0-.071.6.6,0,0,1,.6-.53h.9a.607.607,0,0,1,.583.459A.557.557,0,0,1,399.958,445.97Z" transform="translate(-271.346 -294.677)"/>
    <path id="Path_398" data-name="Path 398" class="cls-6" d="M407.632,445.97a.608.608,0,0,1-.6.6h-.9a.6.6,0,0,1-.6-.6.593.593,0,0,1,.025-.166.569.569,0,0,1,.152-.258.59.59,0,0,1,.424-.177h.9a.608.608,0,0,1,.555.353A.622.622,0,0,1,407.632,445.97Z" transform="translate(-276.31 -294.677)"/>
    <path id="Path_399" data-name="Path 399" class="cls-6" d="M414.452,445.964a.607.607,0,0,1-.6.6h-.9a.6.6,0,0,1-.6-.6.573.573,0,0,1,.053-.251.615.615,0,0,1,.547-.353h.9a.6.6,0,0,1,.6.6Z" transform="translate(-280.721 -294.671)"/>
    <path id="Path_400" data-name="Path 400" class="cls-6" d="M422.133,445.97a.607.607,0,0,1-.6.6h-.9a.6.6,0,0,1-.494-.95l.071-.078a.59.59,0,0,1,.424-.177h.9a.607.607,0,0,1,.438.194A.583.583,0,0,1,422.133,445.97Z" transform="translate(-285.69 -294.677)"/>
    <path id="Path_401" data-name="Path 401" class="cls-5" d="M399.941,446.66a.558.558,0,0,1,.018.145.608.608,0,0,1-.6.6h-.9a.6.6,0,0,1-.6-.6.294.294,0,0,1,0-.071Z" transform="translate(-271.346 -295.511)"/>
    <path id="Path_402" data-name="Path 402" class="cls-5" d="M407.583,446.39a.622.622,0,0,1,.049.237.608.608,0,0,1-.6.6h-.9a.6.6,0,0,1-.6-.6.594.594,0,0,1,.025-.166Z" transform="translate(-276.31 -295.337)"/>
    <path id="Path_403" data-name="Path 403" class="cls-5" d="M414.37,446.16a.6.6,0,0,1-.512.922h-.9a.6.6,0,0,1-.6-.6.572.572,0,0,1,.053-.251Z" transform="translate(-280.728 -295.188)"/>
    <path id="Path_404" data-name="Path 404" class="cls-5" d="M422.133,446.32a.608.608,0,0,1-.6.6h-.9a.6.6,0,0,1-.494-.95l1.837-.064a.583.583,0,0,1,.166.41Z" transform="translate(-285.69 -295.026)"/>
    <path id="Path_405" data-name="Path 405" class="cls-2" d="M409.357,449.056H391.89v-.795a1.36,1.36,0,0,1,1.314-1.36l14.009-.484a2.077,2.077,0,0,1,2.148,2.073Z" transform="translate(-267.495 -295.354)"/>
    <path id="Path_406" data-name="Path 406" class="cls-4" d="M685.309,376.455a2.137,2.137,0,0,0,2,2.282h21.151v-2.2H690.851A1.105,1.105,0,0,1,690,374.88l15.951-32.443a1.413,1.413,0,0,1,1.236-.8h7.894V337.93h-9.957a.989.989,0,0,0-.851.555l-18.286,35.322A6,6,0,0,0,685.309,376.455Z" transform="translate(-457.273 -225.187)"/>
    <path id="Path_407" data-name="Path 407" class="cls-4" d="M775.908,309.9l.29.487,2.709-1.808-8.382-64.452h-2.158s-.088.3-.233.862C766.686,250.562,759.575,282.108,775.908,309.9Z" transform="translate(-509.043 -164.519)"/>
    <path id="Path_408" data-name="Path 408" class="cls-5" d="M773.23,244.992,781,309.9l.29.487L784,308.582l-8.378-64.452h-2.158S773.375,244.437,773.23,244.992Z" transform="translate(-514.139 -164.519)"/>
    <rect id="Rectangle_38" data-name="Rectangle 38" class="cls-2" width="5.122" height="66.86" transform="translate(259.281 79.548) rotate(-6.83)"/>
    <path id="Path_409" data-name="Path 409" class="cls-6" d="M860,445.97a.607.607,0,0,0,.6.6h.9a.6.6,0,0,0,.6-.6.285.285,0,0,0,0-.071.6.6,0,0,0-.6-.53h-.9a.607.607,0,0,0-.583.459A.555.555,0,0,0,860,445.97Z" transform="translate(-570.26 -294.677)"/>
    <path id="Path_410" data-name="Path 410" class="cls-6" d="M852.328,445.97a.608.608,0,0,0,.6.6h.9a.6.6,0,0,0,.6-.6.594.594,0,0,0-.025-.166.568.568,0,0,0-.152-.258.59.59,0,0,0-.424-.177h-.922a.607.607,0,0,0-.555.353A.621.621,0,0,0,852.328,445.97Z" transform="translate(-565.297 -294.677)"/>
    <path id="Path_411" data-name="Path 411" class="cls-6" d="M845.51,445.964a.607.607,0,0,0,.6.6h.9a.6.6,0,0,0,.6-.6.571.571,0,0,0-.053-.251.614.614,0,0,0-.547-.353h-.9a.6.6,0,0,0-.6.6Z" transform="translate(-560.888 -294.671)"/>
    <path id="Path_412" data-name="Path 412" class="cls-6" d="M837.83,445.97a.607.607,0,0,0,.6.6h.9a.6.6,0,0,0,.495-.95l-.071-.078a.59.59,0,0,0-.424-.177h-.9a.607.607,0,0,0-.438.194A.583.583,0,0,0,837.83,445.97Z" transform="translate(-555.921 -294.677)"/>
    <path id="Path_413" data-name="Path 413" class="cls-5" d="M860.018,446.66a.56.56,0,0,0-.018.145.607.607,0,0,0,.6.6h.9a.6.6,0,0,0,.6-.6.285.285,0,0,0,0-.071Z" transform="translate(-570.26 -295.511)"/>
    <path id="Path_414" data-name="Path 414" class="cls-5" d="M852.379,446.39a.622.622,0,0,0-.049.237.607.607,0,0,0,.6.6h.9a.6.6,0,0,0,.6-.6.6.6,0,0,0-.025-.166Z" transform="translate(-565.299 -295.337)"/>
    <path id="Path_415" data-name="Path 415" class="cls-5" d="M845.592,446.16a.6.6,0,0,0,.512.922h.9a.6.6,0,0,0,.6-.6.572.572,0,0,0-.053-.251Z" transform="translate(-560.882 -295.188)"/>
    <path id="Path_416" data-name="Path 416" class="cls-5" d="M837.83,446.32a.608.608,0,0,0,.6.6h.9a.6.6,0,0,0,.495-.95L838,445.91a.583.583,0,0,0-.166.41Z" transform="translate(-555.921 -295.026)"/>
    <path id="Path_417" data-name="Path 417" class="cls-2" d="M822.484,449.056H839.95v-.795a1.36,1.36,0,0,0-1.314-1.36l-14.009-.484a2.077,2.077,0,0,0-2.148,2.073Z" transform="translate(-545.993 -295.354)"/>
    <path id="Path_418" data-name="Path 418" class="cls-7" d="M870.754,301.237c8.149-13.821,5.2-41.7,5.524-42.234.293-.47-.83-13.6-8.318-16.806-1.353-2.681-2.684-5.7-2.684-5.7a2.379,2.379,0,0,1-.431.321q-.088-.24-.173-.487c-.1-.279-.184-.565-.272-.851a5.488,5.488,0,0,0,.639.162,2.663,2.663,0,0,0,1.71-.152,1.9,1.9,0,0,0,.491-.378,3.723,3.723,0,0,0,1.19-1.766l2.179-5.221A40.631,40.631,0,0,0,873.1,220.9a20.337,20.337,0,0,0-.869-11.253,7.18,7.18,0,0,0-2.441-3.56c-2.427-1.646-5.8-.509-8.576-1.473-.911-.318-1.734-.855-2.646-1.18a8.135,8.135,0,0,0-6.082.551,28.943,28.943,0,0,0-5.083,3.532c-.816.625-2.119,1.272-3.08,2.119a3.1,3.1,0,0,0-1.512,2.766c.155,1.325,1.551,2.119,2.85,2.43.215.049.438.088.657.127a12.716,12.716,0,0,0,5.429,21.122,29.79,29.79,0,0,1,1.717,3.861q.1.272.187.547a22.048,22.048,0,0,0-4.15,1.392c-1.014.841,1.109,8.2,1.109,8.2-.54.685-1.091,1.466-1.649,2.3a49.644,49.644,0,0,0-7.827,21.394c-.353,2.794-.812,5.651-1.4,8.368l-25.315-5.076-.053.625-.6-.148h0l-1.9-.47-.074.427-.29-.138c-4.708-2.208-12.642-5.026-18.014-2.119-5.669,3.052,6.566,7.107,14.418,9.265a12.755,12.755,0,0,0-7.064,2.215c-5.694,4.267,10.409,6.489,18.014,7.276l.307.032v.162l2.635.244.618.056.06.94s3.772.618,8.813,1.367a153.711,153.711,0,0,1-17.8,3.016,13.025,13.025,0,0,0-11.1,9.343,8.308,8.308,0,0,0-.127,4.493c1.469,5.132-.325,42.888-.731,51.019l-9.307,5.358s-14.482,1.766-4.836,5.161a19.835,19.835,0,0,0,2.66.706c-1.272.819-1.162,1.89,2.586,3.2,9.653,3.384,32.093-.148,32.093-.148s-.491-3.977-1.289-7.283l.247.021s-2.317-8.622,1.2-12.97-.59-37.441-.59-37.441,6.153-2.547,24.545-2.713c14.835,3.808,22.066-9.823,21.963-16.87A3.734,3.734,0,0,1,870.754,301.237Z" transform="translate(-521.155 -137.959)"/>
    <path id="Path_419" data-name="Path 419" class="cls-8" d="M832.582,410.65l-1.572,6.358s-1.413-.318-3.532-.862c-7.177-1.858-22.316-6.319-16.248-9.593,5.231-2.826,12.935-.078,17.509,2.066,1.674.788,2.932,1.494,3.493,1.826C832.469,410.58,832.582,410.65,832.582,410.65Z" transform="translate(-537.809 -268.791)"/>
    <path id="Path_420" data-name="Path 420" class="cls-5" d="M864.462,418.487l-1.13,4.592s-1.413-.318-3.532-.862l1.275-7.527c1.674.788,2.932,1.494,3.493,1.826Z" transform="translate(-570.131 -274.834)"/>
    <path id="Path_421" data-name="Path 421" class="cls-9" d="M825.277,404.224l-4.387-1.084,1.363-8.039,3.507.865Z" transform="translate(-530.942 -255.544)"/>
    <path id="Path_422" data-name="Path 422" class="cls-5" d="M829.843,405.058l-1.893-.466.713-8.2,1.664.41Z" transform="translate(-535.508 -256.378)"/>
    <path id="Path_423" data-name="Path 423" class="cls-10" d="M912.8,343.9s-8.424-4.867-12.168,9.1-4.1,20.395-4.1,20.395l-26.6-5.319-.844,9.717s28.445,9.184,32.023,8.516S916.3,366.166,916.3,366.166,926.855,351.08,912.8,343.9Z" transform="translate(-576.139 -228.514)"/>
    <g id="Group_86" data-name="Group 86" class="cls-11" transform="translate(272.018 114.914)">
      <path id="Path_424" data-name="Path 424" d="M832.582,410.65l-1.572,6.358s-1.413-.318-3.532-.862c-7.177-1.858-22.316-6.319-16.248-9.593,5.231-2.826,12.935-.078,17.509,2.066,1.674.788,2.932,1.494,3.493,1.826C832.469,410.58,832.582,410.65,832.582,410.65Z" transform="translate(-809.826 -383.705)"/>
      <path id="Path_425" data-name="Path 425" class="cls-5" d="M864.462,418.487l-1.13,4.592s-1.413-.318-3.532-.862l1.275-7.527c1.674.788,2.932,1.494,3.493,1.826Z" transform="translate(-842.148 -389.747)"/>
      <path id="Path_426" data-name="Path 426" d="M825.277,404.224l-4.387-1.084,1.363-8.039,3.507.865Z" transform="translate(-802.959 -370.458)"/>
      <path id="Path_427" data-name="Path 427" class="cls-5" d="M829.843,405.058l-1.893-.466.713-8.2,1.664.41Z" transform="translate(-807.526 -371.292)"/>
      <path id="Path_428" data-name="Path 428" d="M912.8,344.9s-8.424-4.867-12.168,9.1-4.1,20.395-4.1,20.395l-26.6-5.319-.844,9.717s28.445,9.184,32.023,8.516S916.3,367.166,916.3,367.166,926.855,352.08,912.8,344.9Z" transform="translate(-848.157 -344.075)"/>
    </g>
    <path id="Path_429" data-name="Path 429" class="cls-12" d="M806.762,650.534,795.9,656.79s-14.072,1.724-4.7,5.009,31.168-.145,31.168-.145-1.212-9.791-2.9-11.158S806.762,650.534,806.762,650.534Z" transform="translate(-523.68 -426.962)"/>
    <path id="Path_430" data-name="Path 430" class="cls-13" d="M880,452.7a75.6,75.6,0,0,1-15,5.266,150.376,150.376,0,0,1-17.537,2.988,12.649,12.649,0,0,0-10.78,9.053,8.068,8.068,0,0,0-.124,4.38c1.6,5.591-.788,51.043-.788,51.043l16.5,1.526s-2.25-8.375,1.166-12.6-.572-36.35-.572-36.35,5.976-2.473,23.835-2.635c16.545,4.239,23.362-13.871,20.808-18.947S880,452.7,880,452.7Z" transform="translate(-554.589 -299.316)"/>
    <g id="Group_87" data-name="Group 87" class="cls-11" transform="translate(264.302 153.226)">
      <path id="Path_431" data-name="Path 431" d="M806.762,650.534,795.9,656.79s-14.072,1.724-4.7,5.009,31.168-.145,31.168-.145-1.212-9.791-2.9-11.158S806.762,650.534,806.762,650.534Z" transform="translate(-787.982 -580.189)"/>
      <path id="Path_432" data-name="Path 432" d="M880,452.7a75.6,75.6,0,0,1-15,5.266,150.376,150.376,0,0,1-17.537,2.988,12.649,12.649,0,0,0-10.78,9.053,8.068,8.068,0,0,0-.124,4.38c1.6,5.591-.788,51.043-.788,51.043l16.5,1.526s-2.25-8.375,1.166-12.6-.572-36.35-.572-36.35,5.976-2.473,23.835-2.635c16.545,4.239,23.362-13.871,20.808-18.947S880,452.7,880,452.7Z" transform="translate(-818.89 -452.543)"/>
    </g>
    <path id="Path_433" data-name="Path 433" class="cls-12" d="M821.187,661.285l-10.861,6.255s-14.065,1.71-4.7,5.009S836.8,672.4,836.8,672.4s-1.212-9.791-2.9-11.158S821.187,661.285,821.187,661.285Z" transform="translate(-533.012 -433.915)"/>
    <path id="Path_434" data-name="Path 434" class="cls-13" d="M891.064,486.12c-17.859.162-23.835,2.635-23.835,2.635s3.988,32.143.572,36.35-1.166,12.6-1.166,12.6l-16.5-1.526s.028-.537.074-1.5c.4-7.9,2.137-44.562.706-49.546a8.067,8.067,0,0,1,.124-4.366,12.652,12.652,0,0,1,10.777-9.074,146.1,146.1,0,0,0,17.534-2.988l.276-.071a74.958,74.958,0,0,0,14.729-5.2s14.945-1.342,17.5,3.734a6,6,0,0,1,.523,2.561C912.508,476.579,905.479,489.818,891.064,486.12Z" transform="translate(-563.883 -306.258)"/>
    <path id="Path_435" data-name="Path 435" class="cls-8" d="M853.722,437.234l-.6,6.534s-1.452-.1-3.61-.328c-7.372-.767-23.009-2.921-17.481-7.064,4.754-3.56,12.779-2.006,17.622-.565,1.766.53,3.122,1.042,3.726,1.286C853.6,437.181,853.722,437.234,853.722,437.234Z" transform="translate(-551.418 -287.452)"/>
    <path id="Path_436" data-name="Path 436" class="cls-8" d="M985.216,291.823s-2.211,1.731-4.913,3.631c-2.964.671-6.4,1.226-8.883,1.586.887-2.826.353-6-.646-8.792a33.094,33.094,0,0,0-4.433-8.152l14.948-4.666c-1.173,2.971-.643,6.358.353,9.3A30.675,30.675,0,0,0,985.216,291.823Z" transform="translate(-639.039 -184.763)"/>
    <path id="Path_437" data-name="Path 437" class="cls-5" d="M887.684,442.017l-.434,4.694s-1.452-.1-3.61-.328l.141-7.633c1.766.53,3.122,1.042,3.726,1.286Z" transform="translate(-585.55 -290.395)"/>
    <path id="Path_438" data-name="Path 438" class="cls-9" d="M849.28,427.639l-4.5-.417.148-8.152,3.6.332Z" transform="translate(-546.393 -271.047)"/>
    <path id="Path_439" data-name="Path 439" class="cls-5" d="M993.333,308.827s-2.211,1.731-4.913,3.631c-2.964.671-6.4,1.226-8.883,1.586.887-2.826.353-6-.646-8.792,3.652-1.06,8.876-2.43,10.872-3.532A30.673,30.673,0,0,0,993.333,308.827Z" transform="translate(-647.156 -201.767)"/>
    <path id="Path_440" data-name="Path 440" class="cls-9" d="M982.807,302.22s2.5,5.676,4.076,8.241-18.3,4.945-18.3,4.945-2.063-7.146-1.077-7.965S981.143,303.88,982.807,302.22Z" transform="translate(-639.618 -202.09)"/>
    <path id="Path_441" data-name="Path 441" class="cls-5" d="M966.434,469.734a17.883,17.883,0,0,1-3.094,4.005c-8.781,8.343-23.175-.353-29.67-5.108a74.955,74.955,0,0,0,14.729-5.2s14.945-1.342,17.5,3.734a6,6,0,0,1,.537,2.564Z" transform="translate(-617.909 -306.258)"/>
    <path id="Path_442" data-name="Path 442" class="cls-10" d="M957.382,377.86c-9.982,9.48-27.2-3.073-31.839-6.771-.752-.6-1.173-.971-1.173-.971,1.833-1.717,3.444-5.355,4.719-9.805a86.058,86.058,0,0,0,2.568-12.991,48.215,48.215,0,0,1,7.6-20.78c.54-.812,1.06-1.572,1.6-2.236,3.769-4.793,10.1-7.838,10.1-7.838,13.366-3.907,15.164,15.92,14.807,16.492S968.985,366.836,957.382,377.86Z" transform="translate(-611.894 -210.975)"/>
    <path id="Path_443" data-name="Path 443" class="cls-5" d="M958.674,374.4s-8.594,20.981-12.031,22.178c-1.967.682-12.476-.611-21.1-1.844-.752-.6-1.173-.971-1.173-.971,1.833-1.717,3.444-5.355,4.719-9.805l11.109.53s-.618-6.407,1.014-20.776S951.889,352.9,951.889,352.9C966.855,357.916,958.674,374.4,958.674,374.4Z" transform="translate(-611.894 -234.619)"/>
    <path id="Path_444" data-name="Path 444" class="cls-5" d="M853.018,427.962l-1.943-.18-.516-8.212,1.706.155Z" transform="translate(-550.132 -271.371)"/>
    <path id="Path_445" data-name="Path 445" class="cls-10" d="M930.634,350.286s-9.046-3.557-10.678,10.808-1.014,20.776-1.014,20.776l-27.1-1.3.611,9.735s29.5,4.843,32.934,3.649,12.031-22.179,12.031-22.179S945.586,355.294,930.634,350.286Z" transform="translate(-590.854 -232.926)"/>
    <path id="Path_446" data-name="Path 446" class="cls-5" d="M980.875,283.2c-.4-2.148,1.847-2.119,2.653-4.14l-14.948,4.666a32.989,32.989,0,0,1,2.769,4.4,12.4,12.4,0,0,0,2.377.459C977.29,288.929,978.4,285.421,980.875,283.2Z" transform="translate(-640.488 -187.111)"/>
    <circle id="Ellipse_49" data-name="Ellipse 49" class="cls-8" cx="12.348" cy="12.348" r="12.348" transform="translate(320.14 99.053) rotate(-84.72)"/>
    <path id="Path_447" data-name="Path 447" class="cls-5" d="M949.57,219.876c.152,1.286,1.508,2.07,2.769,2.359a12.133,12.133,0,0,1,3.734.978c1.766,1.088,2.243,3.5,2.02,5.581-.124,1.173-.3,2.61.661,3.292a2.56,2.56,0,0,0,.989.353,9.275,9.275,0,0,0,3.045.106,4.329,4.329,0,0,1,1.766-.046,2.688,2.688,0,0,1,1.653,2.186c.18.943.081,1.925.226,2.875a5.969,5.969,0,0,0,4.7,4.853,2.589,2.589,0,0,0,1.66-.148,3.318,3.318,0,0,0,1.3-1.808l2.119-5.072a39.516,39.516,0,0,0,2.423-7.015,19.752,19.752,0,0,0-.844-10.929,7,7,0,0,0-2.37-3.458c-2.356-1.6-5.651-.495-8.329-1.413-.887-.307-1.685-.83-2.568-1.144a7.909,7.909,0,0,0-5.909.537,27.943,27.943,0,0,0-4.945,3.444C952.275,216.5,949.3,217.654,949.57,219.876Z" transform="translate(-628.181 -143.136)"/>
    <path id="Path_448" data-name="Path 448" class="cls-14" d="M950.49,219.106c.152,1.286,1.508,2.07,2.769,2.359a12.133,12.133,0,0,1,3.734.978c1.766,1.088,2.243,3.5,2.02,5.581-.124,1.173-.3,2.61.661,3.292a2.56,2.56,0,0,0,.989.353,9.276,9.276,0,0,0,3.045.106,4.33,4.33,0,0,1,1.766-.046,2.688,2.688,0,0,1,1.653,2.186c.18.943.081,1.925.226,2.875a5.969,5.969,0,0,0,4.7,4.853,2.589,2.589,0,0,0,1.66-.148,3.318,3.318,0,0,0,1.3-1.808l2.119-5.072a39.521,39.521,0,0,0,2.423-7.015,19.752,19.752,0,0,0-.844-10.929,7,7,0,0,0-2.37-3.458c-2.356-1.6-5.651-.495-8.329-1.413-.887-.307-1.685-.83-2.568-1.144a7.909,7.909,0,0,0-5.909.537,27.946,27.946,0,0,0-4.945,3.444C953.2,215.729,950.229,216.884,950.49,219.106Z" transform="translate(-628.777 -142.638)"/>
    <path id="Path_449" data-name="Path 449" class="cls-5" d="M956.615,373.34s-4.715,18.318-9.41,20.013-2.621,2.176-2.621,2.176" transform="translate(-624.673 -248.089)"/>
    <rect id="Rectangle_39" data-name="Rectangle 39" class="cls-2" width="5.125" height="33.686" transform="translate(327.04 192.355)"/>
    <rect id="Rectangle_40" data-name="Rectangle 40" class="cls-5" width="5.125" height="2.497" transform="translate(327.04 192.355)"/>
    <path id="Path_450" data-name="Path 450" class="cls-2" d="M936.57,559.787v.706a1.657,1.657,0,0,0,1.657,1.657h22.316a1.657,1.657,0,0,0,1.657-1.657v-.706a1.657,1.657,0,0,0-1.657-1.657H938.227A1.657,1.657,0,0,0,936.57,559.787Z" transform="translate(-619.784 -367.608)"/>
    <path id="Path_451" data-name="Path 451" class="cls-5" d="M937.65,558.734h24.87a1.65,1.65,0,0,0-1.279-.6H938.925A1.65,1.65,0,0,0,937.65,558.734Z" transform="translate(-620.483 -367.608)"/>
    <rect id="Rectangle_41" data-name="Rectangle 41" class="cls-2" width="42.107" height="4.027" rx="2.013" transform="translate(308.552 224.208)"/>
    <circle id="Ellipse_50" data-name="Ellipse 50" class="cls-4" cx="2.564" cy="2.564" r="2.564" transform="translate(345.714 228.235)"/>
    <circle id="Ellipse_51" data-name="Ellipse 51" class="cls-4" cx="2.564" cy="2.564" r="2.564" transform="translate(308.365 228.235)"/>
    <circle id="Ellipse_52" data-name="Ellipse 52" class="cls-4" cx="2.564" cy="2.564" r="2.564" transform="translate(327.04 228.235)"/>
    <rect id="Rectangle_42" data-name="Rectangle 42" class="cls-2" width="40.277" height="6.224" rx="3.112" transform="translate(324.157 150.979)"/>
    <path id="Path_452" data-name="Path 452" class="cls-5" d="M970.725,653.5s-2.013,1.989-5.125,0" transform="translate(-638.56 -429.292)"/>
    <path id="Path_453" data-name="Path 453" class="cls-5" d="M997.717,455.17v.491a2.561,2.561,0,0,1-2.561,2.561H960a2.561,2.561,0,0,1-2.561-2.561v-.491Z" transform="translate(-633.283 -301.016)"/>
    <rect id="Rectangle_43" data-name="Rectangle 43" class="cls-2" width="6.927" height="88.255" transform="translate(290.496 159.877)"/>
    <rect id="Rectangle_44" data-name="Rectangle 44" class="cls-5" width="6.927" height="5.722" transform="translate(290.496 159.877)"/>
    <rect id="Rectangle_45" data-name="Rectangle 45" class="cls-2" width="5.125" height="33.686" transform="translate(82.274 194.764)"/>
    <rect id="Rectangle_46" data-name="Rectangle 46" class="cls-5" width="5.125" height="2.497" transform="translate(82.274 194.764)"/>
    <path id="Path_454" data-name="Path 454" class="cls-2" d="M269.239,566.642v.706a1.657,1.657,0,0,1-1.657,1.657H245.267a1.657,1.657,0,0,1-1.657-1.657v-.706A1.657,1.657,0,0,1,245.267,565h22.316a1.657,1.657,0,0,1,1.657,1.657Z" transform="translate(-171.59 -372.052)"/>
    <path id="Path_455" data-name="Path 455" class="cls-5" d="M269.554,565.586H244.68a1.649,1.649,0,0,1,1.279-.586h22.316A1.649,1.649,0,0,1,269.554,565.586Z" transform="translate(-172.282 -372.052)"/>
    <rect id="Rectangle_47" data-name="Rectangle 47" class="cls-2" width="42.107" height="4.027" rx="2.013" transform="translate(63.783 226.617)"/>
    <circle id="Ellipse_53" data-name="Ellipse 53" class="cls-4" cx="2.564" cy="2.564" r="2.564" transform="translate(63.6 230.644)"/>
    <circle id="Ellipse_54" data-name="Ellipse 54" class="cls-4" cx="2.564" cy="2.564" r="2.564" transform="translate(100.945 230.644)"/>
    <circle id="Ellipse_55" data-name="Ellipse 55" class="cls-4" cx="2.564" cy="2.564" r="2.564" transform="translate(82.271 230.644)"/>
    <path id="Path_456" data-name="Path 456" class="cls-5" d="M272.64,660.32s2.013,1.989,5.125,0" transform="translate(-190.366 -433.703)"/>
    <path id="Path_457" data-name="Path 457" class="cls-15" d="M629.35,307.707s-5.75-10.452-3.649-19.536a18.073,18.073,0,0,0-1.007-11.388,30.4,30.4,0,0,0-2.7-4.853" transform="translate(-416.326 -182.499)"/>
    <path id="Path_458" data-name="Path 458" class="cls-10" d="M616.322,251.688c.3,1.37-1.307,5.888-1.307,5.888s-3.352-3.426-3.656-4.8a2.54,2.54,0,1,1,4.945-1.091Z" transform="translate(-409.373 -167.993)"/>
    <path id="Path_459" data-name="Path 459" class="cls-10" d="M632.974,268.174c-.491,1.314-4.3,4.239-4.3,4.239s-.954-4.7-.459-6a2.54,2.54,0,1,1,4.758,1.766Z" transform="translate(-420.257 -177.793)"/>
    <path id="Path_460" data-name="Path 460" class="cls-10" d="M638.8,303.184c-1.088.887-5.846,1.484-5.846,1.484s1.551-4.535,2.638-5.422a2.54,2.54,0,1,1,3.207,3.938Z" transform="translate(-423.408 -199.797)"/>
    <path id="Path_461" data-name="Path 461" class="cls-10" d="M638.86,332.767c-.922,1.06-5.51,2.451-5.51,2.451s.759-4.733,1.681-5.789a2.54,2.54,0,1,1,3.825,3.338Z" transform="translate(-423.667 -219.087)"/>
    <path id="Path_462" data-name="Path 462" class="cls-10" d="M612.891,281.9c1.194.738,5.987.706,5.987.706s-2.119-4.3-3.313-5.037a2.54,2.54,0,1,0-2.674,4.316Z" transform="translate(-409.618 -185.874)"/>
    <path id="Path_463" data-name="Path 463" class="cls-10" d="M611.684,315.584c1.36.353,5.927-1.1,5.927-1.1s-3.31-3.469-4.67-3.815a2.54,2.54,0,0,0-1.257,4.917Z" transform="translate(-408.482 -207.518)"/>
    <path id="Path_464" data-name="Path 464" class="cls-10" d="M616.576,348.958c1.279.572,6.029-.085,6.029-.085s-2.677-3.977-3.956-4.549a2.54,2.54,0,1,0-2.073,4.638Z" transform="translate(-411.845 -229.179)"/>
    <path id="Path_465" data-name="Path 465" class="cls-10" d="M616.322,251.688c.3,1.37-1.307,5.888-1.307,5.888s-3.352-3.426-3.656-4.8a2.54,2.54,0,1,1,4.945-1.091Z" transform="translate(-409.373 -167.993)"/>
    <path id="Path_466" data-name="Path 466" class="cls-10" d="M632.974,268.174c-.491,1.314-4.3,4.239-4.3,4.239s-.954-4.7-.459-6a2.54,2.54,0,1,1,4.758,1.766Z" transform="translate(-420.257 -177.793)"/>
    <path id="Path_467" data-name="Path 467" class="cls-10" d="M638.8,303.184c-1.088.887-5.846,1.484-5.846,1.484s1.551-4.535,2.638-5.422a2.54,2.54,0,1,1,3.207,3.938Z" transform="translate(-423.408 -199.797)"/>
    <path id="Path_468" data-name="Path 468" class="cls-10" d="M638.86,332.767c-.922,1.06-5.51,2.451-5.51,2.451s.759-4.733,1.681-5.789a2.54,2.54,0,1,1,3.825,3.338Z" transform="translate(-423.667 -219.087)"/>
    <path id="Path_469" data-name="Path 469" class="cls-10" d="M612.891,281.9c1.194.738,5.987.706,5.987.706s-2.119-4.3-3.313-5.037a2.54,2.54,0,1,0-2.674,4.316Z" transform="translate(-409.618 -185.874)"/>
    <path id="Path_470" data-name="Path 470" class="cls-10" d="M611.684,315.584c1.36.353,5.927-1.1,5.927-1.1s-3.31-3.469-4.67-3.815a2.54,2.54,0,0,0-1.257,4.917Z" transform="translate(-408.482 -207.518)"/>
    <path id="Path_471" data-name="Path 471" class="cls-10" d="M616.576,348.958c1.279.572,6.029-.085,6.029-.085s-2.677-3.977-3.956-4.549a2.54,2.54,0,1,0-2.073,4.638Z" transform="translate(-411.845 -229.179)"/>
    <path id="Path_472" data-name="Path 472" class="cls-10" d="M625.1,394.415h0a6.054,6.054,0,0,1-6.044-6.436l1.692-26.809h8.7l1.692,26.809a6.054,6.054,0,0,1-6.044,6.436Z" transform="translate(-414.415 -240.218)"/>
    <rect id="Rectangle_48" data-name="Rectangle 48" class="cls-1" width="4.945" height="20.487" transform="translate(29.525 22.401)"/>
    <rect id="Rectangle_49" data-name="Rectangle 49" class="cls-1" width="4.945" height="20.487" transform="translate(35.883 22.401)"/>
    <rect id="Rectangle_50" data-name="Rectangle 50" class="cls-1" width="4.945" height="20.487" transform="translate(42.241 22.401)"/>
    <rect id="Rectangle_51" data-name="Rectangle 51" class="cls-1" width="4.945" height="20.487" transform="translate(48.598 22.401)"/>
    <rect id="Rectangle_52" data-name="Rectangle 52" class="cls-1" width="4.945" height="20.487" transform="translate(61.314 22.401)"/>
    <rect id="Rectangle_53" data-name="Rectangle 53" class="cls-1" width="4.945" height="20.487" transform="translate(67.672 22.401)"/>
    <rect id="Rectangle_54" data-name="Rectangle 54" class="cls-1" width="4.945" height="1.06" transform="translate(29.525 26.286)"/>
    <rect id="Rectangle_55" data-name="Rectangle 55" class="cls-1" width="4.945" height="1.06" transform="translate(29.525 39.002)"/>
    <rect id="Rectangle_56" data-name="Rectangle 56" class="cls-1" width="4.945" height="1.06" transform="translate(35.883 26.286)"/>
    <rect id="Rectangle_57" data-name="Rectangle 57" class="cls-1" width="4.945" height="1.06" transform="translate(35.883 39.002)"/>
    <rect id="Rectangle_58" data-name="Rectangle 58" class="cls-1" width="4.945" height="1.06" transform="translate(42.241 26.286)"/>
    <rect id="Rectangle_59" data-name="Rectangle 59" class="cls-1" width="4.945" height="1.06" transform="translate(42.241 39.002)"/>
    <rect id="Rectangle_60" data-name="Rectangle 60" class="cls-1" width="4.945" height="1.06" transform="translate(48.598 26.286)"/>
    <rect id="Rectangle_61" data-name="Rectangle 61" class="cls-1" width="4.945" height="1.06" transform="translate(48.598 39.002)"/>
    <rect id="Rectangle_62" data-name="Rectangle 62" class="cls-1" width="4.945" height="1.06" transform="translate(54.956 26.286)"/>
    <rect id="Rectangle_63" data-name="Rectangle 63" class="cls-1" width="4.945" height="1.06" transform="translate(54.956 39.002)"/>
    <rect id="Rectangle_64" data-name="Rectangle 64" class="cls-1" width="4.945" height="1.06" transform="translate(61.314 26.286)"/>
    <rect id="Rectangle_65" data-name="Rectangle 65" class="cls-1" width="4.945" height="1.06" transform="translate(61.314 39.002)"/>
    <rect id="Rectangle_66" data-name="Rectangle 66" class="cls-1" width="4.945" height="1.06" transform="translate(67.672 26.286)"/>
    <rect id="Rectangle_67" data-name="Rectangle 67" class="cls-1" width="4.945" height="1.06" transform="translate(67.672 39.002)"/>
    <rect id="Rectangle_68" data-name="Rectangle 68" class="cls-1" width="4.945" height="20.487" transform="translate(54.956 22.401)"/>
    <rect id="Rectangle_69" data-name="Rectangle 69" class="cls-1" width="4.945" height="20.487" transform="translate(72.78 24.384) rotate(-24.84)"/>
    <rect id="Rectangle_70" data-name="Rectangle 70" class="cls-1" width="4.945" height="1.06" transform="translate(74.413 27.913) rotate(-24.84)"/>
    <rect id="Rectangle_71" data-name="Rectangle 71" class="cls-1" width="4.945" height="1.06" transform="translate(79.752 39.451) rotate(-24.84)"/>
    <path id="Path_473" data-name="Path 473" class="cls-16" d="M285.778,367.417l-8.975-5.726c-.046-8.064-.173-45.5,1.5-50.51a8.226,8.226,0,0,0,.071-4.454A12.894,12.894,0,0,0,267.806,297a151.916,151.916,0,0,1-17.484-3.762c5.019-.519,8.781-.968,8.781-.968l.1-.929,3.232-.155v-.138l.307-.018c7.548-.449,23.577-1.943,18.131-6.414a12.56,12.56,0,0,0-6.877-2.5c7.863-1.794,20.151-5.27,14.673-8.537-5.206-3.1-13.179-.664-17.936,1.318l-.293.124-.053-.427-1.9.381h0l-.6.12-.028-.622-26.664,4.118a91.008,91.008,0,0,0-1.088-9.117c.6-3.977,3.373-9.777,2.395-12.889-1.137-3.613-5.807-4.8-7.771-8.06-.516-.851-1.028-1.65-1.529-2.349a24.726,24.726,0,0,0-3.762-4.066,17.166,17.166,0,0,1,1.385-6.093,29.519,29.519,0,0,1,1.865-3.744,12.575,12.575,0,0,0,9.339-14.482c1.688.724,3.741.8,4.8-.615l-.5-.194a1.593,1.593,0,0,0,.141-.166,9.48,9.48,0,0,1-2.925-1.551,3.426,3.426,0,0,1-.512-.759c-.487-.989-.431-2.176-.9-3.179a3.677,3.677,0,0,0-.915-1.194,6.3,6.3,0,0,0-2.988-1.71,37.782,37.782,0,0,1-3.839-1.06,12.981,12.981,0,0,0-13.814-3.885l-.442.152a5.76,5.76,0,1,0-11.237-2.543,5.747,5.747,0,0,1,1.541-3.44c-.092.078-.187.152-.275.233a5.764,5.764,0,0,0-.251,8.149l.1.1a5.789,5.789,0,0,0,1.445,1.265,5.765,5.765,0,0,1-3.8-4.723c0,.12,0,.24,0,.353a5.764,5.764,0,0,0,6.128,5.418l.159-.018-.085.117a12.967,12.967,0,0,0,1.166,16.054,6,6,0,0,0,.925,1.484,4.807,4.807,0,0,0,.427.431,5.478,5.478,0,0,0,3.695,1.7q.353.42.752.809a21.024,21.024,0,0,1-.911,2.911,30.847,30.847,0,0,1-2.8,5.394c-7.629,2.169-8.3,15.125-8.025,15.616.328.586-1.137,20.932,4.514,45.509-.233,7.026,3.864,18.643,18.41,15.58,18.191.971,24.157,3.758,24.157,3.758s-1.727,31.638.738,36.244c1.544,2.886.449,7.124-.706,10.116a11.116,11.116,0,0,0-1.017,2.345c-.353.745-.611,1.2-.611,1.2h.247c-.932,3.239-1.593,7.149-1.593,7.149s22.051,4.475,31.751,1.547c3.765-1.137,3.921-2.19,2.7-3.059a19.64,19.64,0,0,0,2.663-.583C300.041,369.815,285.778,367.417,285.778,367.417Z" transform="translate(-148.331 -133.775)"/>
    <path id="Path_474" data-name="Path 474" class="cls-17" d="M246.432,231.716A12.716,12.716,0,1,1,233.716,219,12.716,12.716,0,0,1,246.432,231.716Z" transform="translate(-156.966 -148.265)"/>
    <path id="Path_475" data-name="Path 475" class="cls-8" d="M374.09,415.726l1.289,6.436s1.434-.258,3.557-.706c7.252-1.536,22.574-5.33,16.64-8.869-5.1-3.041-12.921-.65-17.583,1.293-1.71.706-3,1.363-3.571,1.671C374.207,415.659,374.09,415.726,374.09,415.726Z" transform="translate(-255.982 -272.536)"/>
    <path id="Path_476" data-name="Path 476" class="cls-5" d="M375.062,422.563l.925,4.62s1.434-.258,3.557-.706L378.6,418.9c-1.71.706-3,1.363-3.571,1.671Z" transform="translate(-256.59 -277.557)"/>
    <path id="Path_477" data-name="Path 477" class="cls-9" d="M334.57,408.3l4.429-.887-1-8.092-3.546.71Z" transform="translate(-216.321 -258.273)"/>
    <path id="Path_478" data-name="Path 478" class="cls-5" d="M334.57,408.984l1.911-.385-.35-8.219-1.681.336Z" transform="translate(-216.321 -258.959)"/>
    <path id="Path_479" data-name="Path 479" class="cls-10" d="M244.634,342.755s8.622-4.493,11.755,9.625,3.179,20.554,3.179,20.554l26.816-4.143.417,9.745s-28.823,7.923-32.365,7.1-14.3-20.787-14.3-20.787S230.283,349.322,244.634,342.755Z" transform="translate(-167.21 -227.868)"/>
    <g id="Group_88" data-name="Group 88" class="cls-11" transform="translate(70.335 114.914)">
      <path id="Path_480" data-name="Path 480" d="M374.09,415.726l1.289,6.436s1.434-.258,3.557-.706c7.252-1.536,22.574-5.33,16.64-8.869-5.1-3.041-12.921-.65-17.583,1.293-1.71.706-3,1.363-3.571,1.671C374.207,415.659,374.09,415.726,374.09,415.726Z" transform="translate(-326.317 -387.45)"/>
      <path id="Path_481" data-name="Path 481" class="cls-5" d="M375.062,422.563l.925,4.62s1.434-.258,3.557-.706L378.6,418.9c-1.71.706-3,1.363-3.571,1.671Z" transform="translate(-326.925 -392.471)"/>
      <path id="Path_482" data-name="Path 482" d="M334.57,408.3l4.429-.887-1-8.092-3.546.71Z" transform="translate(-286.655 -373.188)"/>
      <path id="Path_483" data-name="Path 483" class="cls-5" d="M334.57,408.984l1.911-.385-.35-8.219-1.681.336Z" transform="translate(-286.655 -373.873)"/>
      <path id="Path_484" data-name="Path 484" d="M246.634,344.755s8.622-4.493,11.755,9.625,3.179,20.554,3.179,20.554l26.816-4.143.417,9.745s-28.823,7.923-32.365,7.1-14.3-20.787-14.3-20.787S232.283,351.322,246.634,344.755Z" transform="translate(-238.838 -344.076)"/>
    </g>
    <path id="Path_485" data-name="Path 485" class="cls-18" d="M367.552,654.77l10.575,6.711s13.984,2.342,4.472,5.214-31.129-1.519-31.129-1.519,1.642-9.728,3.391-11.017S367.552,654.77,367.552,654.77Z" transform="translate(-241.352 -429.428)"/>
    <path id="Path_486" data-name="Path 486" class="cls-19" d="M252.489,452.171a75.5,75.5,0,0,0,14.757,5.923,147.21,147.21,0,0,0,17.385,3.762A12.649,12.649,0,0,1,295,471.393a8.067,8.067,0,0,1-.067,4.366c-1.844,5.517-1.469,51.029-1.469,51.029l-16.545.795s2.617-8.269-.608-12.635,2.176-36.286,2.176-36.286-5.86-2.734-23.7-3.684c-16.718,3.532-22.726-14.888-19.95-19.847S252.489,452.171,252.489,452.171Z" transform="translate(-165.496 -298.818)"/>
    <g id="Group_89" data-name="Group 89" class="cls-11" transform="translate(68.692 152.954)">
      <path id="Path_487" data-name="Path 487" d="M367.552,654.77l10.575,6.711s13.984,2.342,4.472,5.214-31.129-1.519-31.129-1.519,1.642-9.728,3.391-11.017S367.552,654.77,367.552,654.77Z" transform="translate(-310.044 -582.382)"/>
      <path id="Path_488" data-name="Path 488" d="M252.489,452.171a75.5,75.5,0,0,0,14.757,5.923,147.21,147.21,0,0,0,17.385,3.762A12.649,12.649,0,0,1,295,471.393a8.067,8.067,0,0,1-.067,4.366c-1.844,5.517-1.469,51.029-1.469,51.029l-16.545.795s2.617-8.269-.608-12.635,2.176-36.286,2.176-36.286-5.86-2.734-23.7-3.684c-16.718,3.532-22.726-14.888-19.95-19.847S252.489,452.171,252.489,452.171Z" transform="translate(-234.188 -451.772)"/>
    </g>
    <path id="Path_489" data-name="Path 489" class="cls-18" d="M352.632,664.88l10.575,6.711s13.984,2.342,4.472,5.214-31.129-1.519-31.129-1.519,1.642-9.728,3.391-11.017S352.632,664.88,352.632,664.88Z" transform="translate(-231.702 -435.967)"/>
    <path id="Path_490" data-name="Path 490" class="cls-19" d="M244.588,485.736c17.837.95,23.7,3.684,23.7,3.684s-1.692,31.02.706,35.534c2.561,4.79-2.289,13.387-2.289,13.387l16.545-.795v-1.5c-.049-7.9-.17-44.611,1.473-49.532a8.068,8.068,0,0,0,.067-4.366,12.652,12.652,0,0,0-10.367-9.537,146.293,146.293,0,0,1-17.385-3.758l-.272-.085a74.078,74.078,0,0,1-14.482-5.839s-11.017-.763-13.775,4.2c-.353.643-1.876,1.907-1.939,2.928C226.153,476.888,230.042,488.8,244.588,485.736Z" transform="translate(-160.548 -306.009)"/>
    <path id="Path_491" data-name="Path 491" class="cls-8" d="M351.81,441.122l.314,6.556s1.455-.039,3.624-.17c7.4-.442,23.118-1.9,17.777-6.287-4.592-3.769-12.68-2.568-17.58-1.342-1.8.452-3.179.9-3.779,1.12C351.934,441.076,351.81,441.122,351.81,441.122Z" transform="translate(-241.572 -290.348)"/>
    <path id="Path_492" data-name="Path 492" class="cls-8" d="M233,289.616s2.119,1.826,4.747,3.847c2.932.8,6.358,1.508,8.806,1.978a14.128,14.128,0,0,1,1.035-8.756,33.094,33.094,0,0,1,4.79-7.951l-14.729-5.323c1.042,3.02.353,6.393-.766,9.279A30.676,30.676,0,0,1,233,289.616Z" transform="translate(-164.727 -183.456)"/>
    <path id="Path_493" data-name="Path 493" class="cls-5" d="M352.06,445.164l.226,4.708s1.455-.039,3.624-.17l.2-7.633c-1.8.452-3.179.9-3.779,1.12Z" transform="translate(-241.733 -292.543)"/>
    <path id="Path_494" data-name="Path 494" class="cls-9" d="M309.62,430.728l4.511-.215.212-8.152-3.61.173Z" transform="translate(-200.261 -273.175)"/>
    <path id="Path_495" data-name="Path 495" class="cls-10" d="M218.692,375.524c9.537,9.915,27.321-1.868,32.1-5.358.777-.569,1.212-.918,1.212-.918-1.766-1.8-4.592-3.462-5.676-7.965a97.84,97.84,0,0,1-2.1-13.959c-.293-3.726,3.557-10.823,2.444-14.362s-5.694-4.7-7.619-7.9c-.505-.834-1.007-1.618-1.5-2.3-3.553-4.945-9.745-8.276-9.745-8.276-13.193-4.5-14.228,14.337-13.9,14.923S212.733,350.757,218.692,375.524Z" transform="translate(-152.351 -209.569)"/>
    <path id="Path_496" data-name="Path 496" class="cls-5" d="M223.906,372.443s7.661,21.341,11.042,22.687c1.936.77,12.493-.06,21.161-.911.777-.569,1.212-.918,1.212-.918-1.766-1.8-3.2-5.5-4.285-10l-11.123.039s.9-6.358-.1-20.8-10.19-11.268-10.19-11.268C216.464,355.616,223.906,372.443,223.906,372.443Z" transform="translate(-157.664 -233.622)"/>
    <path id="Path_497" data-name="Path 497" class="cls-5" d="M309.62,430.9l1.946-.092.88-8.184-1.713.081Z" transform="translate(-200.261 -273.344)"/>
    <path id="Path_498" data-name="Path 498" class="cls-10" d="M232.368,348.675s9.184-3.154,10.19,11.268.106,20.8.106,20.8l27.134-.1-1.042,9.7s-29.67,3.532-33.061,2.193-11.045-22.684-11.045-22.684S217.2,353.023,232.368,348.675Z" transform="translate(-158.144 -231.948)"/>
    <path id="Path_499" data-name="Path 499" class="cls-5" d="M246.273,281.239c.491-2.119-1.766-2.186-2.473-4.239l14.736,5.3a32.994,32.994,0,0,0-2.96,4.277,12.4,12.4,0,0,1-2.395.353C249.6,287.106,248.643,283.563,246.273,281.239Z" transform="translate(-171.713 -185.778)"/>
    <circle id="Ellipse_56" data-name="Ellipse 56" class="cls-8" cx="12.348" cy="12.348" r="12.348" transform="translate(68.79 75.837) rotate(-2.75)"/>
    <path id="Path_500" data-name="Path 500" class="cls-5" d="M253,375.14s3.907,18.505,8.52,20.395,2.522,2.292,2.522,2.292" transform="translate(-177.663 -249.254)"/>
    <path id="Path_501" data-name="Path 501" class="cls-5" d="M285.644,397.667s-3.264,1.021-7.064-3.857" transform="translate(-194.208 -261.329)"/>
    <circle id="Ellipse_57" data-name="Ellipse 57" class="cls-17" cx="5.651" cy="5.651" r="5.651" transform="translate(61.208 64.73)"/>
    <path id="Path_502" data-name="Path 502" class="cls-17" d="M214.007,212.292a5.652,5.652,0,0,1,0-7.732c-.092.074-.184.148-.268.23a5.652,5.652,0,1,0,7.743,8.237c.088-.081.166-.17.244-.254A5.651,5.651,0,0,1,214.007,212.292Z" transform="translate(-151.117 -138.925)"/>
    <path id="Path_503" data-name="Path 503" class="cls-17" d="M216.008,222.141a5.651,5.651,0,0,1-5.948-4.945v.353a5.652,5.652,0,1,0,11.282-.706,3,3,0,0,0-.039-.353A5.651,5.651,0,0,1,216.008,222.141Z" transform="translate(-149.89 -146.642)"/>
    <path id="Path_504" data-name="Path 504" class="cls-5" d="M247.813,226.195a25.315,25.315,0,0,0,4.239,1.24,5.254,5.254,0,0,1,3.476,2.494c.456.982.4,2.144.88,3.115.685,1.413,2.268,2.063,3.723,2.617-1.25,1.678-3.935,1.222-5.687.081s-3.26-2.826-5.3-3.267a4.973,4.973,0,0,0-5.231,2.328,12.562,12.562,0,0,0-1.031,3.207c-.706,2.868-2.119,5.722-4.592,7.35s-6.157,1.618-8.1-.611a10.01,10.01,0,0,1-1.844-4.758,9.667,9.667,0,0,1-.272-2.405c.113-2.027,1.462-3.755,2.826-5.259,1.607-1.766,3.317-3.462,5.026-5.146,1.476-1.455,3.179-3.921,5.4-4.094C243.9,222.881,245.711,225.167,247.813,226.195Z" transform="translate(-161.544 -150.9)"/>
    <path id="Path_505" data-name="Path 505" class="cls-17" d="M246.813,225.195a25.314,25.314,0,0,0,4.239,1.24,5.254,5.254,0,0,1,3.476,2.494c.456.982.4,2.144.88,3.115.685,1.413,2.268,2.063,3.723,2.617-1.25,1.678-3.935,1.222-5.687.081s-3.26-2.826-5.3-3.267a4.973,4.973,0,0,0-5.231,2.328,12.563,12.563,0,0,0-1.031,3.207c-.706,2.868-2.119,5.722-4.592,7.35s-6.157,1.618-8.1-.611a10.01,10.01,0,0,1-1.844-4.758,9.666,9.666,0,0,1-.272-2.405c.113-2.027,1.462-3.755,2.826-5.259,1.607-1.766,3.317-3.462,5.026-5.146,1.476-1.455,3.179-3.921,5.4-4.094C242.9,221.881,244.711,224.167,246.813,225.195Z" transform="translate(-160.897 -150.253)"/>
    <rect id="Rectangle_72" data-name="Rectangle 72" class="cls-2" width="40.277" height="6.224" rx="3.112" transform="translate(50.004 153.388)"/>
    <path id="Path_506" data-name="Path 506" class="cls-5" d="M181.28,462v.491a2.561,2.561,0,0,0,2.561,2.561H219a2.561,2.561,0,0,0,2.561-2.561V462Z" transform="translate(-131.276 -305.433)"/>
    <rect id="Rectangle_73" data-name="Rectangle 73" class="cls-2" width="6.927" height="88.244" transform="translate(120.934 159.877)"/>
    <rect id="Rectangle_74" data-name="Rectangle 74" class="cls-5" width="6.927" height="5.722" transform="translate(120.934 159.877)"/>
    <rect id="Rectangle_75" data-name="Rectangle 75" class="cls-2" width="183.115" height="11.444" transform="translate(117.621 153.55)"/>
  </g>
</svg>
