<svg xmlns="http://www.w3.org/2000/svg" viewBox="0 0 36.235 36.235">
  <defs>
    <style>
      .cls-1 {
        fill: #3f3d56;
        opacity: 1;
      }
    </style>
  </defs>
  <path id="linkedin" class="cls-1" d="M32.957,0H3.278A3.278,3.278,0,0,0,0,3.278v29.68a3.278,3.278,0,0,0,3.278,3.278h29.68a3.278,3.278,0,0,0,3.278-3.278V3.278A3.278,3.278,0,0,0,32.957,0ZM11.213,31.288a.954.954,0,0,1-.954.954H6.2a.954.954,0,0,1-.954-.954V14.267a.954.954,0,0,1,.954-.954h4.06a.954.954,0,0,1,.954.954ZM8.229,11.708a3.857,3.857,0,1,1,3.857-3.857A3.857,3.857,0,0,1,8.229,11.708Zm24.2,19.656a.877.877,0,0,1-.877.877H27.2a.877.877,0,0,1-.877-.877V23.381c0-1.191.349-5.219-3.113-5.219-2.685,0-3.23,2.757-3.339,3.994v9.209a.877.877,0,0,1-.877.877H14.778a.877.877,0,0,1-.877-.877V14.19a.877.877,0,0,1,.877-.877h4.214a.877.877,0,0,1,.877.877v1.485c1-1.494,2.475-2.648,5.626-2.648,6.977,0,6.937,6.518,6.937,10.1v8.238Z"/>
</svg>
