<svg xmlns="http://www.w3.org/2000/svg" viewBox="0 0 36.707 36.707">
  <defs>
    <style>
      .cls-1 {
        opacity: 1;
      }

      .cls-2 {
        fill: #3f3d56;
      }
    </style>
  </defs>
  <g id="medium-seeklogo.com" class="cls-1">
    <path id="Exclusion_1" data-name="Exclusion 1" class="cls-2" d="M36.707,36.707H0V0H36.707V36.707ZM22.964,13.753h0V24.959c0,.3,0,.357-.2.552l-1.991,1.934v.414h9.671v-.414l-1.923-1.887A.576.576,0,0,1,28.307,25V11.137a.576.576,0,0,1,.219-.553L30.5,8.7V8.283H23.679L18.822,20.4,13.3,8.283H6.146V8.7l2.3,2.774a.957.957,0,0,1,.311.805v10.9a1.26,1.26,0,0,1-.334,1.082L5.836,27.4v.414H13.18V27.4l-2.59-3.142a1.293,1.293,0,0,1-.357-1.082V13.749L16.68,27.813h.748Z" transform="translate(0 0)"/>
  </g>
</svg>
