<?xml version="1.0"?>
<svg xmlns="http://www.w3.org/2000/svg" height="512px" viewBox="0 0 512 512" width="512px" class=""><g><path d="m166 512h120c87.605469 0 159.28125-69.679688 164.492188-156.003906l61.507812-26.578125-13.417969-26.835938-65.6875 28.417969h-41.894531v-30h51.210938l4.394531-4.394531c38.9375-38.9375 38.9375-102.277344 0-141.210938l-4.394531-4.394531h-51.210938v-30h23.027344l4.453125-6.679688c21.589843-32.386718 21.589843-75.253906 0-107.640624l-4.453125-6.679688h-126.050782l15.542969 23.320312c14.851563 22.28125 14.851563 52.078126 0 74.359376l-15.542969 23.320312h73.023438v30h-81.210938l25.605469 25.605469c27.230469 27.230469 27.230469 71.558593 0 98.789062l-25.605469 25.605469h81.210938v30h-23.789062c-17.679688 0-34.308594 6.886719-46.816407 19.394531-6.839843 6.839844-15.9375 10.605469-25.605469 10.605469h-77.578124c-9.667969 0-18.765626-3.765625-25.605469-10.605469-11.015625-11.015625-25.296875-17.359375-40.605469-18.789062v-30.605469h51.210938l4.394531-4.394531c38.9375-38.9375 38.9375-102.277344 0-141.210938l-4.394531-4.394531h-51.210938v-30h23.027344l4.453125-6.679688c21.589843-32.386718 21.589843-75.253906 0-107.640624l-4.453125-6.679688h-126.050782l15.542969 23.320312c14.855469 22.28125 14.855469 52.078126 0 74.359376l-15.542969 23.320312h73.023438v30h-81.210938l25.605469 25.605469c27.230469 27.230469 27.230469 71.558593 0 98.789062l-25.605469 25.605469h81.210938v30h-91v15c0 90.980469 75.019531 166 166 166zm105-91h30v30h-30zm-60 0h30v30h-30zm-60 0h30v30h-30zm0 0" data-original="#000000" class="active-path" data-old_color="#F7F5F5" fill="#F9F9F9"/></g> </svg>
