<svg xmlns="http://www.w3.org/2000/svg" viewBox="0 0 42.658 34.651">
  <defs>
    <style>
      .cls-1 {
        opacity: 1;
      }

      .cls-2 {
        fill: #3f3d56;
      }
    </style>
  </defs>
  <g id="twitter-logo-silhouette" class="cls-1" transform="translate(0 0)">
    <g id="Group_3" data-name="Group 3" transform="translate(0)">
      <path id="Path_1" data-name="Path 1" class="cls-2" d="M42.659,61.541a17.476,17.476,0,0,1-5.025,1.378,8.787,8.787,0,0,0,3.847-4.838,17.642,17.642,0,0,1-5.561,2.125,8.758,8.758,0,0,0-14.912,7.978A24.845,24.845,0,0,1,2.973,59.04,8.761,8.761,0,0,0,5.681,70.721a8.752,8.752,0,0,1-3.964-1.1v.109a8.76,8.76,0,0,0,7.019,8.581,8.864,8.864,0,0,1-2.306.307,8.4,8.4,0,0,1-1.647-.163,8.756,8.756,0,0,0,8.173,6.078,17.557,17.557,0,0,1-10.868,3.74A18.6,18.6,0,0,1,0,88.155a24.736,24.736,0,0,0,13.414,3.937c16.1,0,24.9-13.334,24.9-24.9l-.029-1.133A17.475,17.475,0,0,0,42.659,61.541Z" transform="translate(-0.001 -57.441)"/>
    </g>
  </g>
</svg>
